LifeSavers-Regular-OTF.ufo
<glyph name="exclam" format="1">
  <advance width="222"/>
  <unicode hex="0021"/>
  <outline>
    <contour>
      <point x="98" y="127" type="curve" smooth="yes"/>
      <point x="100" y="105"/>
      <point x="105" y="101"/>
      <point x="112" y="101" type="curve" smooth="yes"/>
      <point x="126" y="101"/>
      <point x="128" y="125"/>
      <point x="128" y="172" type="curve" smooth="yes"/>
      <point x="128" y="795" type="line" smooth="yes"/>
      <point x="128" y="826"/>
      <point x="119" y="826"/>
      <point x="107" y="826" type="curve" smooth="yes"/>
      <point x="91" y="826"/>
      <point x="88" y="821"/>
      <point x="88" y="795" type="curve" smooth="yes"/>
      <point x="88" y="656"/>
      <point x="95" y="156"/>
    </contour>
    <contour>
      <point x="150" y="20" type="curve" smooth="yes" name="hr01"/>
      <point x="150" y="40"/>
      <point x="136" y="56"/>
      <point x="117" y="56" type="curve" smooth="yes"/>
      <point x="98" y="56"/>
      <point x="79" y="46"/>
      <point x="79" y="21" type="curve" smooth="yes"/>
      <point x="79" y="-3"/>
      <point x="97" y="-13"/>
      <point x="114" y="-13" type="curve" smooth="yes"/>
      <point x="130" y="-13"/>
      <point x="150" y="-2"/>
    </contour>
  </outline>
</glyph>
<glyph name="numbersign" format="1">
  <advance width="705"/>
  <unicode hex="0023"/>
  <outline>
    <contour>
      <point x="41" y="242" type="curve" smooth="yes"/>
      <point x="55" y="242"/>
      <point x="109" y="243"/>
      <point x="170" y="243" type="curve"/>
      <point x="125" y="137"/>
      <point x="88" y="45"/>
      <point x="89" y="37" type="curve" smooth="yes"/>
      <point x="91" y="26"/>
      <point x="98" y="22"/>
      <point x="108" y="22" type="curve" smooth="yes"/>
      <point x="123" y="22"/>
      <point x="127" y="32"/>
      <point x="130" y="42" type="curve" smooth="yes"/>
      <point x="137" y="65"/>
      <point x="172" y="147"/>
      <point x="211" y="244" type="curve"/>
      <point x="272" y="244"/>
      <point x="331" y="245"/>
      <point x="356" y="245" type="curve" smooth="yes"/>
      <point x="397" y="245" type="line"/>
      <point x="351" y="137"/>
      <point x="314" y="45"/>
      <point x="315" y="37" type="curve" smooth="yes"/>
      <point x="317" y="26"/>
      <point x="324" y="22"/>
      <point x="334" y="22" type="curve" smooth="yes"/>
      <point x="349" y="22"/>
      <point x="353" y="32"/>
      <point x="356" y="42" type="curve" smooth="yes"/>
      <point x="363" y="65"/>
      <point x="396" y="147"/>
      <point x="437" y="244" type="curve"/>
      <point x="507" y="244"/>
      <point x="595" y="243"/>
      <point x="608" y="243" type="curve" smooth="yes"/>
      <point x="619" y="243"/>
      <point x="623" y="252"/>
      <point x="623" y="259" type="curve"/>
      <point x="622" y="266"/>
      <point x="614" y="276"/>
      <point x="605" y="276" type="curve" smooth="yes"/>
      <point x="451" y="276" type="line"/>
      <point x="517" y="432" type="line"/>
      <point x="659" y="432" type="line" smooth="yes"/>
      <point x="674" y="432"/>
      <point x="676" y="445"/>
      <point x="676" y="451" type="curve" smooth="yes"/>
      <point x="676" y="458"/>
      <point x="668" y="465"/>
      <point x="663" y="465" type="curve" smooth="yes" name="hr01"/>
      <point x="647" y="465"/>
      <point x="591" y="464"/>
      <point x="530" y="463" type="curve" name="hr02"/>
      <point x="572" y="563"/>
      <point x="606" y="644"/>
      <point x="605" y="650" type="curve"/>
      <point x="605" y="655"/>
      <point x="599" y="660"/>
      <point x="591" y="660" type="curve" smooth="yes" name="hr03"/>
      <point x="573" y="660"/>
      <point x="567" y="641"/>
      <point x="550" y="602" type="curve" smooth="yes"/>
      <point x="490" y="463" type="line" name="hr04"/>
      <point x="439" y="462"/>
      <point x="390" y="462"/>
      <point x="368" y="462" type="curve" smooth="yes" name="hr05"/>
      <point x="304" y="462" type="line"/>
      <point x="346" y="562"/>
      <point x="380" y="644"/>
      <point x="379" y="650" type="curve"/>
      <point x="379" y="655"/>
      <point x="373" y="660"/>
      <point x="365" y="660" type="curve" smooth="yes" name="hr06"/>
      <point x="340" y="660"/>
      <point x="339" y="642"/>
      <point x="324" y="602" type="curve" smooth="yes"/>
      <point x="323" y="600"/>
      <point x="297" y="541"/>
      <point x="264" y="462" type="curve" name="hr07"/>
      <point x="191" y="463"/>
      <point x="106" y="464"/>
      <point x="95" y="464" type="curve" smooth="yes" name="hr08"/>
      <point x="84" y="464"/>
      <point x="81" y="455"/>
      <point x="81" y="448" type="curve" smooth="yes"/>
      <point x="81" y="439"/>
      <point x="90" y="431"/>
      <point x="99" y="431" type="curve" smooth="yes"/>
      <point x="250" y="431" type="line"/>
      <point x="184" y="275" type="line"/>
      <point x="46" y="275" type="line" smooth="yes"/>
      <point x="31" y="275"/>
      <point x="29" y="262"/>
      <point x="29" y="256" type="curve" smooth="yes"/>
      <point x="29" y="247"/>
      <point x="36" y="242"/>
    </contour>
    <contour>
      <point x="291" y="431" type="line"/>
      <point x="352" y="431"/>
      <point x="416" y="432"/>
      <point x="477" y="432" type="curve" name="hr09"/>
      <point x="456" y="382"/>
      <point x="432" y="329"/>
      <point x="410" y="276" type="curve"/>
      <point x="349" y="276"/>
      <point x="284" y="275"/>
      <point x="224" y="275" type="curve"/>
    </contour>
  </outline>
</glyph>
<glyph name="dollar" format="1">
  <advance width="600"/>
  <unicode hex="0024"/>
  <outline>
    <contour>
      <point x="83" y="91" type="curve"/>
      <point x="121" y="20"/>
      <point x="211" y="-11"/>
      <point x="291" y="-15" type="curve"/>
      <point x="291" y="-51" type="line" smooth="yes"/>
      <point x="291" y="-59"/>
      <point x="300" y="-65"/>
      <point x="311" y="-65" type="curve" smooth="yes"/>
      <point x="324" y="-65"/>
      <point x="331" y="-61"/>
      <point x="331" y="-48" type="curve" smooth="yes"/>
      <point x="331" y="-37"/>
      <point x="330" y="-26"/>
      <point x="330" y="-15" type="curve"/>
      <point x="419" y="-9"/>
      <point x="539" y="36"/>
      <point x="539" y="145" type="curve" smooth="yes"/>
      <point x="539" y="231"/>
      <point x="420" y="284"/>
      <point x="329" y="321" type="curve"/>
      <point x="329" y="509"/>
      <point x="329" y="630"/>
      <point x="331" y="756" type="curve"/>
      <point x="432" y="749"/>
      <point x="509" y="638"/>
      <point x="509" y="517" type="curve" smooth="yes"/>
      <point x="509" y="488"/>
      <point x="511" y="458"/>
      <point x="530" y="458" type="curve" smooth="yes"/>
      <point x="547" y="458"/>
      <point x="549" y="473"/>
      <point x="549" y="492" type="curve" smooth="yes"/>
      <point x="549" y="534"/>
      <point x="547" y="560"/>
      <point x="547" y="602" type="curve" smooth="yes"/>
      <point x="547" y="650"/>
      <point x="551" y="701"/>
      <point x="551" y="748" type="curve" smooth="yes" name="hr01"/>
      <point x="551" y="757"/>
      <point x="544" y="771"/>
      <point x="531" y="771" type="curve" smooth="yes"/>
      <point x="519" y="771"/>
      <point x="512" y="762"/>
      <point x="512" y="746" type="curve"/>
      <point x="512" y="745"/>
      <point x="515" y="704"/>
      <point x="520" y="621" type="curve"/>
      <point x="482" y="729"/>
      <point x="419" y="781"/>
      <point x="331" y="786" type="curve"/>
      <point x="331" y="802" type="line" smooth="yes"/>
      <point x="331" y="818"/>
      <point x="326" y="840"/>
      <point x="312" y="840" type="curve" smooth="yes"/>
      <point x="306" y="840"/>
      <point x="291" y="836"/>
      <point x="291" y="818" type="curve" smooth="yes"/>
      <point x="291" y="786" type="line"/>
      <point x="169" y="778"/>
      <point x="57" y="705"/>
      <point x="57" y="574" type="curve" smooth="yes"/>
      <point x="57" y="379"/>
      <point x="206" y="325"/>
      <point x="292" y="293" type="curve"/>
      <point x="292" y="200"/>
      <point x="291" y="107"/>
      <point x="291" y="14" type="curve"/>
      <point x="161" y="21"/>
      <point x="90" y="100"/>
      <point x="90" y="180" type="curve" smooth="yes"/>
      <point x="90" y="209"/>
      <point x="87" y="239"/>
      <point x="68" y="239" type="curve" smooth="yes"/>
      <point x="51" y="239"/>
      <point x="49" y="224"/>
      <point x="49" y="205" type="curve" smooth="yes"/>
      <point x="49" y="163"/>
      <point x="51" y="150"/>
      <point x="51" y="108" type="curve" smooth="yes"/>
      <point x="51" y="79"/>
      <point x="47" y="22"/>
      <point x="47" y="7" type="curve" smooth="yes"/>
      <point x="47" y="-2"/>
      <point x="54" y="-16"/>
      <point x="67" y="-16" type="curve" smooth="yes"/>
      <point x="79" y="-16"/>
      <point x="86" y="-7"/>
      <point x="86" y="9" type="curve"/>
      <point x="86" y="10"/>
    </contour>
    <contour>
      <point x="292" y="336" type="curve"/>
      <point x="203" y="370"/>
      <point x="98" y="421"/>
      <point x="98" y="565" type="curve" smooth="yes"/>
      <point x="98" y="669"/>
      <point x="172" y="745"/>
      <point x="291" y="755" type="curve"/>
      <point x="292" y="631"/>
      <point x="292" y="513"/>
    </contour>
    <contour>
      <point x="329" y="279" type="curve"/>
      <point x="412" y="245"/>
      <point x="498" y="206"/>
      <point x="498" y="145" type="curve" smooth="yes"/>
      <point x="498" y="68"/>
      <point x="417" y="21"/>
      <point x="330" y="15" type="curve" name="hr02"/>
      <point x="329" y="103"/>
      <point x="329" y="191"/>
    </contour>
  </outline>
</glyph>
<glyph name="percent" format="1">
  <advance width="634"/>
  <unicode hex="0025"/>
  <outline>
    <contour>
      <point x="30" y="513" type="curve" smooth="yes"/>
      <point x="30" y="419"/>
      <point x="94" y="372"/>
      <point x="144" y="372" type="curve" smooth="yes"/>
      <point x="202" y="372"/>
      <point x="252" y="435"/>
      <point x="252" y="526" type="curve" smooth="yes"/>
      <point x="252" y="539"/>
      <point x="251" y="562"/>
      <point x="241" y="582" type="curve"/>
      <point x="283" y="554"/>
      <point x="331" y="545"/>
      <point x="385" y="545" type="curve" smooth="yes"/>
      <point x="402" y="545"/>
      <point x="430" y="547"/>
      <point x="449" y="550" type="curve"/>
      <point x="448" y="545"/>
      <point x="179" y="58"/>
      <point x="179" y="37" type="curve" smooth="yes" name="hr01"/>
      <point x="179" y="26"/>
      <point x="186" y="22"/>
      <point x="196" y="22" type="curve" smooth="yes"/>
      <point x="211" y="22"/>
      <point x="216" y="32"/>
      <point x="220" y="42" type="curve" smooth="yes"/>
      <point x="246" y="107"/>
      <point x="535" y="634"/>
      <point x="535" y="650" type="curve" smooth="yes"/>
      <point x="535" y="655"/>
      <point x="530" y="660"/>
      <point x="522" y="660" type="curve" smooth="yes"/>
      <point x="497" y="660"/>
      <point x="485" y="604"/>
      <point x="456" y="584" type="curve" smooth="yes"/>
      <point x="437" y="571"/>
      <point x="411" y="571"/>
      <point x="387" y="571" type="curve" smooth="yes"/>
      <point x="227" y="571"/>
      <point x="228" y="662"/>
      <point x="152" y="662" type="curve" smooth="yes"/>
      <point x="93" y="662"/>
      <point x="30" y="606"/>
    </contour>
    <contour>
      <point x="373" y="122" type="curve" smooth="yes" name="hr02"/>
      <point x="373" y="51"/>
      <point x="410" y="-19"/>
      <point x="480" y="-19" type="curve" smooth="yes"/>
      <point x="542" y="-19"/>
      <point x="590" y="38"/>
      <point x="590" y="125" type="curve" smooth="yes"/>
      <point x="590" y="202"/>
      <point x="553" y="266"/>
      <point x="485" y="266" type="curve" smooth="yes"/>
      <point x="420" y="266"/>
      <point x="373" y="207"/>
    </contour>
    <contour>
      <point x="404" y="124" type="curve" smooth="yes"/>
      <point x="404" y="199"/>
      <point x="444" y="235"/>
      <point x="481" y="235" type="curve" smooth="yes"/>
      <point x="515" y="235"/>
      <point x="556" y="208"/>
      <point x="556" y="128" type="curve" smooth="yes"/>
      <point x="556" y="75"/>
      <point x="533" y="12"/>
      <point x="478" y="12" type="curve" smooth="yes"/>
      <point x="419" y="12"/>
      <point x="404" y="85"/>
    </contour>
    <contour>
      <point x="61" y="513" type="curve" smooth="yes"/>
      <point x="61" y="602"/>
      <point x="114" y="631"/>
      <point x="149" y="631" type="curve" smooth="yes"/>
      <point x="184" y="631"/>
      <point x="221" y="601"/>
      <point x="221" y="521" type="curve" smooth="yes"/>
      <point x="221" y="447"/>
      <point x="186" y="403"/>
      <point x="141" y="403" type="curve" smooth="yes"/>
      <point x="94" y="403"/>
      <point x="61" y="453"/>
    </contour>
  </outline>
</glyph>
<glyph name="ampersand" format="1">
  <advance width="708"/>
  <unicode hex="0026"/>
  <outline>
    <contour>
      <point x="434" y="359" type="curve" smooth="yes"/>
      <point x="453" y="359"/>
      <point x="470" y="373"/>
      <point x="470" y="391" type="curve" smooth="yes"/>
      <point x="470" y="418"/>
      <point x="477" y="422"/>
      <point x="485" y="422" type="curve" smooth="yes"/>
      <point x="498" y="422"/>
      <point x="514" y="400"/>
      <point x="514" y="332" type="curve" smooth="yes"/>
      <point x="514" y="274"/>
      <point x="492" y="207"/>
      <point x="464" y="163" type="curve"/>
      <point x="408" y="244"/>
      <point x="309" y="367"/>
      <point x="269" y="460" type="curve"/>
      <point x="328" y="517"/>
      <point x="417" y="604"/>
      <point x="417" y="713" type="curve" smooth="yes"/>
      <point x="417" y="806"/>
      <point x="352" y="838"/>
      <point x="295" y="838" type="curve" smooth="yes"/>
      <point x="217" y="838"/>
      <point x="145" y="778"/>
      <point x="145" y="677" type="curve" smooth="yes"/>
      <point x="145" y="611"/>
      <point x="176" y="541"/>
      <point x="213" y="469" type="curve"/>
      <point x="152" y="392"/>
      <point x="38" y="328"/>
      <point x="38" y="182" type="curve" smooth="yes"/>
      <point x="38" y="36"/>
      <point x="153" y="-9"/>
      <point x="240" y="-9" type="curve" smooth="yes"/>
      <point x="336" y="-9"/>
      <point x="411" y="46"/>
      <point x="461" y="108" type="curve"/>
      <point x="507" y="53"/>
      <point x="561" y="-19"/>
      <point x="595" y="-19" type="curve" smooth="yes" name="hr01"/>
      <point x="689" y="-19"/>
      <point x="730" y="-19"/>
      <point x="730" y="0" type="curve" smooth="yes"/>
      <point x="730" y="13"/>
      <point x="715" y="13"/>
      <point x="684" y="13" type="curve" smooth="yes"/>
      <point x="629" y="13"/>
      <point x="600" y="14"/>
      <point x="596" y="16" type="curve" smooth="yes"/>
      <point x="574" y="27"/>
      <point x="521" y="88"/>
      <point x="485" y="140" type="curve"/>
      <point x="516" y="195"/>
      <point x="547" y="270"/>
      <point x="547" y="333" type="curve" smooth="yes"/>
      <point x="547" y="416"/>
      <point x="516" y="457"/>
      <point x="474" y="457" type="curve" smooth="yes"/>
      <point x="455" y="457"/>
      <point x="403" y="440"/>
      <point x="403" y="391" type="curve" smooth="yes"/>
      <point x="403" y="379"/>
      <point x="414" y="359"/>
    </contour>
    <contour>
      <point x="235" y="434" type="curve"/>
      <point x="311" y="298"/>
      <point x="376" y="210"/>
      <point x="440" y="132" type="curve"/>
      <point x="411" y="86"/>
      <point x="344" y="22"/>
      <point x="241" y="22" type="curve" smooth="yes" name="hr02"/>
      <point x="181" y="22"/>
      <point x="83" y="44"/>
      <point x="83" y="188" type="curve" smooth="yes"/>
      <point x="83" y="284"/>
      <point x="127" y="334"/>
    </contour>
    <contour>
      <point x="373" y="709" type="curve" smooth="yes"/>
      <point x="373" y="607"/>
      <point x="306" y="554"/>
      <point x="247" y="493" type="curve"/>
      <point x="214" y="559"/>
      <point x="190" y="621"/>
      <point x="190" y="676" type="curve" smooth="yes"/>
      <point x="190" y="754"/>
      <point x="237" y="807"/>
      <point x="293" y="807" type="curve" smooth="yes"/>
      <point x="349" y="807"/>
      <point x="373" y="753"/>
    </contour>
  </outline>
</glyph>
<glyph name="quotesingle" format="1">
  <advance width="136"/>
  <unicode hex="0027"/>
  <outline>
    <contour>
      <point x="68" y="850" type="curve" smooth="yes"/>
      <point x="46" y="850"/>
      <point x="46" y="797"/>
      <point x="46" y="783" type="curve" smooth="yes"/>
      <point x="46" y="765"/>
      <point x="48" y="657"/>
      <point x="69" y="657" type="curve" smooth="yes"/>
      <point x="87" y="657"/>
      <point x="91" y="789"/>
      <point x="91" y="798" type="curve" smooth="yes"/>
      <point x="91" y="818"/>
      <point x="91" y="850"/>
    </contour>
  </outline>
</glyph>
<glyph name="parenleft" format="1">
  <advance width="243"/>
  <unicode hex="0028"/>
  <outline>
    <contour>
      <point x="152" y="6" type="curve" smooth="yes"/>
      <point x="157" y="-8"/>
      <point x="171" y="-19"/>
      <point x="181" y="-19" type="curve" smooth="yes"/>
      <point x="188" y="-19"/>
      <point x="195" y="-13"/>
      <point x="195" y="0" type="curve" smooth="yes"/>
      <point x="195" y="50"/>
      <point x="92" y="135"/>
      <point x="92" y="411" type="curve" smooth="yes" name="hr01"/>
      <point x="92" y="673"/>
      <point x="219" y="766"/>
      <point x="219" y="819" type="curve" smooth="yes" name="hr02"/>
      <point x="219" y="831"/>
      <point x="216" y="838"/>
      <point x="204" y="838" type="curve" smooth="yes"/>
      <point x="190" y="838"/>
      <point x="183" y="824"/>
      <point x="183" y="825" type="curve"/>
      <point x="183" y="825"/>
      <point x="47" y="628"/>
      <point x="47" y="409" type="curve" smooth="yes"/>
      <point x="47" y="190"/>
      <point x="141" y="36"/>
    </contour>
  </outline>
</glyph>
<glyph name="asterisk" format="1">
  <advance width="321"/>
  <unicode hex="002A"/>
  <outline>
    <contour>
      <point x="213" y="821" type="curve" smooth="yes"/>
      <point x="195" y="821"/>
      <point x="174" y="766"/>
      <point x="160" y="739" type="curve"/>
      <point x="133" y="777"/>
      <point x="122" y="821"/>
      <point x="103" y="821" type="curve" smooth="yes"/>
      <point x="90" y="821"/>
      <point x="82" y="816"/>
      <point x="82" y="799" type="curve" smooth="yes"/>
      <point x="82" y="785"/>
      <point x="112" y="762"/>
      <point x="139" y="731" type="curve"/>
      <point x="117" y="732"/>
      <point x="91" y="736"/>
      <point x="69" y="736" type="curve" smooth="yes" name="hr01"/>
      <point x="50" y="736"/>
      <point x="41" y="728"/>
      <point x="41" y="715" type="curve" smooth="yes"/>
      <point x="41" y="701"/>
      <point x="58" y="697"/>
      <point x="69" y="697" type="curve" smooth="yes"/>
      <point x="88" y="697"/>
      <point x="120" y="704"/>
      <point x="139" y="706" type="curve"/>
      <point x="125" y="690"/>
      <point x="82" y="656"/>
      <point x="82" y="637" type="curve" smooth="yes" name="hr02"/>
      <point x="82" y="624"/>
      <point x="88" y="617"/>
      <point x="104" y="617" type="curve" smooth="yes"/>
      <point x="124" y="617"/>
      <point x="155" y="688"/>
      <point x="159" y="695" type="curve"/>
      <point x="166" y="689"/>
      <point x="205" y="617"/>
      <point x="222" y="617" type="curve" smooth="yes"/>
      <point x="233" y="617"/>
      <point x="243" y="622"/>
      <point x="243" y="635" type="curve" smooth="yes"/>
      <point x="243" y="662"/>
      <point x="186" y="701"/>
      <point x="182" y="706" type="curve"/>
      <point x="189" y="705"/>
      <point x="237" y="697"/>
      <point x="260" y="697" type="curve" smooth="yes" name="hr03"/>
      <point x="269" y="697"/>
      <point x="279" y="705"/>
      <point x="279" y="715" type="curve" smooth="yes"/>
      <point x="279" y="730"/>
      <point x="270" y="736"/>
      <point x="259" y="736" type="curve" smooth="yes"/>
      <point x="241" y="736"/>
      <point x="189" y="732"/>
      <point x="184" y="731" type="curve"/>
      <point x="185" y="739"/>
      <point x="233" y="781"/>
      <point x="233" y="799" type="curve" smooth="yes"/>
      <point x="233" y="809"/>
      <point x="228" y="821"/>
    </contour>
  </outline>
</glyph>
<glyph name="plus" format="1">
  <advance width="362"/>
  <unicode hex="002B"/>
  <outline>
    <contour>
      <point x="163" y="541" type="curve" smooth="yes"/>
      <point x="163" y="515"/>
      <point x="166" y="475"/>
      <point x="166" y="425" type="curve"/>
      <point x="47" y="425" type="line" smooth="yes"/>
      <point x="36" y="425"/>
      <point x="31" y="415"/>
      <point x="31" y="408" type="curve" smooth="yes"/>
      <point x="31" y="401"/>
      <point x="38" y="391"/>
      <point x="47" y="391" type="curve" smooth="yes"/>
      <point x="69" y="391"/>
      <point x="115" y="393"/>
      <point x="164" y="394" type="curve"/>
      <point x="163" y="355"/>
      <point x="161" y="300"/>
      <point x="161" y="276" type="curve" smooth="yes"/>
      <point x="161" y="265"/>
      <point x="172" y="260"/>
      <point x="179" y="260" type="curve" smooth="yes"/>
      <point x="186" y="260"/>
      <point x="198" y="267"/>
      <point x="199" y="276" type="curve"/>
      <point x="199" y="394" type="line"/>
      <point x="312" y="394" type="line"/>
      <point x="327" y="396"/>
      <point x="331" y="409"/>
      <point x="331" y="415" type="curve" smooth="yes"/>
      <point x="331" y="422"/>
      <point x="325" y="430"/>
      <point x="320" y="430" type="curve"/>
      <point x="290" y="429"/>
      <point x="249" y="425"/>
      <point x="199" y="425" type="curve"/>
      <point x="199" y="471"/>
      <point x="200" y="515"/>
      <point x="200" y="541" type="curve" smooth="yes"/>
      <point x="200" y="555"/>
      <point x="186" y="560"/>
      <point x="180" y="560" type="curve" smooth="yes"/>
      <point x="173" y="560"/>
      <point x="163" y="555"/>
    </contour>
  </outline>
</glyph>
<glyph name="comma" format="1">
  <advance width="187"/>
  <unicode hex="002C"/>
  <outline>
    <contour>
      <point x="52" y="36" type="curve" smooth="yes"/>
      <point x="52" y="5"/>
      <point x="88" y="9"/>
      <point x="88" y="-8" type="curve" smooth="yes" name="hr01"/>
      <point x="88" y="-21"/>
      <point x="77" y="-45"/>
      <point x="77" y="-54" type="curve" smooth="yes"/>
      <point x="77" y="-61"/>
      <point x="85" y="-66"/>
      <point x="91" y="-66" type="curve" smooth="yes"/>
      <point x="119" y="-66"/>
      <point x="134" y="-14"/>
      <point x="134" y="13" type="curve" smooth="yes"/>
      <point x="134" y="58"/>
      <point x="112" y="70"/>
      <point x="92" y="70" type="curve" smooth="yes"/>
      <point x="65" y="70"/>
      <point x="52" y="53"/>
    </contour>
  </outline>
</glyph>
<glyph name="hyphen" format="1">
  <advance width="380"/>
  <unicode hex="002D"/>
  <outline>
    <contour>
      <point x="307" y="285" type="curve" smooth="yes"/>
      <point x="275" y="285"/>
      <point x="234" y="282"/>
      <point x="179" y="282" type="curve" smooth="yes" name="hr01"/>
      <point x="145" y="282"/>
      <point x="97" y="284"/>
      <point x="78" y="284" type="curve" smooth="yes" name="hr02"/>
      <point x="67" y="284"/>
      <point x="62" y="276"/>
      <point x="62" y="269" type="curve" smooth="yes"/>
      <point x="62" y="262"/>
      <point x="69" y="253"/>
      <point x="78" y="253" type="curve" smooth="yes" name="hr03"/>
      <point x="125" y="253"/>
      <point x="246" y="254"/>
      <point x="299" y="254" type="curve" smooth="yes" name="hr04"/>
      <point x="314" y="254"/>
      <point x="318" y="266"/>
      <point x="318" y="272" type="curve" smooth="yes"/>
      <point x="318" y="279"/>
      <point x="312" y="285"/>
    </contour>
  </outline>
</glyph>
<glyph name="period" format="1">
  <advance width="196"/>
  <unicode hex="002E"/>
  <outline>
    <contour>
      <point x="54" y="34" type="curve" smooth="yes"/>
      <point x="54" y="17"/>
      <point x="66" y="-4"/>
      <point x="96" y="-4" type="curve" smooth="yes"/>
      <point x="125" y="-4"/>
      <point x="141" y="16"/>
      <point x="141" y="36" type="curve" smooth="yes"/>
      <point x="141" y="54"/>
      <point x="128" y="74"/>
      <point x="98" y="74" type="curve" smooth="yes"/>
      <point x="66" y="74"/>
      <point x="54" y="51"/>
    </contour>
  </outline>
</glyph>
<glyph name="slash" format="1">
  <advance width="505"/>
  <unicode hex="002F"/>
  <outline>
    <contour>
      <point x="27" y="18" type="curve" smooth="yes"/>
      <point x="24" y="12"/>
      <point x="22" y="1"/>
      <point x="22" y="-7" type="curve" smooth="yes"/>
      <point x="22" y="-14"/>
      <point x="27" y="-19"/>
      <point x="36" y="-19" type="curve" smooth="yes"/>
      <point x="52" y="-19"/>
      <point x="56" y="-13"/>
      <point x="65" y="5" type="curve" smooth="yes"/>
      <point x="470" y="768" type="line" smooth="yes"/>
      <point x="475" y="778"/>
      <point x="484" y="797"/>
      <point x="484" y="807" type="curve" smooth="yes"/>
      <point x="484" y="815"/>
      <point x="481" y="821"/>
      <point x="469" y="821" type="curve" smooth="yes"/>
      <point x="445" y="821"/>
      <point x="428" y="781"/>
      <point x="425" y="774" type="curve" smooth="yes"/>
      <point x="340" y="602"/>
      <point x="370" y="653"/>
      <point x="245" y="423" type="curve" smooth="yes"/>
      <point x="116" y="186"/>
      <point x="217" y="377"/>
    </contour>
  </outline>
</glyph>
<glyph name="zero" format="1">
  <advance width="571"/>
  <unicode hex="0030"/>
  <outline>
    <contour>
      <point x="90" y="384" type="curve" smooth="yes"/>
      <point x="90" y="581"/>
      <point x="152" y="806"/>
      <point x="297" y="806" type="curve" smooth="yes"/>
      <point x="452" y="806"/>
      <point x="482" y="549"/>
      <point x="482" y="402" type="curve" smooth="yes"/>
      <point x="482" y="118"/>
      <point x="370" y="12"/>
      <point x="271" y="12" type="curve" smooth="yes"/>
      <point x="131" y="12"/>
      <point x="90" y="224"/>
    </contour>
    <contour>
      <point x="45" y="365" type="curve" smooth="yes"/>
      <point x="45" y="72"/>
      <point x="177" y="-19"/>
      <point x="273" y="-19" type="curve" smooth="yes"/>
      <point x="376" y="-19"/>
      <point x="527" y="87"/>
      <point x="527" y="399" type="curve" smooth="yes"/>
      <point x="527" y="584"/>
      <point x="474" y="837"/>
      <point x="295" y="837" type="curve" smooth="yes"/>
      <point x="113" y="837"/>
      <point x="45" y="576"/>
    </contour>
  </outline>
</glyph>
<glyph name="one" format="1">
  <advance width="320"/>
  <unicode hex="0031"/>
  <outline>
    <contour>
      <point x="202" y="792" type="line"/>
      <point x="202" y="809"/>
      <point x="201" y="821"/>
      <point x="182" y="821" type="curve" smooth="yes"/>
      <point x="166" y="821"/>
      <point x="63" y="819"/>
      <point x="46" y="818" type="curve" smooth="yes"/>
      <point x="29" y="817"/>
      <point x="19" y="810"/>
      <point x="19" y="801" type="curve" smooth="yes"/>
      <point x="19" y="791"/>
      <point x="29" y="788"/>
      <point x="48" y="788" type="curve" smooth="yes"/>
      <point x="69" y="788"/>
      <point x="124" y="789"/>
      <point x="136" y="789" type="curve" smooth="yes"/>
      <point x="159" y="789"/>
      <point x="159" y="766"/>
      <point x="159" y="755" type="curve"/>
      <point x="157" y="680"/>
      <point x="158" y="630"/>
      <point x="154" y="457" type="curve" smooth="yes" name="hr01"/>
      <point x="150" y="239"/>
      <point x="145" y="182"/>
      <point x="142" y="74" type="curve" smooth="yes" name="hr02"/>
      <point x="141" y="28"/>
      <point x="75" y="28"/>
      <point x="48" y="28" type="curve" smooth="yes"/>
      <point x="36" y="28"/>
      <point x="19" y="25"/>
      <point x="19" y="13" type="curve" smooth="yes" name="hr03"/>
      <point x="19" y="2"/>
      <point x="42" y="0"/>
      <point x="60" y="0" type="curve" smooth="yes"/>
      <point x="272" y="0" type="line" smooth="yes"/>
      <point x="285" y="0"/>
      <point x="292" y="5"/>
      <point x="292" y="13" type="curve" smooth="yes"/>
      <point x="292" y="24"/>
      <point x="278" y="31"/>
      <point x="263" y="31" type="curve" smooth="yes"/>
      <point x="187" y="31" type="line"/>
    </contour>
  </outline>
</glyph>
<glyph name="two" format="1">
  <advance width="530"/>
  <unicode hex="0032"/>
  <outline>
    <contour>
      <point x="426" y="53" type="line" smooth="yes"/>
      <point x="416" y="37"/>
      <point x="409" y="33"/>
      <point x="400" y="33" type="curve" smooth="yes"/>
      <point x="380" y="33"/>
      <point x="180" y="34"/>
      <point x="89" y="38" type="curve"/>
      <point x="206" y="154"/>
      <point x="463" y="414"/>
      <point x="463" y="626" type="curve" smooth="yes"/>
      <point x="463" y="738"/>
      <point x="415" y="831"/>
      <point x="286" y="831" type="curve" smooth="yes"/>
      <point x="123" y="831"/>
      <point x="34" y="679"/>
      <point x="34" y="616" type="curve" smooth="yes"/>
      <point x="34" y="605"/>
      <point x="38" y="565"/>
      <point x="75" y="565" type="curve" smooth="yes"/>
      <point x="82" y="565"/>
      <point x="106" y="569"/>
      <point x="106" y="602" type="curve" smooth="yes"/>
      <point x="106" y="627"/>
      <point x="78" y="628"/>
      <point x="78" y="647" type="curve" smooth="yes" name="hr01"/>
      <point x="78" y="674"/>
      <point x="158" y="800"/>
      <point x="276" y="800" type="curve" smooth="yes"/>
      <point x="381" y="800"/>
      <point x="418" y="703"/>
      <point x="418" y="628" type="curve" smooth="yes"/>
      <point x="418" y="430"/>
      <point x="178" y="146"/>
      <point x="37" y="40" type="curve" smooth="yes"/>
      <point x="26" y="31"/>
      <point x="16" y="25"/>
      <point x="16" y="14" type="curve" smooth="yes"/>
      <point x="16" y="3"/>
      <point x="23" y="-6"/>
      <point x="35" y="-6" type="curve" smooth="yes"/>
      <point x="41" y="-6"/>
      <point x="52" y="-3"/>
      <point x="57" y="3" type="curve" name="hr02"/>
      <point x="196" y="3" type="line" smooth="yes"/>
      <point x="277" y="3"/>
      <point x="338" y="0"/>
      <point x="420" y="0" type="curve" smooth="yes" name="hr03"/>
      <point x="435" y="0"/>
      <point x="445" y="14"/>
      <point x="450" y="22" type="curve" smooth="yes"/>
      <point x="503" y="118"/>
      <point x="506" y="115"/>
      <point x="506" y="126" type="curve" smooth="yes"/>
      <point x="506" y="133"/>
      <point x="501" y="137"/>
      <point x="494" y="137" type="curve" smooth="yes"/>
      <point x="487" y="137"/>
      <point x="479" y="134"/>
      <point x="473" y="124" type="curve" smooth="yes"/>
    </contour>
  </outline>
</glyph>
<glyph name="three" format="1">
  <advance width="509"/>
  <unicode hex="0033"/>
  <outline>
    <contour>
      <point x="111" y="406" type="curve" smooth="yes"/>
      <point x="106" y="402"/>
      <point x="95" y="393"/>
      <point x="95" y="380" type="curve" smooth="yes"/>
      <point x="95" y="368"/>
      <point x="104" y="363"/>
      <point x="111" y="363" type="curve" smooth="yes"/>
      <point x="131" y="363"/>
      <point x="186" y="399"/>
      <point x="257" y="399" type="curve" smooth="yes"/>
      <point x="337" y="399"/>
      <point x="423" y="365"/>
      <point x="423" y="259" type="curve" smooth="yes"/>
      <point x="423" y="121"/>
      <point x="261" y="11"/>
      <point x="156" y="11" type="curve" smooth="yes"/>
      <point x="107" y="11"/>
      <point x="75" y="35"/>
      <point x="56" y="59" type="curve" smooth="yes"/>
      <point x="46" y="72"/>
      <point x="44" y="78"/>
      <point x="35" y="78" type="curve" smooth="yes"/>
      <point x="21" y="78"/>
      <point x="20" y="65"/>
      <point x="20" y="59" type="curve" smooth="yes"/>
      <point x="20" y="5"/>
      <point x="92" y="-18"/>
      <point x="154" y="-18" type="curve" smooth="yes"/>
      <point x="313" y="-18"/>
      <point x="468" y="131"/>
      <point x="468" y="264" type="curve" smooth="yes"/>
      <point x="468" y="375"/>
      <point x="378" y="433"/>
      <point x="267" y="433" type="curve" smooth="yes"/>
      <point x="239" y="433"/>
      <point x="206" y="425"/>
      <point x="203" y="425" type="curve"/>
      <point x="211" y="436"/>
      <point x="456" y="537"/>
      <point x="456" y="711" type="curve" smooth="yes" name="hr01"/>
      <point x="456" y="826"/>
      <point x="343" y="836"/>
      <point x="301" y="836" type="curve" smooth="yes"/>
      <point x="137" y="836"/>
      <point x="51" y="684"/>
      <point x="51" y="620" type="curve" smooth="yes"/>
      <point x="51" y="613"/>
      <point x="51" y="596"/>
      <point x="67" y="596" type="curve" smooth="yes"/>
      <point x="82" y="596"/>
      <point x="91" y="617"/>
      <point x="100" y="642" type="curve" smooth="yes"/>
      <point x="138" y="744"/>
      <point x="209" y="804"/>
      <point x="293" y="804" type="curve" smooth="yes" name="hr02"/>
      <point x="350" y="804"/>
      <point x="411" y="777"/>
      <point x="411" y="705" type="curve" smooth="yes"/>
      <point x="411" y="543"/>
      <point x="175" y="458"/>
    </contour>
  </outline>
</glyph>
<glyph name="four" format="1">
  <advance width="554"/>
  <unicode hex="0034"/>
  <outline>
    <contour>
      <point x="515" y="244" type="line" smooth="yes"/>
      <point x="526" y="244"/>
      <point x="534" y="252"/>
      <point x="534" y="259" type="curve" smooth="yes"/>
      <point x="534" y="270"/>
      <point x="529" y="275"/>
      <point x="508" y="276" type="curve" smooth="yes"/>
      <point x="414" y="280" type="line"/>
      <point x="420" y="437"/>
      <point x="443" y="794"/>
      <point x="443" y="804" type="curve" smooth="yes"/>
      <point x="443" y="819"/>
      <point x="431" y="821"/>
      <point x="421" y="821" type="curve" smooth="yes"/>
      <point x="399" y="821"/>
      <point x="387" y="804"/>
      <point x="383" y="798" type="curve" smooth="yes"/>
      <point x="239" y="618"/>
      <point x="193" y="547"/>
      <point x="2" y="291" type="curve" smooth="yes"/>
      <point x="-6" y="280"/>
      <point x="-8" y="272"/>
      <point x="-8" y="264" type="curve" smooth="yes"/>
      <point x="-8" y="246"/>
      <point x="11" y="234"/>
      <point x="34" y="234" type="curve" smooth="yes"/>
      <point x="64" y="234"/>
      <point x="168" y="240"/>
      <point x="372" y="244" type="curve"/>
      <point x="363" y="69" type="line" smooth="yes"/>
      <point x="362" y="43"/>
      <point x="343" y="34"/>
      <point x="314" y="31" type="curve" smooth="yes"/>
      <point x="304" y="30"/>
      <point x="252" y="26"/>
      <point x="224" y="25" type="curve"/>
      <point x="211" y="25"/>
      <point x="204" y="20"/>
      <point x="204" y="14" type="curve" smooth="yes"/>
      <point x="204" y="4"/>
      <point x="215" y="0"/>
      <point x="227" y="0" type="curve" smooth="yes"/>
      <point x="472" y="0" type="line" smooth="yes"/>
      <point x="498" y="0"/>
      <point x="506" y="8"/>
      <point x="506" y="15" type="curve" smooth="yes"/>
      <point x="506" y="29"/>
      <point x="485" y="29"/>
      <point x="472" y="29" type="curve"/>
      <point x="442" y="30"/>
      <point x="401" y="27"/>
      <point x="401" y="45" type="curve" smooth="yes" name="hr01"/>
      <point x="401" y="63"/>
      <point x="406" y="182"/>
      <point x="411" y="244" type="curve"/>
    </contour>
    <contour>
      <point x="55" y="268" type="curve" smooth="yes"/>
      <point x="44" y="268"/>
      <point x="40" y="272"/>
      <point x="40" y="276" type="curve" smooth="yes"/>
      <point x="40" y="283"/>
      <point x="50" y="292"/>
      <point x="53" y="296" type="curve" smooth="yes"/>
      <point x="404" y="763" type="line"/>
      <point x="374" y="280" type="line"/>
      <point x="259" y="274"/>
      <point x="67" y="268"/>
    </contour>
  </outline>
</glyph>
<glyph name="five" format="1">
  <advance width="522"/>
  <unicode hex="0035"/>
  <outline>
    <contour>
      <point x="420" y="812" type="curve" smooth="yes"/>
      <point x="364" y="812"/>
      <point x="177" y="806"/>
      <point x="108" y="794" type="curve" smooth="yes"/>
      <point x="96" y="792"/>
      <point x="90" y="784"/>
      <point x="89" y="775" type="curve" smooth="yes"/>
      <point x="80" y="647"/>
      <point x="77" y="616"/>
      <point x="62" y="505" type="curve" smooth="yes"/>
      <point x="60" y="488"/>
      <point x="58" y="468"/>
      <point x="58" y="460" type="curve" smooth="yes"/>
      <point x="58" y="439"/>
      <point x="72" y="423"/>
      <point x="90" y="423" type="curve" smooth="yes"/>
      <point x="116" y="423"/>
      <point x="203" y="454"/>
      <point x="279" y="454" type="curve" smooth="yes" name="hr01"/>
      <point x="414" y="454"/>
      <point x="449" y="358"/>
      <point x="449" y="274" type="curve" smooth="yes"/>
      <point x="449" y="151"/>
      <point x="373" y="21"/>
      <point x="196" y="21" type="curve" smooth="yes"/>
      <point x="133" y="21"/>
      <point x="65" y="41"/>
      <point x="65" y="93" type="curve" smooth="yes"/>
      <point x="65" y="130"/>
      <point x="123" y="96"/>
      <point x="123" y="141" type="curve" smooth="yes" name="hr02"/>
      <point x="123" y="166"/>
      <point x="106" y="175"/>
      <point x="90" y="175" type="curve" smooth="yes"/>
      <point x="67" y="175"/>
      <point x="32" y="156"/>
      <point x="32" y="104" type="curve" smooth="yes"/>
      <point x="32" y="-11"/>
      <point x="161" y="-12"/>
      <point x="180" y="-12" type="curve" smooth="yes"/>
      <point x="401" y="-12"/>
      <point x="494" y="138"/>
      <point x="494" y="269" type="curve" smooth="yes"/>
      <point x="494" y="369"/>
      <point x="440" y="492"/>
      <point x="289" y="492" type="curve" smooth="yes"/>
      <point x="216" y="492"/>
      <point x="117" y="468"/>
      <point x="98" y="463" type="curve"/>
      <point x="131" y="754" type="line"/>
      <point x="175" y="771"/>
      <point x="371" y="773"/>
      <point x="425" y="773" type="curve" smooth="yes"/>
      <point x="446" y="773"/>
      <point x="463" y="780"/>
      <point x="463" y="792" type="curve" smooth="yes"/>
      <point x="463" y="809"/>
      <point x="439" y="812"/>
    </contour>
  </outline>
</glyph>
<glyph name="six" format="1">
  <advance width="508"/>
  <unicode hex="0036"/>
  <outline>
    <contour>
      <point x="354" y="794" type="curve" smooth="yes"/>
      <point x="359" y="797"/>
      <point x="369" y="804"/>
      <point x="369" y="815" type="curve" smooth="yes"/>
      <point x="369" y="825"/>
      <point x="361" y="831"/>
      <point x="349" y="831" type="curve" smooth="yes"/>
      <point x="339" y="831"/>
      <point x="331" y="827"/>
      <point x="324" y="822" type="curve" smooth="yes"/>
      <point x="206" y="740"/>
      <point x="38" y="489"/>
      <point x="38" y="254" type="curve" smooth="yes"/>
      <point x="38" y="52"/>
      <point x="162" y="-18"/>
      <point x="276" y="-18" type="curve" smooth="yes"/>
      <point x="445" y="-18"/>
      <point x="494" y="135"/>
      <point x="494" y="214" type="curve" smooth="yes"/>
      <point x="494" y="279"/>
      <point x="469" y="420"/>
      <point x="305" y="420" type="curve" smooth="yes"/>
      <point x="185" y="420"/>
      <point x="99" y="343"/>
      <point x="78" y="231" type="curve"/>
      <point x="76" y="236"/>
      <point x="75" y="241"/>
      <point x="75" y="260" type="curve" smooth="yes"/>
      <point x="75" y="323"/>
      <point x="86" y="392"/>
      <point x="123" y="480" type="curve" smooth="yes"/>
      <point x="182" y="620"/>
      <point x="282" y="750"/>
    </contour>
    <contour>
      <point x="270" y="13" type="curve" smooth="yes"/>
      <point x="193" y="13"/>
      <point x="101" y="62"/>
      <point x="101" y="180" type="curve" smooth="yes" name="hr01"/>
      <point x="101" y="303"/>
      <point x="202" y="386"/>
      <point x="302" y="386" type="curve" smooth="yes"/>
      <point x="417" y="386"/>
      <point x="449" y="278"/>
      <point x="449" y="205" type="curve" smooth="yes"/>
      <point x="449" y="89"/>
      <point x="367" y="13"/>
    </contour>
  </outline>
</glyph>
<glyph name="seven" format="1">
  <advance width="448"/>
  <unicode hex="0037"/>
  <outline>
    <contour>
      <point x="14" y="18" type="curve" smooth="yes"/>
      <point x="11" y="12"/>
      <point x="9" y="1"/>
      <point x="9" y="-7" type="curve" smooth="yes"/>
      <point x="9" y="-14"/>
      <point x="14" y="-19"/>
      <point x="23" y="-19" type="curve" smooth="yes"/>
      <point x="39" y="-19"/>
      <point x="43" y="-13"/>
      <point x="52" y="5" type="curve" smooth="yes"/>
      <point x="457" y="768" type="line" smooth="yes"/>
      <point x="461" y="775"/>
      <point x="465" y="783"/>
      <point x="465" y="789" type="curve" smooth="yes"/>
      <point x="465" y="805"/>
      <point x="455" y="821"/>
      <point x="421" y="821" type="curve" smooth="yes"/>
      <point x="374" y="821"/>
      <point x="112" y="810"/>
      <point x="67" y="810" type="curve" smooth="yes"/>
      <point x="39" y="810"/>
      <point x="28" y="809"/>
      <point x="28" y="794" type="curve" smooth="yes"/>
      <point x="28" y="788"/>
      <point x="34" y="780"/>
      <point x="43" y="780" type="curve" smooth="yes"/>
      <point x="168" y="780"/>
      <point x="282" y="787"/>
      <point x="398" y="787" type="curve" smooth="yes"/>
      <point x="408" y="787"/>
      <point x="412" y="781"/>
      <point x="412" y="774" type="curve" smooth="yes"/>
      <point x="412" y="765"/>
      <point x="411" y="769"/>
    </contour>
  </outline>
</glyph>
<glyph name="eight" format="1">
  <advance width="537"/>
  <unicode hex="0038"/>
  <outline>
    <contour>
      <point x="40" y="191" type="curve" smooth="yes"/>
      <point x="40" y="49"/>
      <point x="159" y="-20"/>
      <point x="266" y="-20" type="curve" smooth="yes"/>
      <point x="391" y="-20"/>
      <point x="495" y="87"/>
      <point x="495" y="199" type="curve" smooth="yes"/>
      <point x="495" y="304"/>
      <point x="405" y="394"/>
      <point x="329" y="416" type="curve"/>
      <point x="385" y="433"/>
      <point x="482" y="508"/>
      <point x="482" y="625" type="curve" smooth="yes" name="hr01"/>
      <point x="482" y="720"/>
      <point x="418" y="832"/>
      <point x="282" y="832" type="curve" smooth="yes"/>
      <point x="151" y="832"/>
      <point x="62" y="728"/>
      <point x="62" y="617" type="curve" smooth="yes"/>
      <point x="62" y="518"/>
      <point x="132" y="442"/>
      <point x="194" y="416" type="curve"/>
      <point x="137" y="388"/>
      <point x="40" y="316"/>
    </contour>
    <contour>
      <point x="85" y="198" type="curve" smooth="yes"/>
      <point x="85" y="325"/>
      <point x="182" y="392"/>
      <point x="268" y="392" type="curve" smooth="yes"/>
      <point x="354" y="392"/>
      <point x="448" y="325"/>
      <point x="448" y="204" type="curve" smooth="yes"/>
      <point x="448" y="83"/>
      <point x="359" y="11"/>
      <point x="259" y="11" type="curve" smooth="yes"/>
      <point x="148" y="11"/>
      <point x="85" y="100"/>
    </contour>
    <contour>
      <point x="107" y="612" type="curve" smooth="yes" name="hr03"/>
      <point x="107" y="696"/>
      <point x="153" y="801"/>
      <point x="281" y="801" type="curve" smooth="yes"/>
      <point x="410" y="801"/>
      <point x="437" y="693"/>
      <point x="437" y="628" type="curve" smooth="yes"/>
      <point x="437" y="511"/>
      <point x="351" y="439"/>
      <point x="268" y="439" type="curve" smooth="yes"/>
      <point x="195" y="439"/>
      <point x="107" y="495"/>
    </contour>
  </outline>
</glyph>
<glyph name="nine" format="1">
  <advance width="519"/>
  <unicode hex="0039"/>
  <outline>
    <contour>
      <point x="197" y="-8" type="curve" smooth="yes"/>
      <point x="248" y="33"/>
      <point x="318" y="100"/>
      <point x="382" y="217" type="curve" smooth="yes"/>
      <point x="434" y="312"/>
      <point x="482" y="459"/>
      <point x="482" y="591" type="curve" smooth="yes"/>
      <point x="482" y="683"/>
      <point x="431" y="830"/>
      <point x="256" y="830" type="curve" smooth="yes"/>
      <point x="89" y="830"/>
      <point x="15" y="694"/>
      <point x="15" y="581" type="curve" smooth="yes"/>
      <point x="15" y="436"/>
      <point x="114" y="339"/>
      <point x="230" y="339" type="curve" smooth="yes"/>
      <point x="298" y="339"/>
      <point x="380" y="381"/>
      <point x="436" y="467" type="curve"/>
      <point x="406" y="302"/>
      <point x="297" y="110"/>
      <point x="172" y="28" type="curve" smooth="yes"/>
      <point x="157" y="18"/>
      <point x="149" y="12"/>
      <point x="149" y="-3" type="curve" smooth="yes"/>
      <point x="149" y="-17"/>
      <point x="164" y="-19"/>
      <point x="169" y="-19" type="curve" smooth="yes"/>
      <point x="178" y="-19"/>
      <point x="187" y="-16"/>
    </contour>
    <contour>
      <point x="250" y="799" type="curve" smooth="yes"/>
      <point x="391" y="799"/>
      <point x="438" y="682"/>
      <point x="438" y="615" type="curve" smooth="yes"/>
      <point x="438" y="526"/>
      <point x="381" y="376"/>
      <point x="228" y="376" type="curve" smooth="yes"/>
      <point x="113" y="376"/>
      <point x="60" y="464"/>
      <point x="60" y="576" type="curve" smooth="yes"/>
      <point x="60" y="733"/>
      <point x="165" y="799"/>
    </contour>
  </outline>
</glyph>
<glyph name="colon" format="1">
  <advance width="211"/>
  <unicode hex="003A"/>
  <outline>
    <contour>
      <point x="62" y="35" type="curve" smooth="yes"/>
      <point x="62" y="18"/>
      <point x="74" y="-3"/>
      <point x="104" y="-3" type="curve" smooth="yes"/>
      <point x="133" y="-3"/>
      <point x="149" y="17"/>
      <point x="149" y="37" type="curve" smooth="yes"/>
      <point x="149" y="55"/>
      <point x="136" y="75"/>
      <point x="106" y="75" type="curve" smooth="yes"/>
      <point x="74" y="75"/>
      <point x="62" y="52"/>
    </contour>
    <contour>
      <point x="62" y="337" type="curve" smooth="yes"/>
      <point x="62" y="320"/>
      <point x="74" y="299"/>
      <point x="104" y="299" type="curve" smooth="yes"/>
      <point x="133" y="299"/>
      <point x="149" y="319"/>
      <point x="149" y="339" type="curve" smooth="yes"/>
      <point x="149" y="357"/>
      <point x="136" y="377"/>
      <point x="106" y="377" type="curve" smooth="yes"/>
      <point x="74" y="377"/>
      <point x="62" y="354"/>
    </contour>
  </outline>
</glyph>
<glyph name="semicolon" format="1">
  <advance width="203"/>
  <unicode hex="003B"/>
  <outline>
    <contour>
      <point x="57" y="337" type="curve" smooth="yes"/>
      <point x="57" y="320"/>
      <point x="69" y="299"/>
      <point x="99" y="299" type="curve" smooth="yes"/>
      <point x="128" y="299"/>
      <point x="144" y="319"/>
      <point x="144" y="339" type="curve" smooth="yes"/>
      <point x="144" y="357"/>
      <point x="131" y="377"/>
      <point x="101" y="377" type="curve" smooth="yes"/>
      <point x="69" y="377"/>
      <point x="57" y="354"/>
    </contour>
    <contour>
      <point x="62" y="36" type="curve" smooth="yes"/>
      <point x="62" y="5"/>
      <point x="98" y="5"/>
      <point x="98" y="-12" type="curve" smooth="yes" name="hr01"/>
      <point x="98" y="-25"/>
      <point x="87" y="-45"/>
      <point x="87" y="-54" type="curve" smooth="yes"/>
      <point x="87" y="-61"/>
      <point x="95" y="-66"/>
      <point x="101" y="-66" type="curve" smooth="yes"/>
      <point x="129" y="-66"/>
      <point x="144" y="-14"/>
      <point x="144" y="13" type="curve" smooth="yes"/>
      <point x="144" y="58"/>
      <point x="122" y="70"/>
      <point x="102" y="70" type="curve" smooth="yes"/>
      <point x="75" y="70"/>
      <point x="62" y="53"/>
    </contour>
  </outline>
</glyph>
<glyph name="less" format="1">
  <advance width="265"/>
  <unicode hex="003C"/>
  <outline>
    <contour>
      <point x="211" y="496" type="curve" smooth="yes"/>
      <point x="211" y="502"/>
      <point x="209" y="505"/>
      <point x="200" y="505" type="curve" smooth="yes"/>
      <point x="176" y="505"/>
      <point x="43" y="407"/>
      <point x="43" y="378" type="curve" smooth="yes"/>
      <point x="43" y="352"/>
      <point x="176" y="252"/>
      <point x="200" y="252" type="curve" smooth="yes"/>
      <point x="209" y="252"/>
      <point x="211" y="255"/>
      <point x="211" y="261" type="curve" smooth="yes"/>
      <point x="211" y="277"/>
      <point x="139" y="325"/>
      <point x="106" y="378" type="curve"/>
      <point x="139" y="431"/>
      <point x="211" y="480"/>
    </contour>
  </outline>
</glyph>
<glyph name="equal" format="1">
  <advance width="372"/>
  <unicode hex="003D"/>
  <outline>
    <contour>
      <point x="303" y="301" type="curve" smooth="yes"/>
      <point x="271" y="301"/>
      <point x="230" y="298"/>
      <point x="175" y="298" type="curve" smooth="yes"/>
      <point x="141" y="298"/>
      <point x="93" y="300"/>
      <point x="74" y="300" type="curve" smooth="yes"/>
      <point x="63" y="300"/>
      <point x="58" y="292"/>
      <point x="58" y="285" type="curve" smooth="yes"/>
      <point x="58" y="278"/>
      <point x="65" y="269"/>
      <point x="74" y="269" type="curve" smooth="yes"/>
      <point x="121" y="269"/>
      <point x="242" y="270"/>
      <point x="295" y="270" type="curve" smooth="yes" name="hr01"/>
      <point x="310" y="270"/>
      <point x="314" y="282"/>
      <point x="314" y="288" type="curve" smooth="yes"/>
      <point x="314" y="295"/>
      <point x="308" y="301"/>
    </contour>
    <contour>
      <point x="303" y="469" type="curve" smooth="yes"/>
      <point x="271" y="469"/>
      <point x="230" y="466"/>
      <point x="175" y="466" type="curve" smooth="yes" name="hr02"/>
      <point x="141" y="466"/>
      <point x="93" y="468"/>
      <point x="74" y="468" type="curve" smooth="yes" name="hr03"/>
      <point x="63" y="468"/>
      <point x="58" y="460"/>
      <point x="58" y="453" type="curve" smooth="yes"/>
      <point x="58" y="446"/>
      <point x="65" y="437"/>
      <point x="74" y="437" type="curve" smooth="yes" name="hr04"/>
      <point x="121" y="437"/>
      <point x="242" y="438"/>
      <point x="295" y="438" type="curve" smooth="yes"/>
      <point x="310" y="438"/>
      <point x="314" y="450"/>
      <point x="314" y="456" type="curve" smooth="yes"/>
      <point x="314" y="463"/>
      <point x="308" y="469"/>
    </contour>
  </outline>
</glyph>
<glyph name="greater" format="1">
  <advance width="265"/>
  <unicode hex="003E"/>
  <outline>
    <contour>
      <point x="54" y="496" type="curve" smooth="yes"/>
      <point x="54" y="480"/>
      <point x="126" y="431"/>
      <point x="159" y="378" type="curve"/>
      <point x="126" y="325"/>
      <point x="54" y="277"/>
      <point x="54" y="261" type="curve" smooth="yes"/>
      <point x="54" y="255"/>
      <point x="56" y="252"/>
      <point x="65" y="252" type="curve" smooth="yes"/>
      <point x="89" y="252"/>
      <point x="222" y="352"/>
      <point x="222" y="378" type="curve" smooth="yes"/>
      <point x="222" y="407"/>
      <point x="89" y="505"/>
      <point x="65" y="505" type="curve" smooth="yes"/>
      <point x="56" y="505"/>
      <point x="54" y="502"/>
    </contour>
  </outline>
</glyph>
<glyph name="question" format="1">
  <advance width="548"/>
  <unicode hex="003F"/>
  <outline>
    <contour>
      <point x="160" y="-29" type="curve" smooth="yes"/>
      <point x="160" y="-51"/>
      <point x="178" y="-62"/>
      <point x="194" y="-62" type="curve" smooth="yes"/>
      <point x="213" y="-62"/>
      <point x="229" y="-48"/>
      <point x="229" y="-28" type="curve" smooth="yes"/>
      <point x="229" y="-8"/>
      <point x="213" y="4"/>
      <point x="195" y="4" type="curve" smooth="yes"/>
      <point x="176" y="4"/>
      <point x="160" y="-8"/>
    </contour>
    <contour>
      <point x="158" y="503" type="curve" smooth="yes"/>
      <point x="158" y="512"/>
      <point x="154" y="536"/>
      <point x="133" y="536" type="curve" smooth="yes"/>
      <point x="113" y="536"/>
      <point x="116" y="513"/>
      <point x="100" y="513" type="curve" smooth="yes" name="hr01"/>
      <point x="82" y="513"/>
      <point x="65" y="540"/>
      <point x="65" y="593" type="curve" smooth="yes"/>
      <point x="65" y="703"/>
      <point x="137" y="800"/>
      <point x="261" y="800" type="curve" smooth="yes"/>
      <point x="359" y="800"/>
      <point x="475" y="739"/>
      <point x="475" y="594" type="curve" smooth="yes"/>
      <point x="475" y="489"/>
      <point x="415" y="418"/>
      <point x="367" y="380" type="curve" smooth="yes"/>
      <point x="282" y="313"/>
      <point x="159" y="283"/>
      <point x="159" y="152" type="curve" smooth="yes"/>
      <point x="159" y="135"/>
      <point x="161" y="110"/>
      <point x="163" y="96" type="curve" smooth="yes"/>
      <point x="165" y="82"/>
      <point x="171" y="74"/>
      <point x="185" y="74" type="curve" smooth="yes"/>
      <point x="193" y="74"/>
      <point x="202" y="77"/>
      <point x="202" y="97" type="curve" smooth="yes"/>
      <point x="202" y="119"/>
      <point x="191" y="149"/>
      <point x="191" y="174" type="curve" smooth="yes"/>
      <point x="191" y="247"/>
      <point x="290" y="288"/>
      <point x="364" y="335" type="curve" smooth="yes"/>
      <point x="432" y="378"/>
      <point x="520" y="453"/>
      <point x="520" y="592" type="curve" smooth="yes"/>
      <point x="520" y="779"/>
      <point x="361" y="831"/>
      <point x="266" y="831" type="curve" smooth="yes"/>
      <point x="150" y="831"/>
      <point x="31" y="754"/>
      <point x="31" y="603" type="curve" smooth="yes"/>
      <point x="31" y="528"/>
      <point x="60" y="466"/>
      <point x="112" y="466" type="curve" smooth="yes"/>
      <point x="139" y="466"/>
      <point x="158" y="482"/>
    </contour>
  </outline>
</glyph>
<glyph name="at" format="1">
  <advance width="665"/>
  <unicode hex="0040"/>
  <outline>
    <contour>
      <point x="588" y="236" type="curve"/>
      <point x="588" y="125"/>
      <point x="552" y="85"/>
      <point x="506" y="85" type="curve" smooth="yes"/>
      <point x="460" y="85"/>
      <point x="460" y="126"/>
      <point x="460" y="126" type="curve"/>
      <point x="459" y="163"/>
      <point x="458" y="200"/>
      <point x="458" y="237" type="curve" smooth="yes"/>
      <point x="458" y="288"/>
      <point x="459" y="340"/>
      <point x="461" y="392" type="curve"/>
      <point x="461" y="402"/>
      <point x="452" y="411"/>
      <point x="444" y="411" type="curve" smooth="yes"/>
      <point x="436" y="411"/>
      <point x="426" y="402"/>
      <point x="426" y="391" type="curve" smooth="yes"/>
      <point x="426" y="383"/>
      <point x="427" y="371"/>
      <point x="428" y="360" type="curve"/>
      <point x="407" y="392"/>
      <point x="370" y="399"/>
      <point x="342" y="399" type="curve" smooth="yes"/>
      <point x="246" y="399"/>
      <point x="175" y="318"/>
      <point x="175" y="215" type="curve" smooth="yes"/>
      <point x="175" y="123"/>
      <point x="237" y="49"/>
      <point x="328" y="49" type="curve" smooth="yes"/>
      <point x="377" y="49"/>
      <point x="411" y="71"/>
      <point x="432" y="97" type="curve"/>
      <point x="440" y="77"/>
      <point x="458" y="54"/>
      <point x="503" y="54" type="curve" smooth="yes"/>
      <point x="565" y="54"/>
      <point x="621" y="103"/>
      <point x="621" y="237" type="curve"/>
      <point x="620" y="401"/>
      <point x="525" y="541"/>
      <point x="351" y="541" type="curve" smooth="yes"/>
      <point x="175" y="541"/>
      <point x="47" y="409"/>
      <point x="47" y="227" type="curve" smooth="yes"/>
      <point x="47" y="43"/>
      <point x="178" y="-84"/>
      <point x="328" y="-84" type="curve" smooth="yes"/>
      <point x="352" y="-84"/>
      <point x="358" y="-75"/>
      <point x="358" y="-67" type="curve" smooth="yes"/>
      <point x="358" y="-59"/>
      <point x="354" y="-52"/>
      <point x="329" y="-52" type="curve" smooth="yes"/>
      <point x="191" y="-52"/>
      <point x="83" y="61"/>
      <point x="83" y="227" type="curve" smooth="yes"/>
      <point x="83" y="392"/>
      <point x="190" y="507"/>
      <point x="348" y="507" type="curve" smooth="yes"/>
      <point x="509" y="507"/>
      <point x="587" y="385"/>
    </contour>
    <contour>
      <point x="426" y="175" type="line" smooth="yes"/>
      <point x="426" y="144"/>
      <point x="406" y="79"/>
      <point x="333" y="79" type="curve" smooth="yes"/>
      <point x="262" y="79"/>
      <point x="217" y="128"/>
      <point x="217" y="216" type="curve" smooth="yes"/>
      <point x="217" y="310"/>
      <point x="272" y="369"/>
      <point x="340" y="369" type="curve" smooth="yes"/>
      <point x="398" y="369"/>
      <point x="426" y="331"/>
      <point x="426" y="273" type="curve" smooth="yes"/>
    </contour>
  </outline>
</glyph>
<glyph name="B" format="1">
  <advance width="666"/>
  <unicode hex="0042"/>
  <outline>
    <contour>
      <point x="50" y="28" type="curve" smooth="yes"/>
      <point x="33" y="28"/>
      <point x="21" y="22"/>
      <point x="21" y="12" type="curve" smooth="yes"/>
      <point x="21" y="0"/>
      <point x="41" y="0"/>
      <point x="72" y="0" type="curve" smooth="yes"/>
      <point x="262" y="0" type="line" smooth="yes"/>
      <point x="455" y="0"/>
      <point x="630" y="58"/>
      <point x="630" y="220" type="curve" smooth="yes"/>
      <point x="630" y="325"/>
      <point x="556" y="400"/>
      <point x="442" y="421" type="curve"/>
      <point x="532" y="445"/>
      <point x="588" y="519"/>
      <point x="588" y="612" type="curve" smooth="yes" name="hr01"/>
      <point x="588" y="750"/>
      <point x="463" y="821"/>
      <point x="321" y="821" type="curve" smooth="yes"/>
      <point x="297" y="821"/>
      <point x="146" y="819"/>
      <point x="50" y="818" type="curve"/>
      <point x="35" y="818"/>
      <point x="24" y="814"/>
      <point x="24" y="804" type="curve" smooth="yes"/>
      <point x="24" y="796"/>
      <point x="32" y="789"/>
      <point x="50" y="789" type="curve" smooth="yes"/>
      <point x="107" y="789"/>
      <point x="134" y="788"/>
      <point x="135" y="753" type="curve" smooth="yes"/>
      <point x="137" y="681"/>
      <point x="143" y="456"/>
      <point x="143" y="313" type="curve" smooth="yes"/>
      <point x="143" y="254"/>
      <point x="142" y="150"/>
      <point x="142" y="52" type="curve" smooth="yes"/>
      <point x="142" y="29"/>
      <point x="90" y="28"/>
    </contour>
    <contour>
      <point x="262" y="395" type="curve" smooth="yes"/>
      <point x="420" y="395"/>
      <point x="586" y="376"/>
      <point x="586" y="222" type="curve" smooth="yes" name="hr02"/>
      <point x="586" y="42"/>
      <point x="360" y="32"/>
      <point x="183" y="32" type="curve"/>
      <point x="183" y="392" type="line"/>
      <point x="210" y="393"/>
      <point x="211" y="395"/>
    </contour>
    <contour>
      <point x="264" y="787" type="curve" smooth="yes"/>
      <point x="399" y="787"/>
      <point x="546" y="753"/>
      <point x="546" y="605" type="curve" smooth="yes" name="hr03"/>
      <point x="546" y="434"/>
      <point x="349" y="430"/>
      <point x="253" y="429" type="curve"/>
      <point x="209" y="429"/>
      <point x="183" y="430"/>
      <point x="183" y="432" type="curve"/>
      <point x="183" y="783" type="line"/>
      <point x="183" y="783"/>
      <point x="218" y="787"/>
    </contour>
  </outline>
</glyph>
<glyph name="D" format="1">
  <advance width="674"/>
  <unicode hex="0044"/>
  <outline>
    <contour>
      <point x="45" y="818" type="curve" smooth="yes"/>
      <point x="30" y="817"/>
      <point x="24" y="812"/>
      <point x="24" y="805" type="curve" smooth="yes"/>
      <point x="24" y="798"/>
      <point x="30" y="789"/>
      <point x="47" y="789" type="curve" smooth="yes"/>
      <point x="102" y="789"/>
      <point x="135" y="788"/>
      <point x="135" y="747" type="curve" smooth="yes"/>
      <point x="135" y="681"/>
      <point x="142" y="489"/>
      <point x="142" y="437" type="curve" smooth="yes"/>
      <point x="142" y="245"/>
      <point x="141" y="206"/>
      <point x="141" y="52" type="curve" smooth="yes"/>
      <point x="141" y="28"/>
      <point x="86" y="28"/>
      <point x="52" y="28" type="curve" smooth="yes"/>
      <point x="29" y="28"/>
      <point x="21" y="21"/>
      <point x="21" y="12" type="curve" smooth="yes"/>
      <point x="21" y="2"/>
      <point x="35" y="0"/>
      <point x="57" y="0" type="curve" smooth="yes"/>
      <point x="241" y="0" type="line" smooth="yes"/>
      <point x="503" y="0"/>
      <point x="634" y="199"/>
      <point x="634" y="439" type="curve" smooth="yes"/>
      <point x="634" y="723"/>
      <point x="420" y="821"/>
      <point x="251" y="821" type="curve" smooth="yes"/>
      <point x="170" y="821"/>
      <point x="111" y="820"/>
    </contour>
    <contour>
      <point x="245" y="786" type="curve" smooth="yes"/>
      <point x="484" y="786"/>
      <point x="589" y="630"/>
      <point x="589" y="439" type="curve" smooth="yes"/>
      <point x="589" y="209"/>
      <point x="486" y="34"/>
      <point x="245" y="34" type="curve" smooth="yes"/>
      <point x="221" y="34"/>
      <point x="183" y="34"/>
      <point x="183" y="44" type="curve" smooth="yes"/>
      <point x="183" y="782" type="line"/>
      <point x="203" y="783"/>
      <point x="225" y="786"/>
    </contour>
  </outline>
</glyph>
<glyph name="F" format="1">
  <advance width="572"/>
  <unicode hex="0046"/>
  <outline>
    <contour>
      <point x="140" y="72" type="curve" smooth="yes"/>
      <point x="139" y="31"/>
      <point x="106" y="28"/>
      <point x="49" y="28" type="curve" smooth="yes"/>
      <point x="32" y="28"/>
      <point x="21" y="22"/>
      <point x="21" y="13" type="curve" smooth="yes"/>
      <point x="21" y="0"/>
      <point x="47" y="0"/>
      <point x="64" y="0" type="curve" smooth="yes"/>
      <point x="309" y="0" type="line" smooth="yes"/>
      <point x="324" y="0"/>
      <point x="329" y="5"/>
      <point x="329" y="11" type="curve" smooth="yes"/>
      <point x="329" y="24"/>
      <point x="318" y="30"/>
      <point x="303" y="30" type="curve" smooth="yes"/>
      <point x="186" y="30" type="line"/>
      <point x="186" y="44"/>
      <point x="183" y="151"/>
      <point x="183" y="205" type="curve" smooth="yes"/>
      <point x="183" y="259"/>
      <point x="184" y="347"/>
      <point x="184" y="401" type="curve"/>
      <point x="222" y="403"/>
      <point x="261" y="404"/>
      <point x="299" y="404" type="curve" smooth="yes"/>
      <point x="326" y="404"/>
      <point x="354" y="403"/>
      <point x="381" y="402" type="curve" smooth="yes"/>
      <point x="397" y="401"/>
      <point x="425" y="385"/>
      <point x="425" y="307" type="curve"/>
      <point x="426" y="289"/>
      <point x="432" y="279"/>
      <point x="442" y="279" type="curve" smooth="yes"/>
      <point x="454" y="279"/>
      <point x="457" y="289"/>
      <point x="457" y="317" type="curve" smooth="yes"/>
      <point x="457" y="349"/>
      <point x="455" y="382"/>
      <point x="455" y="415" type="curve" smooth="yes"/>
      <point x="455" y="448"/>
      <point x="457" y="480"/>
      <point x="457" y="513" type="curve" smooth="yes"/>
      <point x="457" y="534"/>
      <point x="457" y="560"/>
      <point x="442" y="560" type="curve" smooth="yes"/>
      <point x="423" y="560"/>
      <point x="423" y="539"/>
      <point x="423" y="513" type="curve" smooth="yes"/>
      <point x="423" y="500"/>
      <point x="423" y="440"/>
      <point x="409" y="440" type="curve" smooth="yes"/>
      <point x="399" y="440"/>
      <point x="333" y="438"/>
      <point x="296" y="438" type="curve" smooth="yes" name="hr01"/>
      <point x="259" y="438"/>
      <point x="223" y="438"/>
      <point x="184" y="440" type="curve"/>
      <point x="184" y="785" type="line"/>
      <point x="485" y="785" type="line" smooth="yes"/>
      <point x="512" y="785"/>
      <point x="524" y="782"/>
      <point x="524" y="744" type="curve" smooth="yes"/>
      <point x="524" y="651" type="line" smooth="yes"/>
      <point x="524" y="627"/>
      <point x="525" y="605"/>
      <point x="544" y="605" type="curve" smooth="yes" name="hr02"/>
      <point x="561" y="605"/>
      <point x="561" y="635"/>
      <point x="561" y="651" type="curve" smooth="yes"/>
      <point x="561" y="773" type="line" smooth="yes"/>
      <point x="561" y="808"/>
      <point x="555" y="821"/>
      <point x="527" y="821" type="curve" smooth="yes"/>
      <point x="457" y="821"/>
      <point x="387" y="819"/>
      <point x="317" y="819" type="curve" smooth="yes"/>
      <point x="232" y="819"/>
      <point x="147" y="821"/>
      <point x="62" y="821" type="curve" smooth="yes"/>
      <point x="44" y="821"/>
      <point x="24" y="820"/>
      <point x="24" y="806" type="curve" smooth="yes"/>
      <point x="24" y="800"/>
      <point x="28" y="791"/>
      <point x="46" y="791" type="curve" smooth="yes"/>
      <point x="118" y="791"/>
      <point x="138" y="779"/>
      <point x="138" y="752" type="curve" smooth="yes"/>
      <point x="138" y="652"/>
      <point x="144" y="589"/>
      <point x="144" y="489" type="curve" smooth="yes"/>
      <point x="144" y="350"/>
      <point x="143" y="211"/>
    </contour>
  </outline>
</glyph>
<glyph name="G" format="1">
  <advance width="635"/>
  <unicode hex="0047"/>
  <outline>
    <contour>
      <point x="516" y="269" type="curve" smooth="yes"/>
      <point x="541" y="269"/>
      <point x="541" y="260"/>
      <point x="541" y="225" type="curve" smooth="yes"/>
      <point x="541" y="80"/>
      <point x="446" y="19"/>
      <point x="347" y="19" type="curve" smooth="yes"/>
      <point x="155" y="19"/>
      <point x="86" y="215"/>
      <point x="86" y="404" type="curve" smooth="yes"/>
      <point x="86" y="626"/>
      <point x="204" y="807"/>
      <point x="345" y="807" type="curve" smooth="yes"/>
      <point x="479" y="807"/>
      <point x="529" y="692"/>
      <point x="529" y="527" type="curve" smooth="yes" name="hr01"/>
      <point x="529" y="508"/>
      <point x="529" y="474"/>
      <point x="551" y="474" type="curve" smooth="yes"/>
      <point x="569" y="474"/>
      <point x="569" y="493"/>
      <point x="569" y="530" type="curve" smooth="yes"/>
      <point x="569" y="564"/>
      <point x="567" y="614"/>
      <point x="567" y="648" type="curve" smooth="yes"/>
      <point x="567" y="702"/>
      <point x="571" y="735"/>
      <point x="571" y="790" type="curve" smooth="yes"/>
      <point x="571" y="806"/>
      <point x="559" y="813"/>
      <point x="549" y="813" type="curve" smooth="yes"/>
      <point x="540" y="813"/>
      <point x="532" y="804"/>
      <point x="532" y="791" type="curve"/>
      <point x="537" y="702" type="line"/>
      <point x="500" y="799"/>
      <point x="426" y="838"/>
      <point x="354" y="838" type="curve" smooth="yes"/>
      <point x="169" y="838"/>
      <point x="41" y="637"/>
      <point x="41" y="404" type="curve" smooth="yes"/>
      <point x="41" y="94"/>
      <point x="197" y="-14"/>
      <point x="339" y="-14" type="curve" smooth="yes"/>
      <point x="416" y="-14"/>
      <point x="503" y="19"/>
      <point x="548" y="103" type="curve"/>
      <point x="548" y="94"/>
      <point x="546" y="56"/>
      <point x="546" y="34" type="curve" smooth="yes"/>
      <point x="546" y="21"/>
      <point x="553" y="12"/>
      <point x="563" y="12" type="curve" smooth="yes"/>
      <point x="570" y="12"/>
      <point x="579" y="19"/>
      <point x="579" y="33" type="curve" smooth="yes"/>
      <point x="579" y="57"/>
      <point x="577" y="105"/>
      <point x="577" y="164" type="curve" smooth="yes"/>
      <point x="577" y="212"/>
      <point x="579" y="250"/>
      <point x="579" y="273" type="curve" smooth="yes"/>
      <point x="579" y="297"/>
      <point x="565" y="306"/>
      <point x="549" y="306" type="curve"/>
      <point x="477" y="304"/>
      <point x="406" y="299"/>
      <point x="324" y="295" type="curve" smooth="yes"/>
      <point x="301" y="294"/>
      <point x="273" y="291"/>
      <point x="273" y="278" type="curve" smooth="yes"/>
      <point x="273" y="270"/>
      <point x="283" y="262"/>
      <point x="311" y="262" type="curve" smooth="yes"/>
      <point x="383" y="262"/>
      <point x="450" y="269"/>
    </contour>
  </outline>
</glyph>
<glyph name="H" format="1">
  <advance width="775"/>
  <unicode hex="0048"/>
  <outline>
    <contour>
      <point x="629" y="752" type="curve" smooth="yes"/>
      <point x="629" y="777"/>
      <point x="698" y="777"/>
      <point x="710" y="777" type="curve" smooth="yes"/>
      <point x="726" y="777"/>
      <point x="747" y="778"/>
      <point x="747" y="792" type="curve" smooth="yes"/>
      <point x="747" y="802"/>
      <point x="738" y="807"/>
      <point x="696" y="807" type="curve" smooth="yes"/>
      <point x="514" y="807" type="line" smooth="yes"/>
      <point x="502" y="807"/>
      <point x="477" y="806"/>
      <point x="477" y="792" type="curve" smooth="yes"/>
      <point x="477" y="779"/>
      <point x="500" y="777"/>
      <point x="514" y="777" type="curve" smooth="yes"/>
      <point x="542" y="777"/>
      <point x="584" y="777"/>
      <point x="584" y="754" type="curve" smooth="yes"/>
      <point x="584" y="439" type="line"/>
      <point x="587" y="438"/>
      <point x="455" y="437"/>
      <point x="387" y="437" type="curve" smooth="yes"/>
      <point x="319" y="437"/>
      <point x="251" y="437"/>
      <point x="183" y="439" type="curve"/>
      <point x="183" y="766" type="line" smooth="yes"/>
      <point x="183" y="791"/>
      <point x="242" y="791"/>
      <point x="254" y="791" type="curve" smooth="yes" name="hr01"/>
      <point x="270" y="791"/>
      <point x="291" y="792"/>
      <point x="291" y="806" type="curve" smooth="yes"/>
      <point x="291" y="816"/>
      <point x="282" y="821"/>
      <point x="240" y="821" type="curve" smooth="yes"/>
      <point x="58" y="821" type="line" smooth="yes"/>
      <point x="46" y="821"/>
      <point x="21" y="820"/>
      <point x="21" y="806" type="curve" smooth="yes"/>
      <point x="21" y="793"/>
      <point x="44" y="791"/>
      <point x="58" y="791" type="curve" smooth="yes"/>
      <point x="86" y="791"/>
      <point x="138" y="791"/>
      <point x="138" y="768" type="curve" smooth="yes"/>
      <point x="138" y="652"/>
      <point x="142" y="517"/>
      <point x="142" y="401" type="curve" smooth="yes" name="hr02"/>
      <point x="142" y="285"/>
      <point x="138" y="183"/>
      <point x="138" y="74" type="curve" smooth="yes"/>
      <point x="138" y="28"/>
      <point x="92" y="28"/>
      <point x="65" y="28" type="curve" smooth="yes"/>
      <point x="53" y="28"/>
      <point x="36" y="25"/>
      <point x="36" y="13" type="curve" smooth="yes"/>
      <point x="36" y="2"/>
      <point x="59" y="0"/>
      <point x="77" y="0" type="curve" smooth="yes"/>
      <point x="289" y="0" type="line" smooth="yes"/>
      <point x="302" y="0"/>
      <point x="309" y="5"/>
      <point x="309" y="13" type="curve" smooth="yes"/>
      <point x="309" y="24"/>
      <point x="304" y="31"/>
      <point x="279" y="31" type="curve" smooth="yes"/>
      <point x="183" y="31" type="line"/>
      <point x="183" y="401" type="line"/>
      <point x="251" y="402"/>
      <point x="319" y="403"/>
      <point x="387" y="403" type="curve" smooth="yes"/>
      <point x="455" y="403"/>
      <point x="587" y="401"/>
      <point x="587" y="401" type="curve"/>
      <point x="587" y="19" type="line" smooth="yes"/>
      <point x="587" y="-27"/>
      <point x="550" y="-27"/>
      <point x="523" y="-27" type="curve" smooth="yes"/>
      <point x="511" y="-27"/>
      <point x="494" y="-30"/>
      <point x="494" y="-42" type="curve" smooth="yes"/>
      <point x="494" y="-53"/>
      <point x="517" y="-55"/>
      <point x="535" y="-55" type="curve" smooth="yes" name="hr03"/>
      <point x="743" y="-55" type="line" smooth="yes"/>
      <point x="756" y="-55"/>
      <point x="763" y="-50"/>
      <point x="763" y="-42" type="curve" smooth="yes"/>
      <point x="763" y="-31"/>
      <point x="748" y="-24"/>
      <point x="733" y="-24" type="curve" smooth="yes"/>
      <point x="637" y="-24" type="line"/>
      <point x="637" y="5"/>
      <point x="627" y="212"/>
      <point x="627" y="401" type="curve" smooth="yes"/>
      <point x="627" y="477"/>
      <point x="629" y="698"/>
    </contour>
  </outline>
</glyph>
<glyph name="M" format="1">
  <advance width="999"/>
  <unicode hex="004D"/>
  <outline>
    <contour>
      <point x="974" y="753" type="curve" smooth="yes"/>
      <point x="994" y="755"/>
      <point x="1002" y="761"/>
      <point x="1002" y="768" type="curve" smooth="yes"/>
      <point x="1002" y="781"/>
      <point x="988" y="781"/>
      <point x="967" y="781" type="curve" smooth="yes"/>
      <point x="831" y="781" type="line" smooth="yes"/>
      <point x="783" y="781"/>
      <point x="788" y="776"/>
      <point x="775" y="739" type="curve" smooth="yes"/>
      <point x="722" y="589"/>
      <point x="561" y="200"/>
      <point x="504" y="45" type="curve"/>
      <point x="455" y="201"/>
      <point x="252" y="635"/>
      <point x="213" y="761" type="curve" smooth="yes"/>
      <point x="202" y="797"/>
      <point x="195" y="801"/>
      <point x="176" y="801" type="curve" smooth="yes"/>
      <point x="65" y="801" type="line" smooth="yes"/>
      <point x="55" y="801"/>
      <point x="17" y="801"/>
      <point x="17" y="781" type="curve" smooth="yes"/>
      <point x="17" y="751"/>
      <point x="143" y="786"/>
      <point x="143" y="738" type="curve" smooth="yes"/>
      <point x="143" y="624"/>
      <point x="146" y="504"/>
      <point x="146" y="383" type="curve" smooth="yes"/>
      <point x="146" y="276"/>
      <point x="144" y="170"/>
      <point x="137" y="74" type="curve"/>
      <point x="137" y="28"/>
      <point x="96" y="28"/>
      <point x="69" y="28" type="curve" smooth="yes"/>
      <point x="57" y="28"/>
      <point x="40" y="25"/>
      <point x="40" y="13" type="curve" smooth="yes"/>
      <point x="40" y="2"/>
      <point x="63" y="0"/>
      <point x="81" y="0" type="curve" smooth="yes"/>
      <point x="293" y="0" type="line" smooth="yes"/>
      <point x="306" y="0"/>
      <point x="313" y="5"/>
      <point x="313" y="13" type="curve" smooth="yes"/>
      <point x="313" y="24"/>
      <point x="298" y="31"/>
      <point x="283" y="31" type="curve" smooth="yes"/>
      <point x="187" y="31" type="line"/>
      <point x="187" y="704" type="line"/>
      <point x="236" y="575"/>
      <point x="423" y="154"/>
      <point x="482" y="-7" type="curve" smooth="yes"/>
      <point x="487" y="-21"/>
      <point x="494" y="-28"/>
      <point x="501" y="-28" type="curve" smooth="yes"/>
      <point x="512" y="-28"/>
      <point x="520" y="-17"/>
      <point x="522" y="-12" type="curve" smooth="yes"/>
      <point x="562" y="73"/>
      <point x="681" y="381"/>
      <point x="788" y="662" type="curve"/>
      <point x="788" y="33" type="line" smooth="yes"/>
      <point x="788" y="-13"/>
      <point x="751" y="-13"/>
      <point x="724" y="-13" type="curve" smooth="yes" name="hr01"/>
      <point x="712" y="-13"/>
      <point x="695" y="-16"/>
      <point x="695" y="-28" type="curve" smooth="yes" name="hr02"/>
      <point x="695" y="-39"/>
      <point x="718" y="-41"/>
      <point x="736" y="-41" type="curve" smooth="yes" name="hr03"/>
      <point x="946" y="-41" type="line" smooth="yes"/>
      <point x="959" y="-41"/>
      <point x="966" y="-36"/>
      <point x="966" y="-28" type="curve" smooth="yes" name="hr04"/>
      <point x="966" y="-17"/>
      <point x="951" y="-10"/>
      <point x="936" y="-10" type="curve" smooth="yes" name="hr05"/>
      <point x="834" y="-10" type="line"/>
      <point x="834" y="49"/>
      <point x="829" y="260"/>
      <point x="829" y="380" type="curve" smooth="yes"/>
      <point x="829" y="537"/>
      <point x="833" y="637"/>
      <point x="833" y="698" type="curve" smooth="yes"/>
      <point x="833" y="719"/>
      <point x="835" y="742"/>
      <point x="864" y="745" type="curve" smooth="yes"/>
      <point x="905" y="749"/>
      <point x="933" y="749"/>
    </contour>
  </outline>
</glyph>
<glyph name="N" format="1">
  <advance width="788"/>
  <unicode hex="004E"/>
  <outline>
    <contour>
      <point x="610" y="6" type="line" smooth="yes"/>
      <point x="618" y="-7"/>
      <point x="625" y="-11"/>
      <point x="634" y="-11" type="curve" smooth="yes"/>
      <point x="641" y="-11"/>
      <point x="655" y="-9"/>
      <point x="655" y="6" type="curve"/>
      <point x="654" y="100"/>
      <point x="653" y="281"/>
      <point x="653" y="368" type="curve" smooth="yes"/>
      <point x="653" y="531"/>
      <point x="655" y="595"/>
      <point x="657" y="749" type="curve"/>
      <point x="657" y="774"/>
      <point x="726" y="774"/>
      <point x="738" y="774" type="curve" smooth="yes"/>
      <point x="754" y="774"/>
      <point x="775" y="775"/>
      <point x="775" y="789" type="curve" smooth="yes"/>
      <point x="775" y="799"/>
      <point x="766" y="804"/>
      <point x="724" y="804" type="curve" smooth="yes"/>
      <point x="533" y="804" type="line" smooth="yes"/>
      <point x="521" y="804"/>
      <point x="496" y="803"/>
      <point x="496" y="789" type="curve" smooth="yes"/>
      <point x="496" y="776"/>
      <point x="519" y="774"/>
      <point x="533" y="774" type="curve" smooth="yes"/>
      <point x="561" y="774"/>
      <point x="613" y="774"/>
      <point x="613" y="751" type="curve" name="hr01"/>
      <point x="613" y="80" type="line"/>
      <point x="573" y="159"/>
      <point x="277" y="659"/>
      <point x="211" y="781" type="curve" smooth="yes"/>
      <point x="193" y="814"/>
      <point x="187" y="821"/>
      <point x="171" y="821" type="curve" smooth="yes"/>
      <point x="63" y="821" type="line" smooth="yes"/>
      <point x="53" y="821"/>
      <point x="15" y="821"/>
      <point x="15" y="809" type="curve" smooth="yes"/>
      <point x="15" y="779"/>
      <point x="141" y="806"/>
      <point x="141" y="758" type="curve" smooth="yes"/>
      <point x="141" y="644"/>
      <point x="144" y="509"/>
      <point x="144" y="388" type="curve" smooth="yes"/>
      <point x="144" y="281"/>
      <point x="142" y="170"/>
      <point x="135" y="74" type="curve"/>
      <point x="135" y="28"/>
      <point x="94" y="28"/>
      <point x="67" y="28" type="curve" smooth="yes"/>
      <point x="55" y="28"/>
      <point x="38" y="25"/>
      <point x="38" y="13" type="curve" smooth="yes"/>
      <point x="38" y="2"/>
      <point x="61" y="0"/>
      <point x="79" y="0" type="curve" smooth="yes"/>
      <point x="291" y="0" type="line" smooth="yes"/>
      <point x="304" y="0"/>
      <point x="311" y="5"/>
      <point x="311" y="13" type="curve" smooth="yes"/>
      <point x="311" y="24"/>
      <point x="296" y="31"/>
      <point x="281" y="31" type="curve" smooth="yes"/>
      <point x="185" y="31" type="line"/>
      <point x="185" y="738" type="line"/>
    </contour>
  </outline>
</glyph>
<glyph name="O" format="1">
  <advance width="687"/>
  <unicode hex="004F"/>
  <outline>
    <contour>
      <point x="86" y="400" type="curve" smooth="yes"/>
      <point x="86" y="592"/>
      <point x="174" y="807"/>
      <point x="362" y="807" type="curve" smooth="yes"/>
      <point x="500" y="807"/>
      <point x="600" y="631"/>
      <point x="600" y="410" type="curve" smooth="yes"/>
      <point x="600" y="150"/>
      <point x="490" y="18"/>
      <point x="342" y="18" type="curve" smooth="yes"/>
      <point x="187" y="18"/>
      <point x="86" y="165"/>
    </contour>
    <contour>
      <point x="41" y="404" type="curve" smooth="yes"/>
      <point x="41" y="110"/>
      <point x="191" y="-16"/>
      <point x="340" y="-16" type="curve" smooth="yes"/>
      <point x="463" y="-16"/>
      <point x="645" y="82"/>
      <point x="645" y="408" type="curve" smooth="yes"/>
      <point x="645" y="639"/>
      <point x="538" y="838"/>
      <point x="356" y="838" type="curve" smooth="yes"/>
      <point x="151" y="838"/>
      <point x="41" y="608"/>
    </contour>
  </outline>
</glyph>
<glyph name="P" format="1">
  <advance width="599"/>
  <unicode hex="0050"/>
  <outline>
    <contour>
      <point x="63" y="28" type="curve" smooth="yes"/>
      <point x="24" y="28"/>
      <point x="21" y="19"/>
      <point x="21" y="12" type="curve" smooth="yes"/>
      <point x="21" y="0"/>
      <point x="61" y="0"/>
      <point x="82" y="0" type="curve" smooth="yes"/>
      <point x="278" y="0" type="line" smooth="yes"/>
      <point x="310" y="0"/>
      <point x="323" y="0"/>
      <point x="323" y="13" type="curve" smooth="yes"/>
      <point x="323" y="25"/>
      <point x="309" y="31"/>
      <point x="280" y="31" type="curve" smooth="yes"/>
      <point x="183" y="31" type="line"/>
      <point x="183" y="356" type="line"/>
      <point x="183" y="356"/>
      <point x="226" y="354"/>
      <point x="249" y="354" type="curve" smooth="yes"/>
      <point x="398" y="354"/>
      <point x="588" y="414"/>
      <point x="588" y="595" type="curve" smooth="yes"/>
      <point x="588" y="761"/>
      <point x="459" y="821"/>
      <point x="297" y="821" type="curve" smooth="yes"/>
      <point x="186" y="821"/>
      <point x="148" y="818"/>
      <point x="52" y="818" type="curve" smooth="yes"/>
      <point x="28" y="818"/>
      <point x="24" y="810"/>
      <point x="24" y="804" type="curve" smooth="yes"/>
      <point x="24" y="797"/>
      <point x="30" y="789"/>
      <point x="52" y="789" type="curve" smooth="yes"/>
      <point x="86" y="789" type="line" smooth="yes"/>
      <point x="129" y="789"/>
      <point x="135" y="770"/>
      <point x="135" y="749" type="curve" smooth="yes"/>
      <point x="135" y="679"/>
      <point x="141" y="564"/>
      <point x="141" y="437" type="curve" smooth="yes"/>
      <point x="141" y="274"/>
      <point x="140" y="231"/>
      <point x="140" y="72" type="curve" smooth="yes"/>
      <point x="140" y="58"/>
      <point x="140" y="28"/>
    </contour>
    <contour>
      <point x="255" y="787" type="curve" smooth="yes"/>
      <point x="347" y="787"/>
      <point x="543" y="781"/>
      <point x="543" y="592" type="curve" smooth="yes"/>
      <point x="543" y="403"/>
      <point x="317" y="388"/>
      <point x="248" y="388" type="curve" smooth="yes"/>
      <point x="214" y="388"/>
      <point x="183" y="390"/>
      <point x="183" y="390" type="curve"/>
      <point x="183" y="780" type="line"/>
      <point x="206" y="784"/>
      <point x="230" y="787"/>
    </contour>
  </outline>
</glyph>
<glyph name="Q" format="1">
  <advance width="687"/>
  <unicode hex="0051"/>
  <outline>
    <contour>
      <point x="203" y="-68" type="curve" smooth="yes"/>
      <point x="203" y="-75"/>
      <point x="210" y="-80"/>
      <point x="217" y="-80" type="curve" smooth="yes"/>
      <point x="236" y="-80"/>
      <point x="292" y="-47"/>
      <point x="341" y="-47" type="curve" smooth="yes"/>
      <point x="379" y="-47"/>
      <point x="432" y="-90"/>
      <point x="483" y="-90" type="curve" smooth="yes"/>
      <point x="538" y="-90"/>
      <point x="585" y="-71"/>
      <point x="585" y="-53" type="curve" smooth="yes"/>
      <point x="585" y="-44"/>
      <point x="582" y="-37"/>
      <point x="575" y="-37" type="curve" smooth="yes"/>
      <point x="569" y="-37"/>
      <point x="558" y="-41"/>
      <point x="542" y="-47" type="curve" smooth="yes"/>
      <point x="521" y="-55"/>
      <point x="500" y="-58"/>
      <point x="482" y="-58" type="curve" smooth="yes"/>
      <point x="448" y="-58"/>
      <point x="400" y="-26"/>
      <point x="362" y="-15" type="curve"/>
      <point x="484" y="-3"/>
      <point x="645" y="101"/>
      <point x="645" y="408" type="curve" smooth="yes"/>
      <point x="645" y="639"/>
      <point x="538" y="838"/>
      <point x="356" y="838" type="curve" smooth="yes"/>
      <point x="151" y="838"/>
      <point x="41" y="608"/>
      <point x="41" y="404" type="curve" smooth="yes"/>
      <point x="41" y="130"/>
      <point x="171" y="1"/>
      <point x="309" y="-14" type="curve"/>
      <point x="288" y="-18"/>
      <point x="266" y="-25"/>
      <point x="247" y="-34" type="curve" smooth="yes"/>
      <point x="218" y="-47"/>
      <point x="203" y="-58"/>
    </contour>
    <contour>
      <point x="86" y="400" type="curve" smooth="yes"/>
      <point x="86" y="592"/>
      <point x="174" y="807"/>
      <point x="362" y="807" type="curve" smooth="yes"/>
      <point x="500" y="807"/>
      <point x="600" y="631"/>
      <point x="600" y="410" type="curve" smooth="yes"/>
      <point x="600" y="150"/>
      <point x="490" y="18"/>
      <point x="342" y="18" type="curve" smooth="yes"/>
      <point x="187" y="18"/>
      <point x="86" y="165"/>
    </contour>
  </outline>
</glyph>
<glyph name="S" format="1">
  <advance width="592"/>
  <unicode hex="0053"/>
  <outline>
    <contour>
      <point x="84" y="91" type="curve"/>
      <point x="126" y="14"/>
      <point x="228" y="-16"/>
      <point x="312" y="-16" type="curve" smooth="yes"/>
      <point x="401" y="-16"/>
      <point x="540" y="28"/>
      <point x="540" y="145" type="curve" smooth="yes"/>
      <point x="540" y="257"/>
      <point x="339" y="314"/>
      <point x="259" y="351" type="curve" smooth="yes"/>
      <point x="179" y="388"/>
      <point x="99" y="433"/>
      <point x="99" y="565" type="curve" smooth="yes"/>
      <point x="99" y="687"/>
      <point x="195" y="807"/>
      <point x="320" y="807" type="curve" smooth="yes"/>
      <point x="428" y="807"/>
      <point x="500" y="712"/>
      <point x="510" y="567" type="curve"/>
      <point x="510" y="538"/>
      <point x="512" y="508"/>
      <point x="531" y="508" type="curve" smooth="yes"/>
      <point x="548" y="508"/>
      <point x="550" y="523"/>
      <point x="550" y="542" type="curve" smooth="yes"/>
      <point x="550" y="584"/>
      <point x="548" y="610"/>
      <point x="548" y="652" type="curve" smooth="yes"/>
      <point x="548" y="700"/>
      <point x="552" y="751"/>
      <point x="552" y="798" type="curve" smooth="yes" name="hr01"/>
      <point x="552" y="807"/>
      <point x="545" y="821"/>
      <point x="532" y="821" type="curve" smooth="yes"/>
      <point x="520" y="821"/>
      <point x="513" y="812"/>
      <point x="513" y="796" type="curve"/>
      <point x="513" y="795"/>
      <point x="516" y="754"/>
      <point x="521" y="671" type="curve"/>
      <point x="481" y="786"/>
      <point x="413" y="837"/>
      <point x="316" y="837" type="curve" smooth="yes"/>
      <point x="195" y="837"/>
      <point x="58" y="724"/>
      <point x="58" y="574" type="curve" smooth="yes"/>
      <point x="58" y="407"/>
      <point x="163" y="354"/>
      <point x="247" y="314" type="curve" smooth="yes"/>
      <point x="342" y="269"/>
      <point x="499" y="228"/>
      <point x="499" y="145" type="curve" smooth="yes"/>
      <point x="499" y="62"/>
      <point x="404" y="14"/>
      <point x="309" y="14" type="curve" smooth="yes"/>
      <point x="169" y="14"/>
      <point x="91" y="97"/>
      <point x="91" y="180" type="curve" smooth="yes"/>
      <point x="91" y="209"/>
      <point x="88" y="239"/>
      <point x="69" y="239" type="curve" smooth="yes"/>
      <point x="52" y="239"/>
      <point x="50" y="224"/>
      <point x="50" y="205" type="curve" smooth="yes"/>
      <point x="50" y="163"/>
      <point x="52" y="150"/>
      <point x="52" y="108" type="curve" smooth="yes"/>
      <point x="52" y="79"/>
      <point x="48" y="22"/>
      <point x="48" y="7" type="curve" smooth="yes"/>
      <point x="48" y="-2"/>
      <point x="55" y="-16"/>
      <point x="68" y="-16" type="curve" smooth="yes"/>
      <point x="80" y="-16"/>
      <point x="87" y="-7"/>
      <point x="87" y="9" type="curve"/>
      <point x="87" y="10"/>
    </contour>
  </outline>
</glyph>
<glyph name="V" format="1">
  <advance width="682"/>
  <unicode hex="0056"/>
  <outline>
    <contour>
      <point x="343" y="52" type="curve"/>
      <point x="343" y="52"/>
      <point x="152" y="726"/>
      <point x="152" y="771" type="curve" smooth="yes"/>
      <point x="152" y="804"/>
      <point x="248" y="782"/>
      <point x="248" y="807" type="curve" smooth="yes"/>
      <point x="248" y="817"/>
      <point x="241" y="821"/>
      <point x="217" y="821" type="curve" smooth="yes"/>
      <point x="0" y="821" type="line" smooth="yes"/>
      <point x="-23" y="821"/>
      <point x="-35" y="818"/>
      <point x="-35" y="807" type="curve" smooth="yes"/>
      <point x="-35" y="795"/>
      <point x="-18" y="795"/>
      <point x="1" y="795" type="curve" smooth="yes"/>
      <point x="64" y="795"/>
      <point x="97" y="790"/>
      <point x="104" y="763" type="curve" smooth="yes"/>
      <point x="321" y="-9" type="line" smooth="yes"/>
      <point x="325" y="-23"/>
      <point x="335" y="-28"/>
      <point x="341" y="-28" type="curve" smooth="yes"/>
      <point x="351" y="-28"/>
      <point x="359" y="-19"/>
      <point x="362" y="-9" type="curve" smooth="yes"/>
      <point x="403" y="126"/>
      <point x="514" y="525"/>
      <point x="576" y="697" type="curve" smooth="yes"/>
      <point x="585" y="721"/>
      <point x="596" y="732"/>
      <point x="625" y="735" type="curve" smooth="yes"/>
      <point x="635" y="736"/>
      <point x="676" y="740"/>
      <point x="704" y="741" type="curve"/>
      <point x="717" y="741"/>
      <point x="724" y="746"/>
      <point x="724" y="752" type="curve" smooth="yes"/>
      <point x="724" y="762"/>
      <point x="713" y="766"/>
      <point x="701" y="766" type="curve" smooth="yes"/>
      <point x="458" y="766" type="line" smooth="yes"/>
      <point x="432" y="766"/>
      <point x="424" y="758"/>
      <point x="424" y="751" type="curve" smooth="yes"/>
      <point x="424" y="737"/>
      <point x="445" y="737"/>
      <point x="458" y="737" type="curve"/>
      <point x="488" y="736"/>
      <point x="529" y="739"/>
      <point x="529" y="721" type="curve" smooth="yes"/>
      <point x="529" y="668"/>
    </contour>
  </outline>
</glyph>
<glyph name="X" format="1">
  <advance width="679"/>
  <unicode hex="0058"/>
  <outline>
    <contour>
      <point x="192" y="754" type="curve" smooth="yes"/>
      <point x="192" y="780"/>
      <point x="288" y="760"/>
      <point x="288" y="785" type="curve" smooth="yes"/>
      <point x="288" y="795"/>
      <point x="281" y="799"/>
      <point x="257" y="799" type="curve" smooth="yes"/>
      <point x="40" y="799" type="line" smooth="yes"/>
      <point x="17" y="799"/>
      <point x="5" y="796"/>
      <point x="5" y="785" type="curve" smooth="yes"/>
      <point x="5" y="773"/>
      <point x="22" y="773"/>
      <point x="41" y="773" type="curve" smooth="yes"/>
      <point x="104" y="773"/>
      <point x="138" y="767"/>
      <point x="151" y="741" type="curve" smooth="yes"/>
      <point x="316" y="412" type="line"/>
      <point x="148" y="69" type="line" smooth="yes"/>
      <point x="136" y="46"/>
      <point x="128" y="34"/>
      <point x="99" y="31" type="curve" smooth="yes"/>
      <point x="89" y="30"/>
      <point x="36" y="26"/>
      <point x="8" y="25" type="curve"/>
      <point x="-5" y="25"/>
      <point x="-12" y="20"/>
      <point x="-12" y="14" type="curve" smooth="yes"/>
      <point x="-12" y="4"/>
      <point x="-1" y="0"/>
      <point x="11" y="0" type="curve" smooth="yes"/>
      <point x="256" y="0" type="line" smooth="yes"/>
      <point x="282" y="0"/>
      <point x="290" y="8"/>
      <point x="290" y="15" type="curve" smooth="yes"/>
      <point x="290" y="29"/>
      <point x="269" y="29"/>
      <point x="256" y="29" type="curve"/>
      <point x="226" y="30"/>
      <point x="185" y="27"/>
      <point x="185" y="45" type="curve" smooth="yes" name="hr01"/>
      <point x="185" y="62"/>
      <point x="337" y="368"/>
      <point x="337" y="370" type="curve"/>
      <point x="337" y="370"/>
      <point x="524" y="23"/>
      <point x="524" y="2" type="curve" smooth="yes" name="hr02"/>
      <point x="524" y="-15"/>
      <point x="427" y="0"/>
      <point x="427" y="-23" type="curve" smooth="yes" name="hr03"/>
      <point x="427" y="-33"/>
      <point x="434" y="-37"/>
      <point x="458" y="-37" type="curve" smooth="yes"/>
      <point x="675" y="-37" type="line" smooth="yes"/>
      <point x="698" y="-37"/>
      <point x="710" y="-34"/>
      <point x="710" y="-23" type="curve" smooth="yes"/>
      <point x="710" y="-11"/>
      <point x="693" y="-11"/>
      <point x="674" y="-11" type="curve" smooth="yes"/>
      <point x="611" y="-11"/>
      <point x="574" y="-4"/>
      <point x="561" y="21" type="curve" smooth="yes"/>
      <point x="356" y="414" type="line"/>
      <point x="534" y="752" type="line" smooth="yes"/>
      <point x="546" y="775"/>
      <point x="554" y="787"/>
      <point x="583" y="790" type="curve" smooth="yes"/>
      <point x="593" y="791"/>
      <point x="626" y="795"/>
      <point x="654" y="796" type="curve"/>
      <point x="667" y="796"/>
      <point x="674" y="801"/>
      <point x="674" y="807" type="curve" smooth="yes"/>
      <point x="674" y="817"/>
      <point x="663" y="821"/>
      <point x="651" y="821" type="curve" smooth="yes"/>
      <point x="426" y="821" type="line" smooth="yes"/>
      <point x="400" y="821"/>
      <point x="392" y="813"/>
      <point x="392" y="806" type="curve" smooth="yes"/>
      <point x="392" y="792"/>
      <point x="413" y="792"/>
      <point x="426" y="792" type="curve" smooth="yes"/>
      <point x="476" y="792"/>
      <point x="497" y="792"/>
      <point x="497" y="776" type="curve" smooth="yes" name="hr04"/>
      <point x="497" y="755"/>
      <point x="366" y="520"/>
      <point x="337" y="454" type="curve"/>
      <point x="337" y="454"/>
      <point x="192" y="734"/>
    </contour>
  </outline>
</glyph>
<glyph name="bracketleft" format="1">
  <advance width="298"/>
  <unicode hex="005B"/>
  <outline>
    <contour>
      <point x="110" y="835" type="curve" smooth="yes"/>
      <point x="98" y="834"/>
      <point x="89" y="816"/>
      <point x="89" y="800" type="curve"/>
      <point x="93" y="591"/>
      <point x="93" y="575"/>
      <point x="93" y="366" type="curve" smooth="yes"/>
      <point x="93" y="301"/>
      <point x="93" y="42"/>
      <point x="92" y="-23" type="curve"/>
      <point x="92" y="-51"/>
      <point x="99" y="-58"/>
      <point x="111" y="-58" type="curve" smooth="yes"/>
      <point x="211" y="-58" type="line" smooth="yes"/>
      <point x="232" y="-58"/>
      <point x="287" y="-56"/>
      <point x="287" y="-43" type="curve" smooth="yes"/>
      <point x="287" y="-29"/>
      <point x="227" y="-27"/>
      <point x="223" y="-27" type="curve" smooth="yes"/>
      <point x="164" y="-27"/>
      <point x="132" y="-27"/>
      <point x="132" y="-10" type="curve" smooth="yes" name="hr01"/>
      <point x="132" y="776" type="line" smooth="yes"/>
      <point x="132" y="785"/>
      <point x="134" y="805"/>
      <point x="153" y="806" type="curve" smooth="yes"/>
      <point x="271" y="814" type="line" smooth="yes"/>
      <point x="286" y="815"/>
      <point x="289" y="823"/>
      <point x="289" y="826" type="curve" smooth="yes"/>
      <point x="289" y="836"/>
      <point x="281" y="838"/>
      <point x="270" y="838" type="curve" smooth="yes"/>
      <point x="250" y="838"/>
      <point x="165" y="838"/>
    </contour>
  </outline>
</glyph>
<glyph name="bracketright" format="1">
  <advance width="298"/>
  <unicode hex="005D"/>
  <outline>
    <contour>
      <point x="188" y="835" type="curve" smooth="yes"/>
      <point x="133" y="838"/>
      <point x="48" y="838"/>
      <point x="28" y="838" type="curve" smooth="yes" name="hr01"/>
      <point x="17" y="838"/>
      <point x="9" y="836"/>
      <point x="9" y="826" type="curve" smooth="yes"/>
      <point x="9" y="823"/>
      <point x="12" y="815"/>
      <point x="27" y="814" type="curve" smooth="yes"/>
      <point x="145" y="806" type="line" smooth="yes"/>
      <point x="164" y="805"/>
      <point x="166" y="785"/>
      <point x="166" y="776" type="curve" smooth="yes"/>
      <point x="166" y="-10" type="line" smooth="yes"/>
      <point x="166" y="-27"/>
      <point x="134" y="-27"/>
      <point x="75" y="-27" type="curve" smooth="yes"/>
      <point x="71" y="-27"/>
      <point x="11" y="-29"/>
      <point x="11" y="-43" type="curve" smooth="yes" name="hr02"/>
      <point x="11" y="-56"/>
      <point x="66" y="-58"/>
      <point x="87" y="-58" type="curve" smooth="yes"/>
      <point x="187" y="-58" type="line" smooth="yes"/>
      <point x="199" y="-58"/>
      <point x="206" y="-51"/>
      <point x="206" y="-23" type="curve"/>
      <point x="205" y="42"/>
      <point x="205" y="301"/>
      <point x="205" y="366" type="curve" smooth="yes"/>
      <point x="205" y="575"/>
      <point x="205" y="591"/>
      <point x="209" y="800" type="curve"/>
      <point x="209" y="816"/>
      <point x="200" y="834"/>
    </contour>
  </outline>
</glyph>
<glyph name="underscore" format="1">
  <advance width="481"/>
  <unicode hex="005F"/>
  <outline>
    <contour>
      <point x="405" y="-40" type="curve" smooth="yes"/>
      <point x="360" y="-40"/>
      <point x="302" y="-43"/>
      <point x="225" y="-43" type="curve" smooth="yes" name="hr01"/>
      <point x="177" y="-43"/>
      <point x="110" y="-41"/>
      <point x="83" y="-41" type="curve" smooth="yes" name="hr02"/>
      <point x="68" y="-41"/>
      <point x="61" y="-49"/>
      <point x="61" y="-56" type="curve" smooth="yes"/>
      <point x="61" y="-63"/>
      <point x="71" y="-72"/>
      <point x="83" y="-72" type="curve" smooth="yes" name="hr03"/>
      <point x="149" y="-72"/>
      <point x="319" y="-71"/>
      <point x="393" y="-71" type="curve" smooth="yes" name="hr04"/>
      <point x="414" y="-71"/>
      <point x="420" y="-59"/>
      <point x="420" y="-53" type="curve" smooth="yes"/>
      <point x="420" y="-46"/>
      <point x="412" y="-40"/>
    </contour>
  </outline>
</glyph>
<glyph name="grave" format="1">
  <advance width="154"/>
  <unicode hex="0060"/>
  <outline>
    <contour>
      <point x="23" y="653" type="curve" smooth="yes"/>
      <point x="23" y="632"/>
      <point x="107" y="510"/>
      <point x="126" y="510" type="curve" smooth="yes"/>
      <point x="131" y="510"/>
      <point x="134" y="512"/>
      <point x="134" y="521" type="curve" smooth="yes"/>
      <point x="134" y="546"/>
      <point x="71" y="680"/>
      <point x="47" y="680" type="curve" smooth="yes"/>
      <point x="30" y="680"/>
      <point x="23" y="672"/>
    </contour>
    <contour>
      <point x="77" y="510" type="move" name="_top"/>
    </contour>
  </outline>
</glyph>
<glyph name="b" format="1">
  <advance width="495"/>
  <unicode hex="0062"/>
  <outline>
    <contour>
      <point x="110" y="782" type="line" smooth="yes"/>
      <point x="110" y="816"/>
      <point x="96" y="818"/>
      <point x="84" y="818" type="curve" smooth="yes"/>
      <point x="-6" y="818" type="line" smooth="yes"/>
      <point x="-11" y="818"/>
      <point x="-80" y="818"/>
      <point x="-80" y="799" type="curve" smooth="yes"/>
      <point x="-80" y="788"/>
      <point x="-56" y="787"/>
      <point x="-34" y="787" type="curve" smooth="yes"/>
      <point x="24" y="787" type="line" smooth="yes"/>
      <point x="53" y="787"/>
      <point x="69" y="780"/>
      <point x="69" y="760" type="curve" smooth="yes"/>
      <point x="69" y="720"/>
      <point x="70" y="604"/>
      <point x="70" y="498" type="curve" smooth="yes" name="hr01"/>
      <point x="70" y="197"/>
      <point x="62" y="155"/>
      <point x="61" y="24" type="curve"/>
      <point x="61" y="0"/>
      <point x="67" y="-12"/>
      <point x="80" y="-12" type="curve" smooth="yes"/>
      <point x="95" y="-12"/>
      <point x="98" y="4"/>
      <point x="102" y="68" type="curve"/>
      <point x="124" y="32"/>
      <point x="159" y="-9"/>
      <point x="239" y="-9" type="curve" smooth="yes" name="hr02"/>
      <point x="333" y="-9"/>
      <point x="460" y="47"/>
      <point x="460" y="220" type="curve" smooth="yes"/>
      <point x="460" y="321"/>
      <point x="417" y="458"/>
      <point x="285" y="458" type="curve" smooth="yes"/>
      <point x="209" y="458"/>
      <point x="147" y="413"/>
      <point x="110" y="334" type="curve"/>
    </contour>
    <contour>
      <point x="109" y="182" type="curve" smooth="yes"/>
      <point x="109" y="318"/>
      <point x="189" y="427"/>
      <point x="278" y="427" type="curve" smooth="yes"/>
      <point x="333" y="427"/>
      <point x="417" y="379"/>
      <point x="417" y="225" type="curve" smooth="yes"/>
      <point x="417" y="56"/>
      <point x="307" y="22"/>
      <point x="239" y="22" type="curve" smooth="yes"/>
      <point x="132" y="22"/>
      <point x="109" y="105"/>
    </contour>
  </outline>
</glyph>
<glyph name="e" format="1">
  <advance width="468"/>
  <unicode hex="0065"/>
  <outline>
    <contour>
      <point x="85" y="289" type="line"/>
      <point x="99" y="363"/>
      <point x="145" y="445"/>
      <point x="245" y="445" type="curve" smooth="yes"/>
      <point x="344" y="445"/>
      <point x="385" y="364"/>
      <point x="385" y="311" type="curve" smooth="yes"/>
      <point x="385" y="300"/>
      <point x="381" y="293"/>
      <point x="368" y="293" type="curve"/>
    </contour>
    <contour>
      <point x="81" y="259" type="curve"/>
      <point x="118" y="259"/>
      <point x="220" y="260"/>
      <point x="252" y="260" type="curve" smooth="yes"/>
      <point x="305" y="260"/>
      <point x="359" y="260"/>
      <point x="393" y="261" type="curve" smooth="yes"/>
      <point x="417" y="262"/>
      <point x="428" y="283"/>
      <point x="428" y="304" type="curve" smooth="yes"/>
      <point x="428" y="358"/>
      <point x="375" y="477"/>
      <point x="248" y="477" type="curve" smooth="yes"/>
      <point x="129" y="477"/>
      <point x="34" y="374"/>
      <point x="34" y="226" type="curve" smooth="yes"/>
      <point x="34" y="92"/>
      <point x="105" y="-11"/>
      <point x="245" y="-11" type="curve" smooth="yes"/>
      <point x="356" y="-11"/>
      <point x="442" y="82"/>
      <point x="442" y="187" type="curve" smooth="yes" name="hr01"/>
      <point x="442" y="198"/>
      <point x="436" y="205"/>
      <point x="425" y="205" type="curve" smooth="yes"/>
      <point x="415" y="205"/>
      <point x="408" y="198"/>
      <point x="408" y="187" type="curve" smooth="yes"/>
      <point x="408" y="101"/>
      <point x="352" y="21"/>
      <point x="243" y="21" type="curve" smooth="yes"/>
      <point x="123" y="21"/>
      <point x="79" y="123"/>
      <point x="79" y="218" type="curve" smooth="yes"/>
      <point x="79" y="230"/>
      <point x="80" y="245"/>
    </contour>
  </outline>
</glyph>
<glyph name="f" format="1">
  <advance width="297"/>
  <unicode hex="0066"/>
  <outline>
    <contour>
      <point x="113" y="45" type="curve" smooth="yes"/>
      <point x="112" y="30"/>
      <point x="92" y="28"/>
      <point x="39" y="24" type="curve" smooth="yes"/>
      <point x="25" y="23"/>
      <point x="7" y="22"/>
      <point x="7" y="11" type="curve" smooth="yes"/>
      <point x="7" y="0"/>
      <point x="23" y="0"/>
      <point x="41" y="0" type="curve" smooth="yes" name="hr01"/>
      <point x="56" y="0"/>
      <point x="109" y="3"/>
      <point x="145" y="3" type="curve" smooth="yes" name="hr02"/>
      <point x="175" y="3"/>
      <point x="231" y="1"/>
      <point x="255" y="1" type="curve" smooth="yes" name="hr03"/>
      <point x="289" y="1"/>
      <point x="297" y="6"/>
      <point x="297" y="15" type="curve" smooth="yes"/>
      <point x="297" y="24"/>
      <point x="288" y="30"/>
      <point x="268" y="30" type="curve" smooth="yes"/>
      <point x="159" y="30" type="line"/>
      <point x="159" y="424" type="line"/>
      <point x="159" y="431"/>
      <point x="161" y="435"/>
      <point x="177" y="435" type="curve" smooth="yes"/>
      <point x="189" y="435"/>
      <point x="231" y="433"/>
      <point x="243" y="433" type="curve" smooth="yes"/>
      <point x="258" y="433"/>
      <point x="272" y="436"/>
      <point x="272" y="447" type="curve" smooth="yes"/>
      <point x="272" y="458"/>
      <point x="258" y="463"/>
      <point x="245" y="463" type="curve" smooth="yes"/>
      <point x="167" y="463" type="line" smooth="yes"/>
      <point x="162" y="463"/>
      <point x="159" y="467"/>
      <point x="159" y="484" type="curve" smooth="yes"/>
      <point x="159" y="588"/>
      <point x="159" y="799"/>
      <point x="317" y="799" type="curve" smooth="yes"/>
      <point x="376" y="799"/>
      <point x="397" y="771"/>
      <point x="397" y="750" type="curve" smooth="yes"/>
      <point x="397" y="741"/>
      <point x="393" y="737"/>
      <point x="382" y="729" type="curve" smooth="yes"/>
      <point x="371" y="721"/>
      <point x="367" y="713"/>
      <point x="367" y="702" type="curve" smooth="yes" name="hr04"/>
      <point x="367" y="680"/>
      <point x="381" y="667"/>
      <point x="400" y="667" type="curve" smooth="yes"/>
      <point x="424" y="667"/>
      <point x="439" y="689"/>
      <point x="439" y="718" type="curve" smooth="yes"/>
      <point x="439" y="756"/>
      <point x="412" y="825"/>
      <point x="312" y="825" type="curve" smooth="yes"/>
      <point x="130" y="825"/>
      <point x="120" y="595"/>
      <point x="116" y="491" type="curve"/>
      <point x="116" y="477"/>
      <point x="115" y="463"/>
      <point x="104" y="463" type="curve" smooth="yes"/>
      <point x="40" y="463" type="line" smooth="yes"/>
      <point x="16" y="463"/>
      <point x="8" y="462"/>
      <point x="8" y="452" type="curve" smooth="yes"/>
      <point x="8" y="444"/>
      <point x="15" y="435"/>
      <point x="37" y="435" type="curve" smooth="yes"/>
      <point x="104" y="435" type="line" smooth="yes"/>
      <point x="115" y="435"/>
      <point x="117" y="428"/>
      <point x="117" y="409" type="curve" smooth="yes"/>
      <point x="117" y="345"/>
      <point x="119" y="281"/>
      <point x="119" y="217" type="curve" smooth="yes"/>
      <point x="119" y="159"/>
      <point x="117" y="102"/>
    </contour>
  </outline>
</glyph>
<glyph name="h" format="1">
  <advance width="529"/>
  <unicode hex="0068"/>
  <outline>
    <contour>
      <point x="445" y="293" type="curve" smooth="yes"/>
      <point x="439" y="342"/>
      <point x="419" y="428"/>
      <point x="309" y="428" type="curve" smooth="yes"/>
      <point x="237" y="428"/>
      <point x="178" y="391"/>
      <point x="143" y="327" type="curve"/>
      <point x="143" y="745" type="line" smooth="yes"/>
      <point x="143" y="800"/>
      <point x="140" y="818"/>
      <point x="101" y="818" type="curve" smooth="yes"/>
      <point x="85" y="818"/>
      <point x="-30" y="815"/>
      <point x="-30" y="795" type="curve" smooth="yes"/>
      <point x="-30" y="786"/>
      <point x="-7" y="785"/>
      <point x="11" y="785" type="curve" smooth="yes"/>
      <point x="81" y="785" type="line" smooth="yes"/>
      <point x="97" y="785"/>
      <point x="103" y="776"/>
      <point x="103" y="753" type="curve" smooth="yes"/>
      <point x="103" y="637"/>
      <point x="104" y="501"/>
      <point x="104" y="436" type="curve" smooth="yes" name="hr01"/>
      <point x="104" y="290"/>
      <point x="99" y="131"/>
      <point x="97" y="72" type="curve" smooth="yes"/>
      <point x="96" y="42"/>
      <point x="89" y="34"/>
      <point x="71" y="32" type="curve" smooth="yes"/>
      <point x="21" y="27"/>
      <point x="-9" y="23"/>
      <point x="-9" y="10" type="curve" smooth="yes"/>
      <point x="-9" y="1"/>
      <point x="7" y="0"/>
      <point x="25" y="0" type="curve" smooth="yes"/>
      <point x="55" y="0"/>
      <point x="85" y="3"/>
      <point x="116" y="3" type="curve" smooth="yes"/>
      <point x="147" y="3"/>
      <point x="194" y="0"/>
      <point x="232" y="0" type="curve" smooth="yes"/>
      <point x="243" y="0"/>
      <point x="252" y="6"/>
      <point x="252" y="14" type="curve" smooth="yes"/>
      <point x="252" y="26"/>
      <point x="231" y="32"/>
      <point x="210" y="32" type="curve" smooth="yes"/>
      <point x="137" y="32" type="line"/>
      <point x="137" y="193" type="line" smooth="yes"/>
      <point x="137" y="301"/>
      <point x="198" y="399"/>
      <point x="299" y="399" type="curve" smooth="yes"/>
      <point x="387" y="399"/>
      <point x="399" y="326"/>
      <point x="403" y="288" type="curve" smooth="yes"/>
      <point x="408" y="239"/>
      <point x="409" y="151"/>
      <point x="409" y="120" type="curve" smooth="yes"/>
      <point x="409" y="88"/>
      <point x="408" y="29"/>
      <point x="406" y="0" type="curve" smooth="yes"/>
      <point x="404" y="-21"/>
      <point x="398" y="-29"/>
      <point x="371" y="-31" type="curve" smooth="yes"/>
      <point x="343" y="-33"/>
      <point x="306" y="-37"/>
      <point x="306" y="-50" type="curve" smooth="yes"/>
      <point x="306" y="-57"/>
      <point x="315" y="-61"/>
      <point x="337" y="-61" type="curve" smooth="yes"/>
      <point x="356" y="-61"/>
      <point x="395" y="-58"/>
      <point x="424" y="-58" type="curve" smooth="yes"/>
      <point x="452" y="-58"/>
      <point x="497" y="-61"/>
      <point x="518" y="-61" type="curve" smooth="yes"/>
      <point x="538" y="-61"/>
      <point x="547" y="-58"/>
      <point x="547" y="-50" type="curve" smooth="yes"/>
      <point x="547" y="-37"/>
      <point x="520" y="-32"/>
      <point x="493" y="-32" type="curve" smooth="yes"/>
      <point x="449" y="-32" type="line"/>
      <point x="449" y="176" type="line" smooth="yes"/>
      <point x="449" y="228"/>
      <point x="449" y="258"/>
    </contour>
  </outline>
</glyph>
<glyph name="j" format="1">
  <advance width="225"/>
  <unicode hex="006A"/>
  <outline>
    <contour>
      <point x="-37" y="-89" type="curve" smooth="yes"/>
      <point x="-37" y="-64"/>
      <point x="-54" y="-59"/>
      <point x="-68" y="-59" type="curve" smooth="yes"/>
      <point x="-95" y="-59"/>
      <point x="-124" y="-82"/>
      <point x="-124" y="-120" type="curve" smooth="yes"/>
      <point x="-124" y="-172"/>
      <point x="-90" y="-221"/>
      <point x="-3" y="-221" type="curve" smooth="yes"/>
      <point x="66" y="-221"/>
      <point x="137" y="-188"/>
      <point x="153" y="-44" type="curve" smooth="yes"/>
      <point x="156" y="-18"/>
      <point x="159" y="34"/>
      <point x="159" y="61" type="curve" smooth="yes"/>
      <point x="159" y="90"/>
      <point x="162" y="372"/>
      <point x="162" y="402" type="curve" smooth="yes"/>
      <point x="162" y="427"/>
      <point x="160" y="440"/>
      <point x="139" y="440" type="curve" smooth="yes"/>
      <point x="70" y="440"/>
      <point x="-18" y="439"/>
      <point x="-18" y="419" type="curve" smooth="yes"/>
      <point x="-18" y="412"/>
      <point x="-6" y="409"/>
      <point x="20" y="409" type="curve" smooth="yes"/>
      <point x="100" y="409" type="line" smooth="yes"/>
      <point x="117" y="409"/>
      <point x="125" y="404"/>
      <point x="125" y="388" type="curve" smooth="yes" name="hr01"/>
      <point x="125" y="278" type="line" smooth="yes"/>
      <point x="125" y="221"/>
      <point x="123" y="30"/>
      <point x="117" y="-40" type="curve" smooth="yes"/>
      <point x="107" y="-153"/>
      <point x="63" y="-189"/>
      <point x="-5" y="-189" type="curve" smooth="yes"/>
      <point x="-57" y="-189"/>
      <point x="-90" y="-168"/>
      <point x="-90" y="-143" type="curve" smooth="yes"/>
      <point x="-90" y="-129"/>
      <point x="-84" y="-125"/>
      <point x="-74" y="-124" type="curve" smooth="yes"/>
      <point x="-57" y="-122"/>
      <point x="-37" y="-117"/>
    </contour>
    <contour>
      <point x="88" y="578" type="curve" smooth="yes"/>
      <point x="88" y="561"/>
      <point x="99" y="538"/>
      <point x="123" y="538" type="curve" smooth="yes"/>
      <point x="140" y="538"/>
      <point x="163" y="550"/>
      <point x="163" y="582" type="curve" smooth="yes"/>
      <point x="163" y="608"/>
      <point x="147" y="621"/>
      <point x="128" y="621" type="curve" smooth="yes"/>
      <point x="103" y="621"/>
      <point x="88" y="598"/>
    </contour>
  </outline>
</glyph>
<glyph name="l" format="1">
  <advance width="237"/>
  <unicode hex="006C"/>
  <outline>
    <contour>
      <point x="142" y="785" type="curve"/>
      <point x="142" y="819"/>
      <point x="127" y="820"/>
      <point x="100" y="820" type="curve" smooth="yes"/>
      <point x="63" y="820"/>
      <point x="-30" y="818"/>
      <point x="-30" y="799" type="curve" smooth="yes"/>
      <point x="-30" y="792"/>
      <point x="-16" y="790"/>
      <point x="6" y="790" type="curve" smooth="yes"/>
      <point x="83" y="790" type="line" smooth="yes"/>
      <point x="100" y="790"/>
      <point x="102" y="783"/>
      <point x="102" y="762" type="curve" smooth="yes"/>
      <point x="102" y="680"/>
      <point x="103" y="593"/>
      <point x="103" y="413" type="curve" smooth="yes" name="hr01"/>
      <point x="103" y="232"/>
      <point x="102" y="135"/>
      <point x="98" y="55" type="curve" smooth="yes"/>
      <point x="97" y="38"/>
      <point x="77" y="27"/>
      <point x="36" y="25" type="curve" smooth="yes"/>
      <point x="13" y="24" type="line" smooth="yes"/>
      <point x="-2" y="23"/>
      <point x="-8" y="19"/>
      <point x="-8" y="11" type="curve" smooth="yes"/>
      <point x="-8" y="3"/>
      <point x="-1" y="0"/>
      <point x="25" y="0" type="curve" smooth="yes"/>
      <point x="46" y="0"/>
      <point x="89" y="2"/>
      <point x="116" y="2" type="curve" smooth="yes"/>
      <point x="150" y="2"/>
      <point x="197" y="-1"/>
      <point x="216" y="-1" type="curve" smooth="yes" name="hr02"/>
      <point x="237" y="-1"/>
      <point x="244" y="3"/>
      <point x="244" y="10" type="curve" smooth="yes"/>
      <point x="244" y="18"/>
      <point x="237" y="27"/>
      <point x="204" y="27" type="curve" smooth="yes"/>
      <point x="143" y="27" type="line"/>
      <point x="143" y="121"/>
      <point x="141" y="309"/>
      <point x="141" y="626" type="curve"/>
      <point x="141" y="628"/>
      <point x="141" y="719"/>
    </contour>
  </outline>
</glyph>
<glyph name="m" format="1">
  <advance width="807"/>
  <unicode hex="006D"/>
  <outline>
    <contour>
      <point x="723" y="282" type="line" smooth="yes"/>
      <point x="723" y="396"/>
      <point x="666" y="444"/>
      <point x="590" y="444" type="curve" smooth="yes"/>
      <point x="528" y="444"/>
      <point x="473" y="412"/>
      <point x="435" y="347" type="curve"/>
      <point x="415" y="404"/>
      <point x="372" y="434"/>
      <point x="312" y="434" type="curve" smooth="yes"/>
      <point x="247" y="434"/>
      <point x="193" y="399"/>
      <point x="169" y="341" type="curve"/>
      <point x="166" y="406" type="line" smooth="yes"/>
      <point x="165" y="423"/>
      <point x="160" y="428"/>
      <point x="149" y="428" type="curve" smooth="yes" name="hr01"/>
      <point x="66" y="428"/>
      <point x="2" y="420"/>
      <point x="2" y="407" type="curve" smooth="yes"/>
      <point x="2" y="399"/>
      <point x="26" y="395"/>
      <point x="75" y="395" type="curve" smooth="yes"/>
      <point x="108" y="395" type="line" smooth="yes"/>
      <point x="122" y="395"/>
      <point x="134" y="383"/>
      <point x="134" y="264" type="curve" smooth="yes"/>
      <point x="134" y="166"/>
      <point x="126" y="86"/>
      <point x="123" y="60" type="curve" smooth="yes"/>
      <point x="119" y="21"/>
      <point x="117" y="31"/>
      <point x="55" y="26" type="curve" smooth="yes"/>
      <point x="37" y="25"/>
      <point x="29" y="21"/>
      <point x="29" y="15" type="curve" smooth="yes"/>
      <point x="29" y="8"/>
      <point x="38" y="2"/>
      <point x="49" y="2" type="curve" smooth="yes"/>
      <point x="227" y="2"/>
      <point x="236" y="1"/>
      <point x="247" y="1" type="curve" smooth="yes"/>
      <point x="260" y="1"/>
      <point x="268" y="5"/>
      <point x="268" y="12" type="curve" smooth="yes"/>
      <point x="268" y="20"/>
      <point x="255" y="29"/>
      <point x="212" y="29" type="curve" smooth="yes"/>
      <point x="172" y="29" type="line"/>
      <point x="172" y="245" type="line" smooth="yes"/>
      <point x="172" y="349"/>
      <point x="237" y="404"/>
      <point x="311" y="404" type="curve" smooth="yes"/>
      <point x="380" y="404"/>
      <point x="400" y="357"/>
      <point x="404" y="265" type="curve" smooth="yes"/>
      <point x="405" y="235"/>
      <point x="405" y="204"/>
      <point x="405" y="202" type="curve"/>
      <point x="405" y="152"/>
      <point x="404" y="131"/>
      <point x="403" y="109" type="curve" smooth="yes"/>
      <point x="401" y="70"/>
      <point x="400" y="40"/>
      <point x="372" y="37" type="curve" smooth="yes"/>
      <point x="337" y="33" type="line" smooth="yes"/>
      <point x="317" y="31"/>
      <point x="308" y="27"/>
      <point x="308" y="21" type="curve" smooth="yes"/>
      <point x="308" y="12"/>
      <point x="324" y="9"/>
      <point x="355" y="9" type="curve" smooth="yes"/>
      <point x="373" y="9"/>
      <point x="499" y="10"/>
      <point x="510" y="10" type="curve" smooth="yes"/>
      <point x="522" y="10"/>
      <point x="532" y="16"/>
      <point x="532" y="23" type="curve" smooth="yes"/>
      <point x="532" y="29"/>
      <point x="526" y="35"/>
      <point x="495" y="35" type="curve" smooth="yes"/>
      <point x="444" y="35" type="line"/>
      <point x="444" y="310" type="line"/>
      <point x="469" y="364"/>
      <point x="511" y="414"/>
      <point x="588" y="414" type="curve" smooth="yes"/>
      <point x="668" y="414"/>
      <point x="685" y="359"/>
      <point x="685" y="220" type="curve" smooth="yes"/>
      <point x="685" y="145"/>
      <point x="680" y="65"/>
      <point x="678" y="41" type="curve" smooth="yes"/>
      <point x="675" y="13"/>
      <point x="668" y="11"/>
      <point x="655" y="10" type="curve" smooth="yes"/>
      <point x="591" y="5" type="line" smooth="yes"/>
      <point x="577" y="4"/>
      <point x="568" y="-2"/>
      <point x="568" y="-9" type="curve" smooth="yes"/>
      <point x="568" y="-18"/>
      <point x="580" y="-21"/>
      <point x="636" y="-21" type="curve" smooth="yes" name="hr02"/>
      <point x="668" y="-21"/>
      <point x="759" y="-20"/>
      <point x="781" y="-19" type="curve" smooth="yes"/>
      <point x="808" y="-18"/>
      <point x="821" y="-14"/>
      <point x="821" y="-6" type="curve" smooth="yes"/>
      <point x="821" y="1"/>
      <point x="814" y="6"/>
      <point x="770" y="6" type="curve" smooth="yes"/>
      <point x="723" y="6" type="line"/>
    </contour>
  </outline>
</glyph>
<glyph name="o" format="1">
  <advance width="508"/>
  <unicode hex="006F"/>
  <outline>
    <contour>
      <point x="474" y="236" type="curve" smooth="yes"/>
      <point x="474" y="363"/>
      <point x="403" y="472"/>
      <point x="264" y="472" type="curve" smooth="yes"/>
      <point x="129" y="472"/>
      <point x="33" y="369"/>
      <point x="33" y="230" type="curve" smooth="yes"/>
      <point x="33" y="88"/>
      <point x="132" y="-11"/>
      <point x="248" y="-11" type="curve" smooth="yes"/>
      <point x="354" y="-11"/>
      <point x="474" y="71"/>
    </contour>
    <contour>
      <point x="259" y="442" type="curve" smooth="yes"/>
      <point x="361" y="442"/>
      <point x="431" y="356"/>
      <point x="431" y="235" type="curve" smooth="yes"/>
      <point x="431" y="86"/>
      <point x="325" y="20"/>
      <point x="250" y="20" type="curve" smooth="yes"/>
      <point x="174" y="20"/>
      <point x="78" y="89"/>
      <point x="78" y="231" type="curve" smooth="yes"/>
      <point x="78" y="366"/>
      <point x="164" y="442"/>
    </contour>
  </outline>
</glyph>
<glyph name="p" format="1">
  <advance width="559"/>
  <unicode hex="0070"/>
  <outline>
    <contour>
      <point x="170" y="413" type="line" smooth="yes"/>
      <point x="170" y="444"/>
      <point x="164" y="449"/>
      <point x="145" y="449" type="curve" smooth="yes"/>
      <point x="62" y="449"/>
      <point x="-17" y="447"/>
      <point x="-17" y="427" type="curve" smooth="yes"/>
      <point x="-17" y="418"/>
      <point x="8" y="417"/>
      <point x="23" y="417" type="curve" smooth="yes"/>
      <point x="95" y="417" type="line" smooth="yes"/>
      <point x="123" y="417"/>
      <point x="129" y="415"/>
      <point x="129" y="375" type="curve" smooth="yes"/>
      <point x="129" y="320"/>
      <point x="133" y="259"/>
      <point x="133" y="124" type="curve" smooth="yes" name="hr01"/>
      <point x="133" y="7"/>
      <point x="130" y="-33"/>
      <point x="130" y="-86" type="curve" smooth="yes"/>
      <point x="130" y="-171"/>
      <point x="129" y="-171"/>
      <point x="68" y="-175" type="curve" smooth="yes"/>
      <point x="33" y="-177"/>
      <point x="22" y="-182"/>
      <point x="22" y="-190" type="curve" smooth="yes"/>
      <point x="22" y="-201"/>
      <point x="32" y="-202"/>
      <point x="40" y="-202" type="curve" smooth="yes"/>
      <point x="265" y="-202" type="line" smooth="yes"/>
      <point x="276" y="-202"/>
      <point x="285" y="-198"/>
      <point x="285" y="-189" type="curve" smooth="yes"/>
      <point x="285" y="-183"/>
      <point x="270" y="-174"/>
      <point x="235" y="-174" type="curve" smooth="yes"/>
      <point x="170" y="-174" type="line"/>
      <point x="170" y="68" type="line"/>
      <point x="188" y="34"/>
      <point x="230" y="-11"/>
      <point x="318" y="-11" type="curve" smooth="yes"/>
      <point x="387" y="-11"/>
      <point x="524" y="47"/>
      <point x="524" y="238" type="curve" smooth="yes"/>
      <point x="524" y="334"/>
      <point x="492" y="471"/>
      <point x="340" y="471" type="curve" smooth="yes"/>
      <point x="273" y="471"/>
      <point x="205" y="427"/>
      <point x="170" y="346" type="curve"/>
    </contour>
    <contour>
      <point x="169" y="219" type="curve" smooth="yes"/>
      <point x="169" y="367"/>
      <point x="264" y="440"/>
      <point x="336" y="440" type="curve" smooth="yes"/>
      <point x="460" y="440"/>
      <point x="480" y="317"/>
      <point x="480" y="240" type="curve" smooth="yes"/>
      <point x="480" y="63"/>
      <point x="376" y="19"/>
      <point x="315" y="19" type="curve" smooth="yes"/>
      <point x="198" y="19"/>
      <point x="169" y="113"/>
    </contour>
  </outline>
</glyph>
<glyph name="q" format="1">
  <advance width="518"/>
  <unicode hex="0071"/>
  <outline>
    <contour>
      <point x="396" y="371" type="curve"/>
      <point x="386" y="403"/>
      <point x="324" y="453"/>
      <point x="245" y="453" type="curve" smooth="yes"/>
      <point x="150" y="453"/>
      <point x="35" y="380"/>
      <point x="35" y="216" type="curve" smooth="yes"/>
      <point x="35" y="86"/>
      <point x="108" y="-11"/>
      <point x="226" y="-11" type="curve" smooth="yes"/>
      <point x="304" y="-11"/>
      <point x="358" y="31"/>
      <point x="377" y="80" type="curve"/>
      <point x="377" y="-98" type="line" smooth="yes"/>
      <point x="377" y="-145"/>
      <point x="375" y="-158"/>
      <point x="366" y="-164" type="curve" smooth="yes"/>
      <point x="357" y="-170"/>
      <point x="341" y="-173"/>
      <point x="296" y="-175" type="curve" smooth="yes"/>
      <point x="279" y="-176"/>
      <point x="262" y="-177"/>
      <point x="262" y="-189" type="curve" smooth="yes"/>
      <point x="262" y="-197"/>
      <point x="269" y="-203"/>
      <point x="285" y="-203" type="curve" smooth="yes"/>
      <point x="496" y="-203" type="line" smooth="yes"/>
      <point x="515" y="-203"/>
      <point x="523" y="-198"/>
      <point x="523" y="-191" type="curve" smooth="yes" name="hr01"/>
      <point x="523" y="-183"/>
      <point x="510" y="-174"/>
      <point x="471" y="-174" type="curve" smooth="yes"/>
      <point x="418" y="-174" type="line"/>
      <point x="418" y="-146"/>
      <point x="416" y="0"/>
      <point x="416" y="36" type="curve" smooth="yes" name="hr02"/>
      <point x="416" y="92"/>
      <point x="421" y="234"/>
      <point x="423" y="301" type="curve" smooth="yes"/>
      <point x="424" y="330"/>
      <point x="425" y="339"/>
      <point x="435" y="352" type="curve" smooth="yes"/>
      <point x="454" y="376"/>
      <point x="500" y="374"/>
      <point x="510" y="376" type="curve" smooth="yes"/>
      <point x="521" y="378"/>
      <point x="526" y="382"/>
      <point x="526" y="391" type="curve" smooth="yes"/>
      <point x="526" y="401"/>
      <point x="520" y="411"/>
      <point x="500" y="411" type="curve" smooth="yes"/>
      <point x="471" y="411"/>
      <point x="429" y="390"/>
    </contour>
    <contour>
      <point x="231" y="19" type="curve" smooth="yes"/>
      <point x="117" y="19"/>
      <point x="78" y="119"/>
      <point x="78" y="213" type="curve" smooth="yes"/>
      <point x="78" y="299"/>
      <point x="111" y="423"/>
      <point x="246" y="423" type="curve" smooth="yes"/>
      <point x="365" y="423"/>
      <point x="387" y="326"/>
      <point x="387" y="241" type="curve" smooth="yes"/>
      <point x="387" y="135"/>
      <point x="353" y="19"/>
    </contour>
  </outline>
</glyph>
<glyph name="v" format="1">
  <advance width="492"/>
  <unicode hex="0076"/>
  <outline>
    <contour>
      <point x="403" y="369" type="curve" smooth="yes"/>
      <point x="412" y="387"/>
      <point x="422" y="393"/>
      <point x="448" y="395" type="curve" smooth="yes"/>
      <point x="478" y="397"/>
      <point x="502" y="397"/>
      <point x="502" y="409" type="curve" smooth="yes"/>
      <point x="502" y="421"/>
      <point x="480" y="423"/>
      <point x="373" y="423" type="curve" smooth="yes"/>
      <point x="298" y="423"/>
      <point x="278" y="422"/>
      <point x="278" y="410" type="curve" smooth="yes"/>
      <point x="278" y="403"/>
      <point x="286" y="398"/>
      <point x="299" y="398" type="curve" smooth="yes"/>
      <point x="344" y="398"/>
      <point x="357" y="396"/>
      <point x="357" y="382" type="curve" smooth="yes"/>
      <point x="357" y="365"/>
      <point x="337" y="313"/>
      <point x="248" y="61" type="curve"/>
      <point x="133" y="401"/>
      <point x="133" y="403"/>
      <point x="133" y="415" type="curve" smooth="yes"/>
      <point x="133" y="423"/>
      <point x="141" y="427"/>
      <point x="161" y="428" type="curve" smooth="yes"/>
      <point x="181" y="429"/>
      <point x="197" y="431"/>
      <point x="197" y="442" type="curve" smooth="yes"/>
      <point x="197" y="450"/>
      <point x="185" y="454"/>
      <point x="164" y="454" type="curve" smooth="yes"/>
      <point x="154" y="454"/>
      <point x="20" y="453"/>
      <point x="8" y="453" type="curve" smooth="yes" name="hr01"/>
      <point x="-10" y="453"/>
      <point x="-18" y="450"/>
      <point x="-18" y="443" type="curve" smooth="yes"/>
      <point x="-18" y="435"/>
      <point x="-10" y="432"/>
      <point x="10" y="431" type="curve" smooth="yes"/>
      <point x="48" y="429"/>
      <point x="82" y="427"/>
      <point x="96" y="390" type="curve" smooth="yes"/>
      <point x="151" y="245"/>
      <point x="158" y="205"/>
      <point x="224" y="9" type="curve" smooth="yes"/>
      <point x="229" y="-6"/>
      <point x="236" y="-14"/>
      <point x="246" y="-14" type="curve" smooth="yes"/>
      <point x="256" y="-14"/>
      <point x="263" y="-4"/>
      <point x="269" y="12" type="curve" smooth="yes"/>
      <point x="279" y="38"/>
      <point x="369" y="306"/>
    </contour>
  </outline>
</glyph>
<glyph name="w" format="1">
  <advance width="748"/>
  <unicode hex="0077"/>
  <outline>
    <contour>
      <point x="501" y="50" type="curve"/>
      <point x="410" y="373"/>
      <point x="403" y="399"/>
      <point x="397" y="413" type="curve" smooth="yes"/>
      <point x="390" y="429"/>
      <point x="383" y="433"/>
      <point x="374" y="433" type="curve" smooth="yes"/>
      <point x="363" y="433"/>
      <point x="354" y="428"/>
      <point x="347" y="413" type="curve" smooth="yes"/>
      <point x="337" y="390"/>
      <point x="321" y="334"/>
      <point x="246" y="78" type="curve"/>
      <point x="146" y="347"/>
      <point x="128" y="414"/>
      <point x="128" y="428" type="curve" smooth="yes"/>
      <point x="128" y="434"/>
      <point x="133" y="438"/>
      <point x="142" y="438" type="curve" smooth="yes"/>
      <point x="180" y="438" type="line" smooth="yes"/>
      <point x="204" y="438"/>
      <point x="217" y="443"/>
      <point x="217" y="453" type="curve" smooth="yes"/>
      <point x="217" y="462"/>
      <point x="204" y="465"/>
      <point x="165" y="465" type="curve" smooth="yes"/>
      <point x="41" y="465" type="line" smooth="yes"/>
      <point x="-1" y="465"/>
      <point x="-14" y="462"/>
      <point x="-14" y="453" type="curve" smooth="yes"/>
      <point x="-14" y="444"/>
      <point x="0" y="438"/>
      <point x="37" y="438" type="curve" smooth="yes"/>
      <point x="68" y="438"/>
      <point x="76" y="431"/>
      <point x="85" y="408" type="curve" smooth="yes"/>
      <point x="222" y="32" type="line" smooth="yes"/>
      <point x="228" y="15"/>
      <point x="238" y="8"/>
      <point x="246" y="8" type="curve" smooth="yes"/>
      <point x="254" y="8"/>
      <point x="263" y="14"/>
      <point x="267" y="29" type="curve" smooth="yes"/>
      <point x="371" y="375" type="line"/>
      <point x="474" y="3" type="line" smooth="yes"/>
      <point x="478" y="-10"/>
      <point x="486" y="-17"/>
      <point x="495" y="-17" type="curve" smooth="yes"/>
      <point x="506" y="-17"/>
      <point x="517" y="-9"/>
      <point x="527" y="15" type="curve" smooth="yes"/>
      <point x="666" y="361"/>
      <point x="669" y="372"/>
      <point x="681" y="381" type="curve" smooth="yes"/>
      <point x="690" y="387"/>
      <point x="694" y="390"/>
      <point x="724" y="390" type="curve" smooth="yes"/>
      <point x="750" y="390"/>
      <point x="759" y="394"/>
      <point x="759" y="404" type="curve" smooth="yes"/>
      <point x="759" y="415"/>
      <point x="747" y="417"/>
      <point x="676" y="417" type="curve" smooth="yes"/>
      <point x="573" y="417"/>
      <point x="537" y="413"/>
      <point x="537" y="401" type="curve" smooth="yes"/>
      <point x="537" y="395"/>
      <point x="547" y="390"/>
      <point x="561" y="390" type="curve" smooth="yes"/>
      <point x="596" y="390" type="line" smooth="yes"/>
      <point x="611" y="390"/>
      <point x="618" y="385"/>
      <point x="618" y="373" type="curve" smooth="yes"/>
      <point x="618" y="353"/>
      <point x="604" y="296"/>
    </contour>
  </outline>
</glyph>
<glyph name="x" format="1">
  <advance width="550"/>
  <unicode hex="0078"/>
  <outline>
    <contour>
      <point x="364" y="-3" type="curve" smooth="yes"/>
      <point x="325" y="-7"/>
      <point x="318" y="-12"/>
      <point x="318" y="-20" type="curve" smooth="yes"/>
      <point x="318" y="-27"/>
      <point x="330" y="-28"/>
      <point x="365" y="-28" type="curve" smooth="yes"/>
      <point x="388" y="-28"/>
      <point x="405" y="-27"/>
      <point x="428" y="-27" type="curve" smooth="yes" name="hr01"/>
      <point x="459" y="-27"/>
      <point x="478" y="-28"/>
      <point x="511" y="-28" type="curve" smooth="yes" name="hr02"/>
      <point x="531" y="-28"/>
      <point x="544" y="-25"/>
      <point x="544" y="-19" type="curve" smooth="yes"/>
      <point x="544" y="-11"/>
      <point x="536" y="-8"/>
      <point x="515" y="-7" type="curve" smooth="yes"/>
      <point x="491" y="-6"/>
      <point x="477" y="-5"/>
      <point x="456" y="2" type="curve" smooth="yes"/>
      <point x="441" y="7"/>
      <point x="396" y="64"/>
      <point x="293" y="208" type="curve"/>
      <point x="321" y="246"/>
      <point x="363" y="309"/>
      <point x="396" y="348" type="curve" smooth="yes"/>
      <point x="408" y="362"/>
      <point x="419" y="370"/>
      <point x="430" y="374" type="curve" smooth="yes"/>
      <point x="445" y="380"/>
      <point x="452" y="381"/>
      <point x="508" y="381" type="curve" smooth="yes"/>
      <point x="521" y="381"/>
      <point x="530" y="386"/>
      <point x="530" y="394" type="curve" smooth="yes"/>
      <point x="530" y="401"/>
      <point x="521" y="406"/>
      <point x="507" y="406" type="curve" smooth="yes"/>
      <point x="347" y="406" type="line" smooth="yes"/>
      <point x="300" y="406"/>
      <point x="288" y="404"/>
      <point x="288" y="396" type="curve" smooth="yes"/>
      <point x="288" y="386"/>
      <point x="298" y="383"/>
      <point x="324" y="382" type="curve" smooth="yes"/>
      <point x="354" y="381"/>
      <point x="359" y="380"/>
      <point x="359" y="371" type="curve" smooth="yes"/>
      <point x="359" y="363"/>
      <point x="347" y="347"/>
      <point x="332" y="327" type="curve" smooth="yes"/>
      <point x="270" y="239" type="line"/>
      <point x="228" y="295"/>
      <point x="162" y="390"/>
      <point x="162" y="398" type="curve" smooth="yes"/>
      <point x="162" y="407"/>
      <point x="170" y="407"/>
      <point x="209" y="407" type="curve" smooth="yes"/>
      <point x="227" y="407"/>
      <point x="241" y="415"/>
      <point x="242" y="424" type="curve"/>
      <point x="242" y="433"/>
      <point x="229" y="436"/>
      <point x="170" y="436" type="curve" smooth="yes"/>
      <point x="79" y="436" type="line" smooth="yes"/>
      <point x="17" y="436"/>
      <point x="-2" y="434"/>
      <point x="-2" y="424" type="curve" smooth="yes"/>
      <point x="-2" y="415"/>
      <point x="7" y="410"/>
      <point x="36" y="409" type="curve" smooth="yes"/>
      <point x="80" y="407"/>
      <point x="105" y="406"/>
      <point x="128" y="373" type="curve" smooth="yes"/>
      <point x="246" y="207" type="line"/>
      <point x="222" y="175"/>
      <point x="198" y="138"/>
      <point x="132" y="53" type="curve" smooth="yes"/>
      <point x="121" y="39"/>
      <point x="102" y="33"/>
      <point x="68" y="29" type="curve" smooth="yes"/>
      <point x="40" y="26"/>
      <point x="27" y="21"/>
      <point x="27" y="13" type="curve" smooth="yes"/>
      <point x="27" y="5"/>
      <point x="34" y="1"/>
      <point x="49" y="1" type="curve" smooth="yes"/>
      <point x="68" y="1"/>
      <point x="98" y="2"/>
      <point x="127" y="2" type="curve" smooth="yes"/>
      <point x="160" y="2"/>
      <point x="198" y="0"/>
      <point x="230" y="0" type="curve" smooth="yes" name="hr03"/>
      <point x="247" y="0"/>
      <point x="253" y="3"/>
      <point x="253" y="13" type="curve" smooth="yes"/>
      <point x="253" y="22"/>
      <point x="246" y="25"/>
      <point x="196" y="25" type="curve" smooth="yes" name="hr04"/>
      <point x="179" y="25"/>
      <point x="172" y="28"/>
      <point x="172" y="35" type="curve" smooth="yes"/>
      <point x="172" y="40"/>
      <point x="175" y="47"/>
      <point x="181" y="55" type="curve" smooth="yes"/>
      <point x="215" y="101"/>
      <point x="245" y="145"/>
      <point x="270" y="175" type="curve"/>
      <point x="342" y="77"/>
      <point x="381" y="23"/>
      <point x="381" y="11" type="curve" smooth="yes"/>
      <point x="381" y="-1"/>
      <point x="373" y="-2"/>
    </contour>
  </outline>
</glyph>
<glyph name="z" format="1">
  <advance width="439"/>
  <unicode hex="007A"/>
  <outline>
    <contour>
      <point x="329" y="406" type="line" smooth="yes"/>
      <point x="335" y="406"/>
      <point x="338" y="404"/>
      <point x="338" y="398" type="curve" smooth="yes"/>
      <point x="338" y="382"/>
      <point x="26" y="54"/>
      <point x="26" y="13" type="curve" smooth="yes"/>
      <point x="26" y="3"/>
      <point x="31" y="-2"/>
      <point x="44" y="-2" type="curve" smooth="yes"/>
      <point x="65" y="-2"/>
      <point x="144" y="1"/>
      <point x="202" y="1" type="curve" smooth="yes" name="hr01"/>
      <point x="260" y="1"/>
      <point x="284" y="-1"/>
      <point x="378" y="-1" type="curve" smooth="yes" name="hr02"/>
      <point x="386" y="-1"/>
      <point x="392" y="7"/>
      <point x="392" y="18" type="curve" smooth="yes"/>
      <point x="392" y="35"/>
      <point x="393" y="71"/>
      <point x="394" y="85" type="curve" smooth="yes"/>
      <point x="400" y="181" type="line"/>
      <point x="400" y="191"/>
      <point x="395" y="196"/>
      <point x="387" y="196" type="curve" smooth="yes"/>
      <point x="375" y="196"/>
      <point x="371" y="185"/>
      <point x="369" y="151" type="curve" smooth="yes"/>
      <point x="362" y="48" type="line" smooth="yes"/>
      <point x="361" y="36"/>
      <point x="358" y="29"/>
      <point x="353" y="29" type="curve" smooth="yes" name="hr03"/>
      <point x="108" y="29" type="line" smooth="yes"/>
      <point x="96" y="29"/>
      <point x="91" y="31"/>
      <point x="91" y="36" type="curve" smooth="yes"/>
      <point x="91" y="65"/>
      <point x="394" y="377"/>
      <point x="394" y="419" type="curve" smooth="yes"/>
      <point x="394" y="428"/>
      <point x="385" y="436"/>
      <point x="363" y="436" type="curve" smooth="yes"/>
      <point x="321" y="436"/>
      <point x="262" y="434"/>
      <point x="219" y="434" type="curve" smooth="yes"/>
      <point x="155" y="434"/>
      <point x="138" y="434"/>
      <point x="74" y="436" type="curve"/>
      <point x="57" y="436"/>
      <point x="51" y="428"/>
      <point x="51" y="405" type="curve" smooth="yes"/>
      <point x="51" y="298" type="line" smooth="yes"/>
      <point x="51" y="273"/>
      <point x="54" y="267"/>
      <point x="66" y="267" type="curve" smooth="yes"/>
      <point x="78" y="267"/>
      <point x="84" y="283"/>
      <point x="85" y="322" type="curve" smooth="yes"/>
      <point x="88" y="406" type="line"/>
    </contour>
  </outline>
</glyph>
<glyph name="braceleft" format="1">
  <advance width="313"/>
  <unicode hex="007B"/>
  <outline>
    <contour>
      <point x="167" y="201" type="line"/>
      <point x="167" y="201"/>
      <point x="166" y="374"/>
      <point x="55" y="374" type="curve"/>
      <point x="166" y="374"/>
      <point x="167" y="579"/>
      <point x="167" y="579" type="curve"/>
      <point x="167" y="753" type="line" smooth="yes"/>
      <point x="167" y="762"/>
      <point x="167" y="804"/>
      <point x="220" y="808" type="curve" smooth="yes"/>
      <point x="286" y="814" type="line" smooth="yes"/>
      <point x="301" y="815"/>
      <point x="304" y="823"/>
      <point x="304" y="826" type="curve" smooth="yes" name="hr01"/>
      <point x="304" y="836"/>
      <point x="296" y="838"/>
      <point x="285" y="838" type="curve" smooth="yes"/>
      <point x="265" y="838"/>
      <point x="219" y="835"/>
      <point x="204" y="835" type="curve" smooth="yes" name="hr02"/>
      <point x="126" y="835"/>
      <point x="124" y="763"/>
      <point x="124" y="747" type="curve" smooth="yes"/>
      <point x="124" y="670"/>
      <point x="125" y="615"/>
      <point x="125" y="580" type="curve" smooth="yes"/>
      <point x="125" y="400"/>
      <point x="59" y="400"/>
      <point x="44" y="400" type="curve" smooth="yes"/>
      <point x="19" y="400"/>
      <point x="2" y="392"/>
      <point x="2" y="374" type="curve" smooth="yes"/>
      <point x="2" y="356"/>
      <point x="15" y="348"/>
      <point x="38" y="348" type="curve" smooth="yes" name="hr03"/>
      <point x="53" y="348"/>
      <point x="127" y="339"/>
      <point x="127" y="200" type="curve" smooth="yes"/>
      <point x="127" y="32" type="line" smooth="yes"/>
      <point x="127" y="-47"/>
      <point x="153" y="-58"/>
      <point x="195" y="-58" type="curve" smooth="yes"/>
      <point x="226" y="-58" type="line" smooth="yes"/>
      <point x="247" y="-58"/>
      <point x="302" y="-56"/>
      <point x="302" y="-43" type="curve" smooth="yes"/>
      <point x="302" y="-29"/>
      <point x="242" y="-27"/>
      <point x="238" y="-27" type="curve" smooth="yes"/>
      <point x="179" y="-27"/>
      <point x="167" y="-27"/>
      <point x="167" y="27" type="curve" smooth="yes"/>
    </contour>
  </outline>
</glyph>
<glyph name="bar" format="1">
  <advance width="221"/>
  <unicode hex="007C"/>
  <outline>
    <contour>
      <point x="131" y="802" type="curve" smooth="yes"/>
      <point x="131" y="818"/>
      <point x="126" y="840"/>
      <point x="112" y="840" type="curve" smooth="yes"/>
      <point x="106" y="840"/>
      <point x="91" y="836"/>
      <point x="91" y="818" type="curve"/>
      <point x="92" y="671"/>
      <point x="92" y="494"/>
      <point x="92" y="348" type="curve" smooth="yes"/>
      <point x="92" y="201"/>
      <point x="91" y="15"/>
      <point x="91" y="-131" type="curve" smooth="yes"/>
      <point x="91" y="-139"/>
      <point x="100" y="-145"/>
      <point x="111" y="-145" type="curve" smooth="yes"/>
      <point x="124" y="-145"/>
      <point x="131" y="-141"/>
      <point x="131" y="-128" type="curve"/>
      <point x="129" y="15"/>
      <point x="129" y="199"/>
      <point x="129" y="342" type="curve" smooth="yes"/>
      <point x="129" y="485"/>
      <point x="131" y="658"/>
    </contour>
  </outline>
</glyph>
<glyph name="exclamdown" format="1">
  <advance width="221"/>
  <unicode hex="00A1"/>
  <outline>
    <contour>
      <point x="97" y="496" type="curve" smooth="yes"/>
      <point x="94" y="467"/>
      <point x="87" y="-33"/>
      <point x="87" y="-172" type="curve" smooth="yes"/>
      <point x="87" y="-198"/>
      <point x="91" y="-203"/>
      <point x="107" y="-203" type="curve" smooth="yes"/>
      <point x="119" y="-203"/>
      <point x="129" y="-203"/>
      <point x="129" y="-172" type="curve" smooth="yes"/>
      <point x="129" y="451" type="line" smooth="yes"/>
      <point x="129" y="498"/>
      <point x="126" y="522"/>
      <point x="112" y="522" type="curve" smooth="yes"/>
      <point x="105" y="522"/>
      <point x="99" y="518"/>
    </contour>
    <contour>
      <point x="150" y="628" type="curve" smooth="yes" name="hr01"/>
      <point x="150" y="650"/>
      <point x="130" y="661"/>
      <point x="114" y="661" type="curve" smooth="yes"/>
      <point x="97" y="661"/>
      <point x="79" y="651"/>
      <point x="79" y="627" type="curve" smooth="yes"/>
      <point x="79" y="602"/>
      <point x="98" y="592"/>
      <point x="117" y="592" type="curve" smooth="yes"/>
      <point x="136" y="592"/>
      <point x="150" y="608"/>
    </contour>
  </outline>
</glyph>
<glyph name="cent" format="1">
  <advance width="475"/>
  <unicode hex="00A2"/>
  <outline>
    <contour>
      <point x="276" y="768" type="curve" smooth="yes"/>
      <point x="276" y="784"/>
      <point x="272" y="806"/>
      <point x="258" y="806" type="curve" smooth="yes"/>
      <point x="252" y="806"/>
      <point x="238" y="802"/>
      <point x="238" y="784" type="curve" smooth="yes"/>
      <point x="238" y="732"/>
      <point x="239" y="686"/>
      <point x="239" y="642" type="curve"/>
      <point x="122" y="626"/>
      <point x="39" y="520"/>
      <point x="39" y="389" type="curve" smooth="yes"/>
      <point x="39" y="263"/>
      <point x="124" y="162"/>
      <point x="238" y="160" type="curve"/>
      <point x="238" y="59" type="line" smooth="yes"/>
      <point x="238" y="40"/>
      <point x="246" y="31"/>
      <point x="257" y="31" type="curve" smooth="yes"/>
      <point x="270" y="31"/>
      <point x="276" y="39"/>
      <point x="276" y="65" type="curve" smooth="yes"/>
      <point x="276" y="105"/>
      <point x="276" y="135"/>
      <point x="275" y="163" type="curve"/>
      <point x="318" y="171"/>
      <point x="359" y="193"/>
      <point x="394" y="224" type="curve"/>
      <point x="408" y="235"/>
      <point x="422" y="251"/>
      <point x="433" y="268" type="curve" smooth="yes"/>
      <point x="439" y="277"/>
      <point x="443" y="286"/>
      <point x="443" y="291" type="curve" smooth="yes"/>
      <point x="443" y="297"/>
      <point x="438" y="302"/>
      <point x="431" y="302" type="curve" smooth="yes"/>
      <point x="426" y="302"/>
      <point x="421" y="299"/>
      <point x="417" y="293" type="curve" smooth="yes"/>
      <point x="402" y="273"/>
      <point x="389" y="257"/>
      <point x="382" y="250" type="curve" smooth="yes"/>
      <point x="349" y="216"/>
      <point x="316" y="196"/>
      <point x="275" y="191" type="curve"/>
      <point x="274" y="247"/>
      <point x="272" y="293"/>
      <point x="272" y="382" type="curve" smooth="yes"/>
      <point x="272" y="470"/>
      <point x="274" y="541"/>
      <point x="275" y="617" type="curve"/>
      <point x="326" y="615"/>
      <point x="372" y="592"/>
      <point x="372" y="566" type="curve" smooth="yes"/>
      <point x="372" y="543"/>
      <point x="338" y="546"/>
      <point x="338" y="514" type="curve" smooth="yes" name="hr01"/>
      <point x="338" y="493"/>
      <point x="353" y="478"/>
      <point x="375" y="478" type="curve" smooth="yes"/>
      <point x="400" y="478"/>
      <point x="418" y="501"/>
      <point x="418" y="533" type="curve" smooth="yes"/>
      <point x="418" y="594"/>
      <point x="356" y="642"/>
      <point x="275" y="644" type="curve"/>
      <point x="276" y="683"/>
      <point x="276" y="723"/>
    </contour>
    <contour>
      <point x="90" y="391" type="curve" smooth="yes"/>
      <point x="90" y="509"/>
      <point x="149" y="599"/>
      <point x="239" y="614" type="curve"/>
      <point x="239" y="388" type="line" smooth="yes"/>
      <point x="239" y="297"/>
      <point x="239" y="248"/>
      <point x="238" y="190" type="curve"/>
      <point x="145" y="197"/>
      <point x="90" y="274"/>
    </contour>
  </outline>
</glyph>
<glyph name="sterling" format="1">
  <advance width="590"/>
  <unicode hex="00A3"/>
  <outline>
    <contour>
      <point x="201" y="577" type="line" smooth="yes"/>
      <point x="201" y="712"/>
      <point x="240" y="808"/>
      <point x="344" y="808" type="curve" smooth="yes"/>
      <point x="423" y="808"/>
      <point x="452" y="742"/>
      <point x="452" y="653" type="curve" smooth="yes"/>
      <point x="452" y="636"/>
      <point x="458" y="618"/>
      <point x="469" y="618" type="curve" smooth="yes"/>
      <point x="479" y="618"/>
      <point x="486" y="627"/>
      <point x="486" y="639" type="curve" smooth="yes"/>
      <point x="486" y="664"/>
      <point x="484" y="690"/>
      <point x="484" y="715" type="curve" smooth="yes"/>
      <point x="484" y="744"/>
      <point x="487" y="780"/>
      <point x="487" y="809" type="curve" smooth="yes"/>
      <point x="487" y="815"/>
      <point x="484" y="823"/>
      <point x="472" y="823" type="curve" smooth="yes"/>
      <point x="462" y="823"/>
      <point x="456" y="817"/>
      <point x="456" y="808" type="curve"/>
      <point x="456" y="807"/>
      <point x="456" y="806"/>
      <point x="459" y="756" type="curve"/>
      <point x="447" y="790"/>
      <point x="410" y="838"/>
      <point x="343" y="838" type="curve" smooth="yes"/>
      <point x="212" y="838"/>
      <point x="158" y="733"/>
      <point x="158" y="577" type="curve" smooth="yes"/>
      <point x="158" y="533"/>
      <point x="162" y="483"/>
      <point x="162" y="418" type="curve"/>
      <point x="126" y="418"/>
      <point x="66" y="420"/>
      <point x="48" y="420" type="curve" smooth="yes"/>
      <point x="37" y="420"/>
      <point x="32" y="411"/>
      <point x="32" y="404" type="curve" smooth="yes"/>
      <point x="32" y="397"/>
      <point x="39" y="387"/>
      <point x="48" y="387" type="curve" smooth="yes"/>
      <point x="162" y="387" type="line"/>
      <point x="161" y="281"/>
      <point x="158" y="223"/>
      <point x="158" y="193" type="curve" smooth="yes"/>
      <point x="158" y="48"/>
      <point x="109" y="28"/>
      <point x="66" y="28" type="curve" smooth="yes"/>
      <point x="44" y="28"/>
      <point x="31" y="22"/>
      <point x="31" y="11" type="curve" smooth="yes"/>
      <point x="31" y="4"/>
      <point x="33" y="0"/>
      <point x="55" y="0" type="curve" smooth="yes"/>
      <point x="513" y="0" type="line" smooth="yes"/>
      <point x="533" y="0"/>
      <point x="544" y="7"/>
      <point x="546" y="29" type="curve" smooth="yes"/>
      <point x="551" y="99"/>
      <point x="557" y="151"/>
      <point x="557" y="200" type="curve" smooth="yes"/>
      <point x="557" y="214"/>
      <point x="545" y="220"/>
      <point x="538" y="220" type="curve" smooth="yes"/>
      <point x="522" y="220"/>
      <point x="520" y="200"/>
      <point x="520" y="170" type="curve" smooth="yes"/>
      <point x="520" y="144"/>
      <point x="514" y="82"/>
      <point x="512" y="67" type="curve" smooth="yes"/>
      <point x="509" y="44"/>
      <point x="494" y="36"/>
      <point x="472" y="36" type="curve" smooth="yes"/>
      <point x="156" y="36" type="line"/>
      <point x="156" y="36"/>
      <point x="201" y="77"/>
      <point x="201" y="178" type="curve" smooth="yes"/>
      <point x="201" y="387" type="line"/>
      <point x="245" y="387"/>
      <point x="286" y="388"/>
      <point x="309" y="388" type="curve" smooth="yes"/>
      <point x="324" y="388"/>
      <point x="328" y="401"/>
      <point x="328" y="407" type="curve" smooth="yes"/>
      <point x="328" y="414"/>
      <point x="322" y="421"/>
      <point x="317" y="421" type="curve" smooth="yes"/>
      <point x="291" y="421"/>
      <point x="246" y="419"/>
      <point x="201" y="418" type="curve"/>
    </contour>
  </outline>
</glyph>
<glyph name="currency" format="1">
  <advance width="527"/>
  <unicode hex="00A4"/>
  <outline>
    <contour>
      <point x="427" y="383" type="curve" smooth="yes"/>
      <point x="427" y="420"/>
      <point x="417" y="456"/>
      <point x="399" y="485" type="curve"/>
      <point x="424" y="508"/>
      <point x="462" y="543"/>
      <point x="462" y="562" type="curve" smooth="yes" name="hr01"/>
      <point x="462" y="572"/>
      <point x="450" y="577"/>
      <point x="443" y="577" type="curve" smooth="yes"/>
      <point x="435" y="577"/>
      <point x="432" y="575"/>
      <point x="375" y="517" type="curve"/>
      <point x="348" y="544"/>
      <point x="311" y="561"/>
      <point x="269" y="561" type="curve" smooth="yes" name="hr02"/>
      <point x="226" y="561"/>
      <point x="185" y="544"/>
      <point x="154" y="516" type="curve"/>
      <point x="116" y="555"/>
      <point x="94" y="577"/>
      <point x="87" y="577" type="curve" smooth="yes" name="hr03"/>
      <point x="77" y="577"/>
      <point x="66" y="569"/>
      <point x="66" y="558" type="curve" smooth="yes"/>
      <point x="66" y="548"/>
      <point x="94" y="519"/>
      <point x="128" y="485" type="curve"/>
      <point x="107" y="456"/>
      <point x="95" y="419"/>
      <point x="95" y="378" type="curve" smooth="yes" name="hr04"/>
      <point x="95" y="335"/>
      <point x="106" y="297"/>
      <point x="126" y="268" type="curve"/>
      <point x="93" y="235"/>
      <point x="66" y="206"/>
      <point x="66" y="197" type="curve" smooth="yes" name="hr05"/>
      <point x="66" y="186"/>
      <point x="77" y="178"/>
      <point x="87" y="178" type="curve" smooth="yes" name="hr06"/>
      <point x="94" y="178"/>
      <point x="116" y="199"/>
      <point x="153" y="237" type="curve"/>
      <point x="181" y="211"/>
      <point x="218" y="197"/>
      <point x="257" y="197" type="curve" smooth="yes" name="hr07"/>
      <point x="291" y="197"/>
      <point x="334" y="212"/>
      <point x="368" y="244" type="curve"/>
      <point x="431" y="181"/>
      <point x="432" y="178"/>
      <point x="443" y="178" type="curve" smooth="yes" name="hr08"/>
      <point x="450" y="178"/>
      <point x="462" y="183"/>
      <point x="462" y="193" type="curve" smooth="yes"/>
      <point x="462" y="210"/>
      <point x="419" y="251"/>
      <point x="394" y="274" type="curve"/>
      <point x="414" y="302"/>
      <point x="427" y="339"/>
    </contour>
    <contour>
      <point x="265" y="532" type="curve" smooth="yes"/>
      <point x="332" y="532"/>
      <point x="383" y="473"/>
      <point x="383" y="382" type="curve" smooth="yes"/>
      <point x="383" y="270"/>
      <point x="305" y="227"/>
      <point x="258" y="227" type="curve" smooth="yes"/>
      <point x="201" y="227"/>
      <point x="139" y="272"/>
      <point x="139" y="379" type="curve" smooth="yes"/>
      <point x="139" y="481"/>
      <point x="203" y="532"/>
    </contour>
  </outline>
</glyph>
<glyph name="yen" format="1">
  <advance width="765"/>
  <unicode hex="00A5"/>
  <outline>
    <contour>
      <point x="515" y="285" type="curve" smooth="yes"/>
      <point x="488" y="285"/>
      <point x="439" y="282"/>
      <point x="392" y="282" type="curve"/>
      <point x="391" y="313"/>
      <point x="391" y="334"/>
      <point x="391" y="334" type="curve"/>
      <point x="412" y="381" type="line"/>
      <point x="451" y="381"/>
      <point x="487" y="382"/>
      <point x="507" y="382" type="curve" smooth="yes"/>
      <point x="522" y="382"/>
      <point x="526" y="394"/>
      <point x="526" y="400" type="curve" smooth="yes"/>
      <point x="526" y="407"/>
      <point x="520" y="413"/>
      <point x="515" y="413" type="curve" smooth="yes"/>
      <point x="494" y="413"/>
      <point x="462" y="411"/>
      <point x="427" y="410" type="curve"/>
      <point x="472" y="503"/>
      <point x="535" y="624"/>
      <point x="580" y="708" type="curve" smooth="yes"/>
      <point x="592" y="731"/>
      <point x="600" y="743"/>
      <point x="629" y="746" type="curve" smooth="yes"/>
      <point x="639" y="747"/>
      <point x="692" y="751"/>
      <point x="720" y="752" type="curve"/>
      <point x="733" y="752"/>
      <point x="740" y="757"/>
      <point x="740" y="763" type="curve" smooth="yes"/>
      <point x="740" y="773"/>
      <point x="729" y="777"/>
      <point x="717" y="777" type="curve" smooth="yes"/>
      <point x="472" y="777" type="line" smooth="yes"/>
      <point x="446" y="777"/>
      <point x="438" y="769"/>
      <point x="438" y="762" type="curve" smooth="yes"/>
      <point x="438" y="748"/>
      <point x="459" y="748"/>
      <point x="472" y="748" type="curve"/>
      <point x="502" y="747"/>
      <point x="543" y="750"/>
      <point x="543" y="732" type="curve" smooth="yes"/>
      <point x="543" y="698"/>
      <point x="402" y="454"/>
      <point x="377" y="395" type="curve"/>
      <point x="352" y="458"/>
      <point x="208" y="740"/>
      <point x="208" y="763" type="curve" smooth="yes"/>
      <point x="208" y="796"/>
      <point x="304" y="774"/>
      <point x="304" y="799" type="curve" smooth="yes"/>
      <point x="304" y="809"/>
      <point x="297" y="813"/>
      <point x="273" y="813" type="curve" smooth="yes"/>
      <point x="55" y="813" type="line" smooth="yes"/>
      <point x="32" y="813"/>
      <point x="20" y="810"/>
      <point x="20" y="799" type="curve" smooth="yes"/>
      <point x="20" y="787"/>
      <point x="37" y="787"/>
      <point x="56" y="787" type="curve" smooth="yes"/>
      <point x="119" y="787"/>
      <point x="145" y="780"/>
      <point x="159" y="755" type="curve" smooth="yes"/>
      <point x="241" y="605"/>
      <point x="261" y="559"/>
      <point x="327" y="410" type="curve"/>
      <point x="295" y="410"/>
      <point x="259" y="412"/>
      <point x="246" y="412" type="curve" smooth="yes"/>
      <point x="235" y="412"/>
      <point x="230" y="404"/>
      <point x="230" y="397" type="curve" smooth="yes"/>
      <point x="230" y="390"/>
      <point x="237" y="381"/>
      <point x="246" y="381" type="curve" smooth="yes"/>
      <point x="340" y="381" type="line"/>
      <point x="352" y="355" type="line"/>
      <point x="352" y="282" type="line"/>
      <point x="316" y="282"/>
      <point x="262" y="284"/>
      <point x="246" y="284" type="curve" smooth="yes"/>
      <point x="235" y="284"/>
      <point x="230" y="276"/>
      <point x="230" y="269" type="curve" smooth="yes"/>
      <point x="230" y="262"/>
      <point x="237" y="253"/>
      <point x="246" y="253" type="curve" smooth="yes"/>
      <point x="352" y="253" type="line"/>
      <point x="352" y="74" type="line" smooth="yes"/>
      <point x="352" y="28"/>
      <point x="306" y="28"/>
      <point x="279" y="28" type="curve" smooth="yes"/>
      <point x="267" y="28"/>
      <point x="250" y="25"/>
      <point x="250" y="13" type="curve" smooth="yes"/>
      <point x="250" y="2"/>
      <point x="273" y="0"/>
      <point x="291" y="0" type="curve" smooth="yes"/>
      <point x="500" y="0" type="line" smooth="yes"/>
      <point x="513" y="0"/>
      <point x="520" y="5"/>
      <point x="520" y="13" type="curve" smooth="yes"/>
      <point x="520" y="24"/>
      <point x="505" y="31"/>
      <point x="490" y="31" type="curve" smooth="yes"/>
      <point x="394" y="31" type="line"/>
      <point x="394" y="100"/>
      <point x="393" y="190"/>
      <point x="392" y="253" type="curve"/>
      <point x="439" y="253"/>
      <point x="483" y="254"/>
      <point x="507" y="254" type="curve" smooth="yes"/>
      <point x="522" y="254"/>
      <point x="526" y="266"/>
      <point x="526" y="272" type="curve" smooth="yes"/>
      <point x="526" y="279"/>
      <point x="520" y="285"/>
    </contour>
  </outline>
</glyph>
<glyph name="brokenbar" format="1">
  <advance width="221"/>
  <unicode hex="00A6"/>
  <outline>
    <contour>
      <point x="131" y="817" type="curve" smooth="yes"/>
      <point x="131" y="825"/>
      <point x="124" y="840"/>
      <point x="111" y="840" type="curve" smooth="yes"/>
      <point x="105" y="840"/>
      <point x="91" y="831"/>
      <point x="91" y="823" type="curve"/>
      <point x="92" y="754"/>
      <point x="92" y="679"/>
      <point x="92" y="610" type="curve" smooth="yes"/>
      <point x="92" y="542"/>
      <point x="91" y="468"/>
      <point x="91" y="400" type="curve" smooth="yes"/>
      <point x="91" y="385"/>
      <point x="100" y="380"/>
      <point x="110" y="380" type="curve" smooth="yes"/>
      <point x="122" y="380"/>
      <point x="131" y="387"/>
      <point x="131" y="404" type="curve" smooth="yes"/>
      <point x="131" y="471"/>
      <point x="129" y="541"/>
      <point x="129" y="608" type="curve" smooth="yes"/>
      <point x="129" y="674"/>
      <point x="131" y="750"/>
    </contour>
    <contour>
      <point x="129" y="292" type="curve" smooth="yes"/>
      <point x="129" y="300"/>
      <point x="124" y="314"/>
      <point x="111" y="314" type="curve" smooth="yes"/>
      <point x="105" y="314"/>
      <point x="91" y="310"/>
      <point x="91" y="295" type="curve" smooth="yes"/>
      <point x="91" y="226"/>
      <point x="92" y="153"/>
      <point x="92" y="84" type="curve" smooth="yes"/>
      <point x="92" y="16"/>
      <point x="91" y="-57"/>
      <point x="91" y="-125" type="curve" smooth="yes"/>
      <point x="91" y="-140"/>
      <point x="100" y="-146"/>
      <point x="110" y="-146" type="curve" smooth="yes"/>
      <point x="122" y="-146"/>
      <point x="129" y="-142"/>
      <point x="129" y="-123" type="curve" smooth="yes"/>
      <point x="129" y="-56"/>
      <point x="127" y="15"/>
      <point x="127" y="82" type="curve" smooth="yes"/>
      <point x="127" y="148"/>
      <point x="129" y="225"/>
    </contour>
  </outline>
</glyph>
<glyph name="section" format="1">
  <advance width="454"/>
  <unicode hex="00A7"/>
  <outline>
    <contour>
      <point x="102" y="50" type="curve"/>
      <point x="123" y="18"/>
      <point x="182" y="0"/>
      <point x="227" y="0" type="curve" smooth="yes"/>
      <point x="279" y="0"/>
      <point x="390" y="25"/>
      <point x="390" y="114" type="curve" smooth="yes"/>
      <point x="390" y="183"/>
      <point x="337" y="212"/>
      <point x="279" y="231" type="curve"/>
      <point x="331" y="243"/>
      <point x="390" y="274"/>
      <point x="390" y="339" type="curve" smooth="yes"/>
      <point x="390" y="421"/>
      <point x="317" y="445"/>
      <point x="249" y="466" type="curve" smooth="yes"/>
      <point x="183" y="487"/>
      <point x="112" y="491"/>
      <point x="112" y="567" type="curve" smooth="yes"/>
      <point x="112" y="615"/>
      <point x="152" y="660"/>
      <point x="219" y="660" type="curve" smooth="yes"/>
      <point x="271" y="660"/>
      <point x="312" y="639"/>
      <point x="333" y="594" type="curve" smooth="yes"/>
      <point x="349" y="561"/>
      <point x="351" y="517"/>
      <point x="353" y="507" type="curve" smooth="yes"/>
      <point x="354" y="500"/>
      <point x="357" y="484"/>
      <point x="370" y="484" type="curve" smooth="yes"/>
      <point x="381" y="484"/>
      <point x="384" y="497"/>
      <point x="384" y="508" type="curve" smooth="yes"/>
      <point x="384" y="523"/>
      <point x="385" y="583"/>
      <point x="385" y="662" type="curve" smooth="yes"/>
      <point x="385" y="676"/>
      <point x="379" y="688"/>
      <point x="367" y="688" type="curve" smooth="yes"/>
      <point x="357" y="688"/>
      <point x="353" y="679"/>
      <point x="353" y="655" type="curve" smooth="yes"/>
      <point x="353" y="643"/>
      <point x="354" y="630"/>
      <point x="355" y="613" type="curve"/>
      <point x="346" y="641"/>
      <point x="305" y="690"/>
      <point x="220" y="690" type="curve" smooth="yes"/>
      <point x="143" y="690"/>
      <point x="69" y="641"/>
      <point x="69" y="564" type="curve" smooth="yes"/>
      <point x="69" y="496"/>
      <point x="112" y="465"/>
      <point x="149" y="450" type="curve"/>
      <point x="103" y="430"/>
      <point x="69" y="391"/>
      <point x="69" y="339" type="curve" smooth="yes"/>
      <point x="69" y="257"/>
      <point x="133" y="229"/>
      <point x="171" y="218" type="curve" smooth="yes"/>
      <point x="230" y="201"/>
      <point x="347" y="187"/>
      <point x="347" y="106" type="curve" smooth="yes"/>
      <point x="347" y="59"/>
      <point x="297" y="30"/>
      <point x="230" y="30" type="curve" smooth="yes"/>
      <point x="179" y="30"/>
      <point x="134" y="46"/>
      <point x="113" y="88" type="curve" smooth="yes"/>
      <point x="105" y="104"/>
      <point x="103" y="120"/>
      <point x="99" y="141" type="curve" smooth="yes"/>
      <point x="94" y="168"/>
      <point x="91" y="175"/>
      <point x="81" y="175" type="curve" smooth="yes"/>
      <point x="70" y="175"/>
      <point x="68" y="166"/>
      <point x="68" y="148" type="curve" smooth="yes"/>
      <point x="68" y="120"/>
      <point x="73" y="92"/>
      <point x="73" y="67" type="curve" smooth="yes"/>
      <point x="73" y="48"/>
      <point x="70" y="29"/>
      <point x="70" y="16" type="curve" smooth="yes"/>
      <point x="70" y="1"/>
      <point x="74" y="-7"/>
      <point x="82" y="-7" type="curve" smooth="yes" name="hr01"/>
      <point x="94" y="-7"/>
      <point x="101" y="8"/>
    </contour>
    <contour>
      <point x="112" y="342" type="curve" smooth="yes"/>
      <point x="112" y="386"/>
      <point x="146" y="428"/>
      <point x="204" y="434" type="curve"/>
      <point x="265" y="419"/>
      <point x="347" y="398"/>
      <point x="347" y="331" type="curve" smooth="yes"/>
      <point x="347" y="284"/>
      <point x="297" y="255"/>
      <point x="230" y="255" type="curve" smooth="yes"/>
      <point x="172" y="255"/>
      <point x="112" y="280"/>
    </contour>
  </outline>
</glyph>
<glyph name="dieresis" format="1">
  <advance width="342"/>
  <unicode hex="00A8"/>
  <outline>
    <contour>
      <point x="30" y="575" type="curve" smooth="yes"/>
      <point x="30" y="551"/>
      <point x="45" y="533"/>
      <point x="64" y="533" type="curve" smooth="yes"/>
      <point x="82" y="533"/>
      <point x="105" y="543"/>
      <point x="105" y="579" type="curve" smooth="yes"/>
      <point x="105" y="601"/>
      <point x="89" y="616"/>
      <point x="71" y="616" type="curve" smooth="yes"/>
      <point x="42" y="616"/>
      <point x="30" y="589"/>
    </contour>
    <contour>
      <point x="237" y="552" type="curve" smooth="yes"/>
      <point x="237" y="528"/>
      <point x="252" y="510"/>
      <point x="271" y="510" type="curve" smooth="yes" name="hr01"/>
      <point x="289" y="510"/>
      <point x="312" y="520"/>
      <point x="312" y="556" type="curve" smooth="yes"/>
      <point x="312" y="578"/>
      <point x="296" y="593"/>
      <point x="278" y="593" type="curve" smooth="yes"/>
      <point x="249" y="593"/>
      <point x="237" y="566"/>
    </contour>
    <contour>
      <point x="170" y="510" type="move" name="_top"/>
    </contour>
  </outline>
</glyph>
<glyph name="copyright" format="1">
  <advance width="670"/>
  <unicode hex="00A9"/>
  <outline>
    <contour>
      <point x="621" y="253" type="curve" smooth="yes"/>
      <point x="621" y="418"/>
      <point x="526" y="558"/>
      <point x="351" y="558" type="curve" smooth="yes"/>
      <point x="175" y="558"/>
      <point x="47" y="426"/>
      <point x="47" y="244" type="curve" smooth="yes"/>
      <point x="47" y="60"/>
      <point x="177" y="-67"/>
      <point x="328" y="-67" type="curve" smooth="yes"/>
      <point x="466" y="-67"/>
      <point x="621" y="37"/>
    </contour>
    <contour>
      <point x="588" y="252" type="curve" smooth="yes"/>
      <point x="588" y="58"/>
      <point x="454" y="-35"/>
      <point x="329" y="-35" type="curve" smooth="yes"/>
      <point x="192" y="-35"/>
      <point x="83" y="78"/>
      <point x="83" y="244" type="curve" smooth="yes"/>
      <point x="83" y="409"/>
      <point x="190" y="524"/>
      <point x="348" y="524" type="curve" smooth="yes"/>
      <point x="510" y="524"/>
      <point x="588" y="402"/>
    </contour>
    <contour>
      <point x="428" y="376" type="curve"/>
      <point x="407" y="408"/>
      <point x="370" y="415"/>
      <point x="342" y="415" type="curve" smooth="yes"/>
      <point x="246" y="415"/>
      <point x="175" y="334"/>
      <point x="175" y="231" type="curve" smooth="yes"/>
      <point x="175" y="139"/>
      <point x="237" y="65"/>
      <point x="328" y="65" type="curve" smooth="yes"/>
      <point x="386" y="65"/>
      <point x="431" y="92"/>
      <point x="460" y="142" type="curve" smooth="yes"/>
      <point x="464" y="149"/>
      <point x="467" y="157"/>
      <point x="467" y="161" type="curve" smooth="yes"/>
      <point x="467" y="167"/>
      <point x="465" y="175"/>
      <point x="453" y="175" type="curve" smooth="yes"/>
      <point x="445" y="175"/>
      <point x="441" y="169"/>
      <point x="436" y="161" type="curve" smooth="yes"/>
      <point x="407" y="112"/>
      <point x="379" y="95"/>
      <point x="333" y="95" type="curve" smooth="yes"/>
      <point x="262" y="95"/>
      <point x="217" y="144"/>
      <point x="217" y="232" type="curve" smooth="yes"/>
      <point x="217" y="326"/>
      <point x="272" y="385"/>
      <point x="340" y="385" type="curve" smooth="yes"/>
      <point x="398" y="385"/>
      <point x="426" y="347"/>
      <point x="426" y="289" type="curve" smooth="yes"/>
      <point x="426" y="278"/>
      <point x="436" y="274"/>
      <point x="444" y="274" type="curve" smooth="yes"/>
      <point x="451" y="274"/>
      <point x="460" y="282"/>
      <point x="460" y="290" type="curve" smooth="yes"/>
      <point x="460" y="314"/>
      <point x="460" y="391"/>
      <point x="461" y="417" type="curve"/>
      <point x="461" y="427"/>
      <point x="452" y="436"/>
      <point x="444" y="436" type="curve" smooth="yes"/>
      <point x="436" y="436"/>
      <point x="426" y="427"/>
      <point x="426" y="416" type="curve" smooth="yes"/>
      <point x="426" y="403"/>
      <point x="427" y="387"/>
    </contour>
  </outline>
</glyph>
<glyph name="ordfeminine" format="1">
  <advance width="267"/>
  <unicode hex="00AA"/>
  <outline>
    <contour>
      <point x="162" y="730" type="line"/>
      <point x="145" y="743"/>
      <point x="127" y="748"/>
      <point x="106" y="748" type="curve" smooth="yes"/>
      <point x="66" y="748"/>
      <point x="39" y="727"/>
      <point x="39" y="698" type="curve" smooth="yes"/>
      <point x="39" y="670"/>
      <point x="63" y="648"/>
      <point x="100" y="648" type="curve" smooth="yes"/>
      <point x="125" y="648"/>
      <point x="146" y="659"/>
      <point x="162" y="675" type="curve"/>
      <point x="167" y="657"/>
      <point x="179" y="648"/>
      <point x="202" y="648" type="curve" smooth="yes"/>
      <point x="220" y="648"/>
      <point x="233" y="659"/>
      <point x="233" y="681" type="curve" smooth="yes"/>
      <point x="233" y="687"/>
      <point x="232" y="694"/>
      <point x="226" y="694" type="curve" smooth="yes"/>
      <point x="220" y="694"/>
      <point x="218" y="689"/>
      <point x="217" y="686" type="curve" smooth="yes"/>
      <point x="215" y="679"/>
      <point x="216" y="668"/>
      <point x="204" y="668" type="curve" smooth="yes"/>
      <point x="193" y="668"/>
      <point x="187" y="684"/>
      <point x="187" y="704" type="curve" smooth="yes" name="hr01"/>
      <point x="187" y="721"/>
      <point x="188" y="750"/>
      <point x="188" y="762" type="curve" smooth="yes"/>
      <point x="188" y="811"/>
      <point x="158" y="838"/>
      <point x="117" y="838" type="curve" smooth="yes"/>
      <point x="79" y="838"/>
      <point x="51" y="819"/>
      <point x="51" y="781" type="curve" smooth="yes"/>
      <point x="51" y="767"/>
      <point x="59" y="756"/>
      <point x="74" y="756" type="curve" smooth="yes"/>
      <point x="87" y="756"/>
      <point x="95" y="762"/>
      <point x="95" y="770" type="curve" smooth="yes"/>
      <point x="95" y="778"/>
      <point x="89" y="782"/>
      <point x="85" y="782" type="curve"/>
      <point x="80" y="783"/>
      <point x="77" y="786"/>
      <point x="77" y="792" type="curve" smooth="yes"/>
      <point x="77" y="807"/>
      <point x="90" y="816"/>
      <point x="113" y="816" type="curve" smooth="yes" name="hr02"/>
      <point x="148" y="816"/>
      <point x="162" y="792"/>
      <point x="162" y="761" type="curve" smooth="yes"/>
    </contour>
    <contour>
      <point x="67" y="699" type="curve" smooth="yes"/>
      <point x="67" y="715"/>
      <point x="82" y="728"/>
      <point x="111" y="728" type="curve" smooth="yes"/>
      <point x="141" y="728"/>
      <point x="152" y="716"/>
      <point x="152" y="701" type="curve" smooth="yes"/>
      <point x="152" y="686"/>
      <point x="137" y="671"/>
      <point x="105" y="671" type="curve" smooth="yes"/>
      <point x="78" y="671"/>
      <point x="67" y="684"/>
    </contour>
  </outline>
</glyph>
<glyph name="logicalnot" format="1">
  <advance width="375"/>
  <unicode hex="00AC"/>
  <outline>
    <contour>
      <point x="78" y="286" type="curve"/>
      <point x="69" y="286"/>
      <point x="58" y="284"/>
      <point x="58" y="269" type="curve" smooth="yes"/>
      <point x="58" y="259"/>
      <point x="68" y="251"/>
      <point x="77" y="251" type="curve" smooth="yes" name="hr01"/>
      <point x="239" y="251" type="line" smooth="yes"/>
      <point x="277" y="251"/>
      <point x="280" y="237"/>
      <point x="280" y="215" type="curve" smooth="yes"/>
      <point x="280" y="183" type="line" smooth="yes"/>
      <point x="280" y="176"/>
      <point x="280" y="161"/>
      <point x="298" y="161" type="curve" smooth="yes" name="hr02"/>
      <point x="316" y="161"/>
      <point x="317" y="180"/>
      <point x="317" y="180" type="curve"/>
      <point x="317" y="252" type="line" smooth="yes"/>
      <point x="317" y="287"/>
      <point x="298" y="287"/>
      <point x="288" y="287" type="curve" smooth="yes" name="hr03"/>
      <point x="278" y="287"/>
      <point x="218" y="284"/>
      <point x="187" y="284" type="curve" smooth="yes" name="hr04"/>
      <point x="156" y="284"/>
      <point x="79" y="286"/>
    </contour>
  </outline>
</glyph>
<glyph name="registered" format="1">
  <advance width="670"/>
  <unicode hex="00AE"/>
  <outline>
    <contour>
      <point x="621" y="253" type="curve" smooth="yes"/>
      <point x="621" y="418"/>
      <point x="526" y="558"/>
      <point x="351" y="558" type="curve" smooth="yes"/>
      <point x="175" y="558"/>
      <point x="47" y="426"/>
      <point x="47" y="244" type="curve" smooth="yes"/>
      <point x="47" y="60"/>
      <point x="177" y="-67"/>
      <point x="328" y="-67" type="curve" smooth="yes"/>
      <point x="466" y="-67"/>
      <point x="621" y="37"/>
    </contour>
    <contour>
      <point x="588" y="252" type="curve" smooth="yes"/>
      <point x="588" y="58"/>
      <point x="454" y="-35"/>
      <point x="329" y="-35" type="curve" smooth="yes"/>
      <point x="192" y="-35"/>
      <point x="83" y="78"/>
      <point x="83" y="244" type="curve" smooth="yes"/>
      <point x="83" y="409"/>
      <point x="190" y="524"/>
      <point x="348" y="524" type="curve" smooth="yes"/>
      <point x="510" y="524"/>
      <point x="588" y="402"/>
    </contour>
    <contour>
      <point x="276" y="229" type="line"/>
      <point x="322" y="170"/>
      <point x="393" y="55"/>
      <point x="408" y="55" type="curve" smooth="yes" name="hr01"/>
      <point x="470" y="55"/>
      <point x="480" y="60"/>
      <point x="480" y="67" type="curve" smooth="yes"/>
      <point x="480" y="72"/>
      <point x="473" y="78"/>
      <point x="459" y="78" type="curve" smooth="yes"/>
      <point x="437" y="78" type="line"/>
      <point x="389" y="130"/>
      <point x="321" y="229"/>
      <point x="321" y="229" type="curve" name="hr02"/>
      <point x="371" y="229"/>
      <point x="441" y="256"/>
      <point x="441" y="335" type="curve" smooth="yes"/>
      <point x="441" y="409"/>
      <point x="364" y="435"/>
      <point x="311" y="435" type="curve" smooth="yes"/>
      <point x="258" y="435"/>
      <point x="243" y="433"/>
      <point x="196" y="433" type="curve" smooth="yes"/>
      <point x="185" y="433"/>
      <point x="183" y="428"/>
      <point x="183" y="423" type="curve" smooth="yes"/>
      <point x="183" y="416"/>
      <point x="186" y="411"/>
      <point x="197" y="411" type="curve" smooth="yes"/>
      <point x="221" y="411"/>
      <point x="227" y="411"/>
      <point x="227" y="392" type="curve" smooth="yes"/>
      <point x="227" y="343"/>
      <point x="230" y="304"/>
      <point x="230" y="255" type="curve" smooth="yes"/>
      <point x="230" y="206"/>
      <point x="228" y="164"/>
      <point x="228" y="116" type="curve" smooth="yes"/>
      <point x="228" y="98"/>
      <point x="218" y="96"/>
      <point x="193" y="96" type="curve" smooth="yes"/>
      <point x="185" y="96"/>
      <point x="181" y="89"/>
      <point x="181" y="85" type="curve" smooth="yes"/>
      <point x="181" y="79"/>
      <point x="186" y="74"/>
      <point x="199" y="74" type="curve" smooth="yes"/>
      <point x="215" y="74"/>
      <point x="241" y="75"/>
      <point x="257" y="75" type="curve" smooth="yes"/>
      <point x="273" y="75"/>
      <point x="289" y="74"/>
      <point x="306" y="74" type="curve" smooth="yes"/>
      <point x="312" y="74"/>
      <point x="314" y="81"/>
      <point x="314" y="84" type="curve" smooth="yes"/>
      <point x="314" y="90"/>
      <point x="310" y="97"/>
      <point x="303" y="97" type="curve" smooth="yes"/>
      <point x="267" y="97" type="line"/>
      <point x="267" y="229" type="line"/>
    </contour>
    <contour>
      <point x="401" y="332" type="curve" smooth="yes"/>
      <point x="401" y="279"/>
      <point x="340" y="258"/>
      <point x="282" y="258" type="curve"/>
      <point x="280" y="258"/>
      <point x="268" y="259"/>
      <point x="267" y="259" type="curve"/>
      <point x="267" y="402" type="line"/>
      <point x="267" y="402"/>
      <point x="279" y="405"/>
      <point x="295" y="405" type="curve" smooth="yes"/>
      <point x="332" y="405"/>
      <point x="401" y="397"/>
    </contour>
  </outline>
</glyph>
<glyph name="macron" format="1">
  <advance width="316"/>
  <unicode hex="00AF"/>
  <outline>
    <contour>
      <point x="285" y="542" type="curve" smooth="yes"/>
      <point x="253" y="542"/>
      <point x="212" y="539"/>
      <point x="157" y="539" type="curve" smooth="yes" name="hr01"/>
      <point x="123" y="539"/>
      <point x="55" y="541"/>
      <point x="36" y="541" type="curve" smooth="yes" name="hr02"/>
      <point x="25" y="541"/>
      <point x="20" y="533"/>
      <point x="20" y="526" type="curve" smooth="yes"/>
      <point x="20" y="519"/>
      <point x="27" y="510"/>
      <point x="36" y="510" type="curve" smooth="yes" name="hr03"/>
      <point x="83" y="510"/>
      <point x="224" y="511"/>
      <point x="277" y="511" type="curve" smooth="yes" name="hr04"/>
      <point x="292" y="511"/>
      <point x="296" y="523"/>
      <point x="296" y="529" type="curve" smooth="yes"/>
      <point x="296" y="536"/>
      <point x="290" y="542"/>
    </contour>
    <contour>
      <point x="145" y="510" type="move" name="_top"/>
    </contour>
  </outline>
</glyph>
<glyph name="degree" format="1">
  <advance width="236"/>
  <unicode hex="00B0"/>
  <outline>
    <contour>
      <point x="199" y="754" type="curve" smooth="yes"/>
      <point x="199" y="798"/>
      <point x="173" y="837"/>
      <point x="122" y="837" type="curve" smooth="yes"/>
      <point x="71" y="837"/>
      <point x="37" y="800"/>
      <point x="37" y="752" type="curve" smooth="yes"/>
      <point x="37" y="702"/>
      <point x="73" y="669"/>
      <point x="116" y="669" type="curve" smooth="yes"/>
      <point x="155" y="669"/>
      <point x="199" y="696"/>
    </contour>
    <contour>
      <point x="119" y="814" type="curve" smooth="yes"/>
      <point x="152" y="814"/>
      <point x="162" y="784"/>
      <point x="162" y="753" type="curve" smooth="yes"/>
      <point x="162" y="715"/>
      <point x="145" y="690"/>
      <point x="116" y="690" type="curve" smooth="yes"/>
      <point x="88" y="690"/>
      <point x="74" y="716"/>
      <point x="74" y="752" type="curve" smooth="yes"/>
      <point x="74" y="787"/>
      <point x="86" y="814"/>
    </contour>
  </outline>
</glyph>
<glyph name="plusminus" format="1">
  <advance width="390"/>
  <unicode hex="00B1"/>
  <outline>
    <contour>
      <point x="176" y="541" type="curve" smooth="yes"/>
      <point x="176" y="515"/>
      <point x="179" y="475"/>
      <point x="179" y="425" type="curve"/>
      <point x="60" y="425" type="line" smooth="yes"/>
      <point x="49" y="425"/>
      <point x="44" y="415"/>
      <point x="44" y="408" type="curve" smooth="yes"/>
      <point x="44" y="401"/>
      <point x="51" y="391"/>
      <point x="60" y="391" type="curve" smooth="yes"/>
      <point x="82" y="391"/>
      <point x="128" y="393"/>
      <point x="177" y="394" type="curve"/>
      <point x="176" y="355"/>
      <point x="174" y="300"/>
      <point x="174" y="276" type="curve" smooth="yes"/>
      <point x="174" y="265"/>
      <point x="185" y="260"/>
      <point x="192" y="260" type="curve" smooth="yes"/>
      <point x="199" y="260"/>
      <point x="211" y="267"/>
      <point x="212" y="276" type="curve"/>
      <point x="212" y="394" type="line"/>
      <point x="325" y="394" type="line"/>
      <point x="340" y="396"/>
      <point x="344" y="409"/>
      <point x="344" y="415" type="curve" smooth="yes" name="hr01"/>
      <point x="344" y="422"/>
      <point x="338" y="430"/>
      <point x="333" y="430" type="curve"/>
      <point x="303" y="429"/>
      <point x="262" y="425"/>
      <point x="212" y="425" type="curve" name="hr02"/>
      <point x="212" y="471"/>
      <point x="213" y="515"/>
      <point x="213" y="541" type="curve" smooth="yes"/>
      <point x="213" y="555"/>
      <point x="199" y="560"/>
      <point x="193" y="560" type="curve" smooth="yes"/>
      <point x="186" y="560"/>
      <point x="176" y="555"/>
    </contour>
    <contour>
      <point x="333" y="210" type="curve"/>
      <point x="301" y="209"/>
      <point x="256" y="205"/>
      <point x="201" y="205" type="curve" smooth="yes"/>
      <point x="60" y="205" type="line" smooth="yes"/>
      <point x="49" y="205"/>
      <point x="44" y="195"/>
      <point x="44" y="188" type="curve" smooth="yes"/>
      <point x="44" y="181"/>
      <point x="51" y="171"/>
      <point x="60" y="171" type="curve"/>
      <point x="107" y="172"/>
      <point x="266" y="176"/>
      <point x="325" y="176" type="curve" smooth="yes"/>
      <point x="340" y="176"/>
      <point x="344" y="189"/>
      <point x="344" y="195" type="curve" smooth="yes" name="hr03"/>
      <point x="344" y="202"/>
      <point x="338" y="210"/>
    </contour>
  </outline>
</glyph>
<glyph name="twosuperior" format="1">
  <advance width="247"/>
  <unicode hex="00B2"/>
  <outline>
    <contour>
      <point x="191" y="553" type="curve" smooth="yes"/>
      <point x="176" y="529"/>
      <point x="171" y="526"/>
      <point x="168" y="526" type="curve"/>
      <point x="79" y="529" type="line"/>
      <point x="126" y="572"/>
      <point x="210" y="669"/>
      <point x="210" y="754" type="curve" smooth="yes"/>
      <point x="210" y="799"/>
      <point x="182" y="836"/>
      <point x="130" y="836" type="curve" smooth="yes"/>
      <point x="65" y="836"/>
      <point x="29" y="775"/>
      <point x="29" y="750" type="curve" smooth="yes"/>
      <point x="29" y="732"/>
      <point x="35" y="721"/>
      <point x="50" y="721" type="curve"/>
      <point x="52" y="721"/>
      <point x="70" y="723"/>
      <point x="70" y="744" type="curve" smooth="yes"/>
      <point x="70" y="754"/>
      <point x="59" y="755"/>
      <point x="59" y="762" type="curve" smooth="yes"/>
      <point x="59" y="773"/>
      <point x="79" y="808"/>
      <point x="126" y="808" type="curve" smooth="yes"/>
      <point x="161" y="808"/>
      <point x="172" y="785"/>
      <point x="172" y="755" type="curve" smooth="yes"/>
      <point x="172" y="675"/>
      <point x="87" y="562"/>
      <point x="30" y="519" type="curve" smooth="yes"/>
      <point x="26" y="516"/>
      <point x="22" y="513"/>
      <point x="22" y="509" type="curve" smooth="yes"/>
      <point x="22" y="505"/>
      <point x="25" y="501"/>
      <point x="35" y="501" type="curve" smooth="yes"/>
      <point x="49" y="501"/>
      <point x="53" y="504"/>
      <point x="55" y="507" type="curve"/>
      <point x="55" y="507"/>
      <point x="142" y="503"/>
      <point x="184" y="503" type="curve" smooth="yes" name="hr01"/>
      <point x="190" y="503"/>
      <point x="194" y="509"/>
      <point x="196" y="512" type="curve" smooth="yes"/>
      <point x="217" y="551"/>
      <point x="218" y="549"/>
      <point x="218" y="554" type="curve" smooth="yes"/>
      <point x="218" y="557"/>
      <point x="216" y="563"/>
      <point x="206" y="563" type="curve" smooth="yes"/>
      <point x="197" y="563"/>
      <point x="193" y="557"/>
    </contour>
  </outline>
</glyph>
<glyph name="threesuperior" format="1">
  <advance width="233"/>
  <unicode hex="00B3"/>
  <outline>
    <contour>
      <point x="67" y="676" type="curve" smooth="yes"/>
      <point x="64" y="674"/>
      <point x="53" y="666"/>
      <point x="53" y="655" type="curve" smooth="yes"/>
      <point x="53" y="644"/>
      <point x="65" y="643"/>
      <point x="67" y="643" type="curve"/>
      <point x="73" y="643"/>
      <point x="92" y="652"/>
      <point x="115" y="652" type="curve" smooth="yes"/>
      <point x="142" y="652"/>
      <point x="163" y="639"/>
      <point x="163" y="605" type="curve" smooth="yes"/>
      <point x="163" y="552"/>
      <point x="112" y="521"/>
      <point x="80" y="521" type="curve" smooth="yes"/>
      <point x="53" y="521"/>
      <point x="49" y="543"/>
      <point x="35" y="543" type="curve" smooth="yes" name="hr01"/>
      <point x="25" y="543"/>
      <point x="23" y="533"/>
      <point x="23" y="527" type="curve" smooth="yes" name="hr02"/>
      <point x="23" y="504"/>
      <point x="52" y="495"/>
      <point x="74" y="495" type="curve" smooth="yes"/>
      <point x="132" y="495"/>
      <point x="201" y="555"/>
      <point x="201" y="609" type="curve" smooth="yes"/>
      <point x="201" y="653"/>
      <point x="154" y="675"/>
      <point x="121" y="675" type="curve" smooth="yes"/>
      <point x="111" y="675"/>
      <point x="101" y="673"/>
      <point x="101" y="673" type="curve"/>
      <point x="112" y="684"/>
      <point x="197" y="718"/>
      <point x="197" y="784" type="curve" smooth="yes"/>
      <point x="197" y="831"/>
      <point x="155" y="836"/>
      <point x="136" y="836" type="curve" smooth="yes"/>
      <point x="69" y="836"/>
      <point x="35" y="775"/>
      <point x="35" y="749" type="curve" smooth="yes" name="hr03"/>
      <point x="35" y="739"/>
      <point x="40" y="734"/>
      <point x="46" y="734" type="curve" smooth="yes"/>
      <point x="54" y="734"/>
      <point x="58" y="744"/>
      <point x="61" y="753" type="curve" smooth="yes"/>
      <point x="73" y="788"/>
      <point x="93" y="810"/>
      <point x="129" y="810" type="curve" smooth="yes"/>
      <point x="153" y="810"/>
      <point x="159" y="800"/>
      <point x="159" y="781" type="curve" smooth="yes"/>
      <point x="159" y="726"/>
      <point x="105" y="704"/>
    </contour>
  </outline>
</glyph>
<glyph name="acute" format="1">
  <advance width="154"/>
  <unicode hex="00B4"/>
  <outline>
    <contour>
      <point x="131" y="653" type="curve" smooth="yes"/>
      <point x="131" y="672"/>
      <point x="124" y="680"/>
      <point x="107" y="680" type="curve" smooth="yes"/>
      <point x="83" y="680"/>
      <point x="20" y="546"/>
      <point x="20" y="521" type="curve" smooth="yes"/>
      <point x="20" y="512"/>
      <point x="23" y="510"/>
      <point x="28" y="510" type="curve" smooth="yes"/>
      <point x="47" y="510"/>
      <point x="131" y="632"/>
    </contour>
    <contour>
      <point x="78" y="510" type="move" name="_top"/>
    </contour>
  </outline>
</glyph>
<glyph name="mu" format="1">
  <advance width="644"/>
  <unicode hex="00B5"/>
  <outline>
    <contour>
      <point x="465" y="172" type="line" smooth="yes"/>
      <point x="464" y="81"/>
      <point x="390" y="10"/>
      <point x="302" y="10" type="curve" smooth="yes"/>
      <point x="195" y="10"/>
      <point x="181" y="114"/>
      <point x="181" y="206" type="curve" smooth="yes"/>
      <point x="181" y="328"/>
      <point x="185" y="397"/>
      <point x="185" y="427" type="curve" smooth="yes"/>
      <point x="185" y="469"/>
      <point x="179" y="472"/>
      <point x="151" y="472" type="curve" smooth="yes"/>
      <point x="128" y="472"/>
      <point x="25" y="470"/>
      <point x="25" y="452" type="curve" smooth="yes"/>
      <point x="25" y="448"/>
      <point x="30" y="440"/>
      <point x="42" y="440" type="curve" smooth="yes"/>
      <point x="109" y="440" type="line" smooth="yes"/>
      <point x="140" y="440"/>
      <point x="141" y="432"/>
      <point x="141" y="402" type="curve"/>
      <point x="142" y="293"/>
      <point x="144" y="198"/>
      <point x="144" y="115" type="curve" smooth="yes"/>
      <point x="144" y="0"/>
      <point x="142" y="-94"/>
      <point x="140" y="-177" type="curve"/>
      <point x="140" y="-194"/>
      <point x="152" y="-201"/>
      <point x="163" y="-201" type="curve" smooth="yes"/>
      <point x="176" y="-201"/>
      <point x="183" y="-194"/>
      <point x="183" y="-174" type="curve" smooth="yes"/>
      <point x="183" y="-110"/>
      <point x="180" y="-31"/>
      <point x="179" y="42" type="curve"/>
      <point x="205" y="8"/>
      <point x="247" y="-20"/>
      <point x="305" y="-20" type="curve" smooth="yes"/>
      <point x="398" y="-20"/>
      <point x="447" y="38"/>
      <point x="466" y="81" type="curve"/>
      <point x="467" y="3"/>
      <point x="471" y="-22"/>
      <point x="486" y="-22" type="curve" smooth="yes" name="hr01"/>
      <point x="530" y="-22"/>
      <point x="622" y="-22"/>
      <point x="622" y="-1" type="curve" smooth="yes"/>
      <point x="622" y="7"/>
      <point x="607" y="10"/>
      <point x="595" y="10" type="curve" smooth="yes" name="hr02"/>
      <point x="563" y="10"/>
      <point x="543" y="9"/>
      <point x="535" y="9" type="curve" smooth="yes"/>
      <point x="512" y="9"/>
      <point x="507" y="17"/>
      <point x="507" y="30" type="curve" smooth="yes"/>
      <point x="507" y="36"/>
      <point x="506" y="69"/>
      <point x="506" y="156" type="curve" smooth="yes"/>
      <point x="506" y="308"/>
      <point x="509" y="355"/>
      <point x="509" y="383" type="curve" smooth="yes"/>
      <point x="509" y="431"/>
      <point x="500" y="432"/>
      <point x="466" y="432" type="curve" smooth="yes"/>
      <point x="431" y="432"/>
      <point x="341" y="431"/>
      <point x="341" y="411" type="curve" smooth="yes"/>
      <point x="341" y="403"/>
      <point x="354" y="400"/>
      <point x="375" y="400" type="curve" smooth="yes"/>
      <point x="441" y="400" type="line" smooth="yes" name="hr03"/>
      <point x="464" y="400"/>
      <point x="468" y="395"/>
      <point x="468" y="359" type="curve"/>
    </contour>
  </outline>
</glyph>
<glyph name="paragraph" format="1">
  <advance width="623"/>
  <unicode hex="00B6"/>
  <outline>
    <contour>
      <point x="360" y="388" type="curve" smooth="yes"/>
      <point x="360" y="521"/>
      <point x="362" y="679"/>
      <point x="362" y="787" type="curve"/>
      <point x="391" y="787"/>
      <point x="410" y="784"/>
      <point x="433" y="780" type="curve"/>
      <point x="433" y="26" type="line" smooth="yes"/>
      <point x="433" y="13"/>
      <point x="444" y="0"/>
      <point x="457" y="0" type="curve" smooth="yes"/>
      <point x="476" y="0"/>
      <point x="476" y="27"/>
      <point x="476" y="52" type="curve" smooth="yes"/>
      <point x="476" y="211"/>
      <point x="475" y="274"/>
      <point x="475" y="437" type="curve" smooth="yes"/>
      <point x="475" y="564"/>
      <point x="481" y="679"/>
      <point x="481" y="749" type="curve" smooth="yes"/>
      <point x="481" y="770"/>
      <point x="487" y="789"/>
      <point x="530" y="789" type="curve" smooth="yes"/>
      <point x="564" y="789" type="line" smooth="yes"/>
      <point x="586" y="789"/>
      <point x="592" y="797"/>
      <point x="592" y="804" type="curve" smooth="yes"/>
      <point x="592" y="810"/>
      <point x="588" y="818"/>
      <point x="564" y="818" type="curve" smooth="yes"/>
      <point x="468" y="818"/>
      <point x="430" y="821"/>
      <point x="319" y="821" type="curve" smooth="yes"/>
      <point x="157" y="821"/>
      <point x="28" y="761"/>
      <point x="28" y="595" type="curve" smooth="yes"/>
      <point x="28" y="433"/>
      <point x="179" y="368"/>
      <point x="318" y="356" type="curve"/>
      <point x="318" y="201"/>
      <point x="317" y="175"/>
      <point x="317" y="29" type="curve" smooth="yes"/>
      <point x="317" y="8"/>
      <point x="326" y="0"/>
      <point x="337" y="0" type="curve" smooth="yes"/>
      <point x="350" y="0"/>
      <point x="362" y="9"/>
      <point x="362" y="39" type="curve" smooth="yes"/>
      <point x="362" y="182"/>
      <point x="360" y="233"/>
    </contour>
  </outline>
</glyph>
<glyph name="cedilla" format="1">
  <advance width="228"/>
  <unicode hex="00B8"/>
  <outline>
    <contour>
      <point x="35" y="7" type="line"/>
      <point x="33" y="-5"/>
      <point x="29" y="-43"/>
      <point x="23" y="-71" type="curve" smooth="yes"/>
      <point x="22" y="-76"/>
      <point x="20" y="-84"/>
      <point x="20" y="-88" type="curve" smooth="yes"/>
      <point x="20" y="-93"/>
      <point x="26" y="-100"/>
      <point x="36" y="-100" type="curve" smooth="yes"/>
      <point x="55" y="-100"/>
      <point x="91" y="-72"/>
      <point x="128" y="-72" type="curve" smooth="yes" name="hr01"/>
      <point x="157" y="-72"/>
      <point x="171" y="-90"/>
      <point x="171" y="-109" type="curve" smooth="yes"/>
      <point x="171" y="-140"/>
      <point x="136" y="-152"/>
      <point x="75" y="-152" type="curve" smooth="yes"/>
      <point x="49" y="-152"/>
      <point x="34" y="-152"/>
      <point x="34" y="-164" type="curve" smooth="yes"/>
      <point x="34" y="-173"/>
      <point x="42" y="-181"/>
      <point x="79" y="-181" type="curve" smooth="yes"/>
      <point x="147" y="-181"/>
      <point x="208" y="-155"/>
      <point x="208" y="-103" type="curve" smooth="yes"/>
      <point x="208" y="-65"/>
      <point x="175" y="-40"/>
      <point x="131" y="-40" type="curve" smooth="yes"/>
      <point x="103" y="-40"/>
      <point x="83" y="-50"/>
      <point x="51" y="-69" type="curve"/>
      <point x="64" y="3" type="line"/>
      <point x="45" y="7" type="line"/>
    </contour>
    <contour>
      <point x="116" y="0" type="move" name="_bottom"/>
    </contour>
  </outline>
</glyph>
<glyph name="onesuperior" format="1">
  <advance width="179"/>
  <unicode hex="00B9"/>
  <outline>
    <contour>
      <point x="110" y="524" type="line"/>
      <point x="116" y="809"/>
      <point x="116" y="815"/>
      <point x="116" y="815" type="curve"/>
      <point x="116" y="825"/>
      <point x="112" y="827"/>
      <point x="108" y="827" type="curve" smooth="yes"/>
      <point x="102" y="827"/>
      <point x="43" y="824"/>
      <point x="37" y="823" type="curve"/>
      <point x="30" y="823"/>
      <point x="21" y="819"/>
      <point x="21" y="812" type="curve" smooth="yes"/>
      <point x="21" y="802"/>
      <point x="30" y="802"/>
      <point x="37" y="802" type="curve" smooth="yes"/>
      <point x="46" y="802"/>
      <point x="68" y="803"/>
      <point x="73" y="803" type="curve" smooth="yes"/>
      <point x="82" y="803"/>
      <point x="82" y="794"/>
      <point x="82" y="789" type="curve" smooth="yes"/>
      <point x="82" y="758"/>
      <point x="81" y="752"/>
      <point x="80" y="683" type="curve" smooth="yes" name="hr01"/>
      <point x="78" y="596"/>
      <point x="75" y="584"/>
      <point x="75" y="541" type="curve" smooth="yes"/>
      <point x="75" y="524"/>
      <point x="65" y="522"/>
      <point x="37" y="522" type="curve" smooth="yes"/>
      <point x="33" y="522"/>
      <point x="22" y="520"/>
      <point x="22" y="512" type="curve" smooth="yes"/>
      <point x="22" y="500"/>
      <point x="35" y="500"/>
      <point x="42" y="500" type="curve" smooth="yes"/>
      <point x="144" y="500" type="line" smooth="yes"/>
      <point x="153" y="500"/>
      <point x="158" y="501"/>
      <point x="158" y="512" type="curve" smooth="yes"/>
      <point x="158" y="524"/>
      <point x="146" y="524"/>
      <point x="140" y="524" type="curve" smooth="yes"/>
    </contour>
  </outline>
</glyph>
<glyph name="ordmasculine" format="1">
  <advance width="250"/>
  <unicode hex="00BA"/>
  <outline>
    <contour>
      <point x="213" y="744" type="curve" smooth="yes"/>
      <point x="213" y="794"/>
      <point x="185" y="838"/>
      <point x="129" y="838" type="curve" smooth="yes"/>
      <point x="75" y="838"/>
      <point x="37" y="797"/>
      <point x="37" y="741" type="curve" smooth="yes"/>
      <point x="37" y="685"/>
      <point x="77" y="645"/>
      <point x="123" y="645" type="curve" smooth="yes"/>
      <point x="165" y="645"/>
      <point x="213" y="678"/>
    </contour>
    <contour>
      <point x="127" y="813" type="curve" smooth="yes"/>
      <point x="162" y="813"/>
      <point x="181" y="786"/>
      <point x="181" y="743" type="curve" smooth="yes"/>
      <point x="181" y="691"/>
      <point x="150" y="670"/>
      <point x="124" y="670" type="curve" smooth="yes"/>
      <point x="98" y="670"/>
      <point x="70" y="692"/>
      <point x="70" y="742" type="curve" smooth="yes"/>
      <point x="70" y="789"/>
      <point x="94" y="813"/>
    </contour>
  </outline>
</glyph>
